<?xml version="1.0" standalone="no"?><!DOCTYPE svg PUBLIC "-//W3C//DTD SVG 1.1//EN" "http://www.w3.org/Graphics/SVG/1.1/DTD/svg11.dtd"><svg class="icon" width="200px" height="200.00px" viewBox="0 0 1024 1024" version="1.1" xmlns="http://www.w3.org/2000/svg"><path fill="#333333" d="M664.8 64c8.33 0 16.276 3.265 22.237 9.043l0.363 0.357 215.2 215.2a32.2 32.2 0 0 1 9.4 22.19V928c0 17.523-14.015 31.714-31.47 32H240c-17.523 0-31.714-14.015-32-31.47V748a8 8 0 0 1 8-8h56a8 8 0 0 1 8 8v140h560V394H624c-22.968 0-41.624-18.426-41.994-41.305L582 352V136H280v140a8 8 0 0 1-8 8h-56a8 8 0 0 1-8-8V96c0-17.523 14.015-31.714 31.47-32H664.8z m-57.2 554c3.52 0 6.4 3.6 6.4 8v48c0 4.4-2.88 8-6.4 8H460.4c-3.52 0-6.4-3.6-6.4-8v-48c0-4.4 2.88-8 6.4-8zM268 367c4.4 0 8 2.61 8 5.8V475h107.2c3.124 0 5.691 3.452 5.797 7.726L389 483v48c0 4.4-2.61 8-5.8 8H276v112.2c0 3.124-3.452 5.691-7.726 5.797L268 657h-48c-4.4 0-8-2.61-8-5.8V539H104.8c-3.124 0-5.691-3.452-5.797-7.726L99 531v-48c0-4.4 2.61-8 5.8-8H212V372.8c0-3.124 3.452-5.691 7.726-5.797L220 367z m499.6 115c3.52 0 6.4 3.6 6.4 8v48c0 4.4-2.88 8-6.4 8H460.4c-3.52 0-6.4-3.6-6.4-8v-48c0-4.4 2.88-8 6.4-8zM650 137.8V326h188.2L650 137.8z" /></svg>