<?xml version="1.0" standalone="no"?><!DOCTYPE svg PUBLIC "-//W3C//DTD SVG 1.1//EN" "http://www.w3.org/Graphics/SVG/1.1/DTD/svg11.dtd"><svg t="1714457806850" class="icon" viewBox="0 0 1024 1024" version="1.1" xmlns="http://www.w3.org/2000/svg" p-id="6981" xmlns:xlink="http://www.w3.org/1999/xlink" width="200" height="200"><path d="M512 244.004571a318.976 318.976 0 0 1 318.976 318.976v233.033143a32.036571 32.036571 0 0 1-31.963429 31.963429H224.987429a32.036571 32.036571 0 0 1-31.963429-31.963429V562.980571A318.976 318.976 0 0 1 512 244.004571zM483.986286 68.022857h56.027428c4.388571 0 8.045714 3.584 8.045715 8.045714v95.963429a8.045714 8.045714 0 0 1-8.045715 7.972571h-56.027428a8.045714 8.045714 0 0 1-8.045715-8.045714V76.068571c0-4.388571 3.657143-8.045714 8.045715-8.045714zM177.225143 191.634286a8.045714 8.045714 0 0 1 11.337143 0l67.876571 67.876571a8.045714 8.045714 0 0 1 0 11.337143l-39.570286 39.570286a8.045714 8.045714 0 0 1-11.337142 0l-67.876572-67.876572a8.045714 8.045714 0 0 1 0-11.264l39.570286-39.643428z m669.622857 0l39.570286 39.643428a8.045714 8.045714 0 0 1 0 11.264l-67.876572 67.876572a8.045714 8.045714 0 0 1-11.264 0l-39.643428-39.497143a8.045714 8.045714 0 0 1 0-11.410286l67.876571-67.876571a8.045714 8.045714 0 0 1 11.337143 0z m-654.848 700.342857h640c17.700571 0 32.036571 14.336 32.036571 32.036571v23.990857a8.045714 8.045714 0 0 1-8.045714 8.045715H168.009143a8.045714 8.045714 0 0 1-8.045714-8.045715v-23.990857c0-17.700571 14.336-32.036571 32.036571-32.036571z m147.968-317.001143v253.074286h64V574.902857h-64z" fill="#FF4D4F" p-id="6982"></path></svg>