<?xml version="1.0" standalone="no"?><!DOCTYPE svg PUBLIC "-//W3C//DTD SVG 1.1//EN" "http://www.w3.org/Graphics/SVG/1.1/DTD/svg11.dtd"><svg class="icon" width="32px" height="32.00px" viewBox="0 0 1024 1024" version="1.1" xmlns="http://www.w3.org/2000/svg"><path fill="currentColor" d="M338.304 93.952a64 64 0 0 1 34.176 9.92l559.68 354.048a64 64 0 0 1 0 108.16L372.48 920.128a64 64 0 0 1-98.176-54.08V157.952a64 64 0 0 1 64-64zM365.44 199.68v615.68L864 512 365.44 199.68zM64 98.56m32 0l25.6 0q32 0 32 32l0 762.24q0 32-32 32l-25.6 0q-32 0-32-32l0-762.24q0-32 32-32Z" /></svg>