<?xml version="1.0" standalone="no"?><!DOCTYPE svg PUBLIC "-//W3C//DTD SVG 1.1//EN" "http://www.w3.org/Graphics/SVG/1.1/DTD/svg11.dtd"><svg t="1658720614703" class="icon" viewBox="0 0 1024 1024" version="1.1" xmlns="http://www.w3.org/2000/svg" p-id="16402" xmlns:xlink="http://www.w3.org/1999/xlink" width="1em" height="1em"><defs><style type="text/css">@font-face { font-family: feedback-iconfont; src: url("//at.alicdn.com/t/font_1031158_u69w8yhxdu.woff2?t=1630033759944") format("woff2"), url("//at.alicdn.com/t/font_1031158_u69w8yhxdu.woff?t=1630033759944") format("woff"), url("//at.alicdn.com/t/font_1031158_u69w8yhxdu.ttf?t=1630033759944") format("truetype"); }
</style></defs><path d="M223.274667 456.192L67.413333 389.717333C50.901333 382.677333 42.666667 370.090667 42.666667 352c0-18.133333 8.234667-30.72 24.746666-37.717333L496.298667 131.413333c1.194667-0.512 2.389333-0.938667 3.584-1.365333a38.016 38.016 0 0 1 28.501333 1.706667l0.341333 0.128L956.586667 314.282667c16.512 7.04 24.746667 19.626667 24.746666 37.717333s-8.234667 30.677333-24.746666 37.717333l-20.437334 8.704v189.098667a39.68 39.68 0 0 1-11.818666 28.928 38.698667 38.698667 0 0 1-28.586667 11.946667 38.698667 38.698667 0 0 1-28.586667-11.946667 39.68 39.68 0 0 1-11.776-28.928v-154.624l-54.613333 23.253333v308.352a39.552 39.552 0 0 1-6.741333 22.869334l0.938666 1.109333-8.277333 7.082667-0.042667 0.085333-8.234666 7.125333-0.213334-0.298666a468.864 468.864 0 0 1-69.632 43.818666C644.053333 879.445333 578.56 896 512 896c-66.517333 0-132.010667-16.554667-196.522667-49.706667-20.053333-10.282667-38.826667-21.674667-56.405333-34.090666a353.408 353.408 0 0 1-19.84-15.061334l-1.194667-0.981333-0.426666-0.384-0.170667-0.128-0.213333-0.170667-0.042667-0.085333a39.125333 39.125333 0 0 1-13.952-30.890667v-308.309333z m496.725333 34.432l-192.341333 82.005333a38.485333 38.485333 0 0 1-31.36 0L304.128 490.666667v253.568l1.237333 0.853333c14.506667 10.24 30.08 19.626667 46.762667 28.202667 52.992 27.264 106.325333 40.874667 159.957333 40.874666 53.632 0 106.965333-13.653333 159.957334-40.874666 16.64-8.533333 32.256-17.92 46.762666-28.16l1.237334-0.896v-253.610667zM512 213.845333L408.32 260.565333 512 307.2l103.765333-46.677333-103.722666-46.72z m209.066667 88.832l-192.64 86.741334a38.314667 38.314667 0 0 1-32.853334 0L302.933333 302.634667 187.178667 352 512 490.496l324.821333-138.496-115.669333-49.322667z" fill="#ffffff" p-id="16403"></path></svg>