<?xml version="1.0" standalone="no"?><!DOCTYPE svg PUBLIC "-//W3C//DTD SVG 1.1//EN" "http://www.w3.org/Graphics/SVG/1.1/DTD/svg11.dtd"><svg class="icon" width="32px" height="32.00px" viewBox="0 0 1024 1024" version="1.1" xmlns="http://www.w3.org/2000/svg"><path fill="currentColor" d="M393.142857 219.428571c3.072 0 5.924571 1.462857 7.753143 3.657143l1.462857 2.56 156.818286 427.885715c6.656-31.232 23.625143-56.466286 51.565714-75.264 30.134857-21.430857 71.094857-34.011429 122.88-37.668572l19.968-0.950857 91.209143-2.413714v-16.091429c0-54.784-29.842286-81.334857-89.6-81.334857-25.819429 0-46.006857 4.022857-61.293714 13.677714a71.460571 71.460571 0 0 0-32.182857 39.350857l-2.56 8.996572-91.209143-7.314286c8.923429-45.860571 31.451429-79.725714 67.803428-100.644571 30.72-19.309714 72.630857-28.16 125.878857-28.16 61.366857 0 107.373714 15.36 136.411429 45.933714 22.966857 23.552 35.693714 56.758857 38.253714 99.474286l0.512 16.457143v265.728h-85.577143v-54.784c-16.091429 20.918857-36.278857 36.278857-59.684571 47.542857-26.624 12.068571-58.148571 18.505143-94.427429 18.505143-37.595429 0-67.949714-8.338286-91.648-24.576l4.681143 12.434285c1.828571 4.827429-0.877714 10.020571-5.997714 11.702857l-1.462857 0.292572-1.682286 0.146286H512a9.947429 9.947429 0 0 1-7.899429-3.803429l-1.389714-2.56-53.101714-155.648H230.619429l-53.613715 155.648a9.508571 9.508571 0 0 1-6.217143 5.851429L167.716571 804.571429h-84.845714c-5.412571 0-9.801143-4.096-9.728-9.069715l0.073143-1.536 0.438857-1.462857 208.164572-566.857143a9.216 9.216 0 0 1 6.144-5.778285L290.962286 219.428571h102.180571z m451.364572 381.659429l-81.92 2.413714c-71.021714 1.609143-106.130286 27.428571-106.130286 77.385143 0 14.482286 5.412571 26.550857 17.92 36.205714 12.434286 9.654857 28.086857 15.36 47.542857 15.36 34.377143 0 63.268571-10.532571 86.674286-30.646857 20.48-18.285714 32.621714-40.96 35.328-67.949714l0.585143-11.776v-20.992z m-501.76-280.868571h-4.022858l-84.553142 247.222857H426.422857l-83.675428-247.222857z" /></svg>