<?xml version="1.0" encoding="UTF-8"?>
<svg width="12px" height="12px" viewBox="0 0 12 12" version="1.1" xmlns="http://www.w3.org/2000/svg" xmlns:xlink="http://www.w3.org/1999/xlink">
    <!-- Generator: Sketch 61 (89581) - https://sketch.com -->
    <title>清空</title>
    <desc>Created with Sketch.</desc>
    <g id="页面-1" stroke="none" stroke-width="1">
        <g id="回收站" transform="translate(-344.000000, -94.000000)">
            <g id="编组-7" transform="translate(344.000000, 89.000000)">
                <g id="编组-2">
                    <g id="编组-5" transform="translate(0.000000, 2.000000)">
                        <g id="清空" transform="translate(0.000000, 3.000000)">
                            <rect id="矩形" opacity="0" x="0" y="0" width="12" height="12"></rect>
                            <path d="M5.2125,5.217 L4.425,5.217 L4.425,0.78225 C4.425,0.35025 4.7775,0 5.2125,0 L6.7875,0 C7.2225,0 7.57425,0.35025 7.57425,0.78225 L7.57425,5.217 L6.78675,5.217 L6.78675,1.122 C6.78633643,0.934240002 6.63401045,0.782249545 6.44625,0.78225 L5.55375,0.78225 C5.46338308,0.781851025 5.37658049,0.817469803 5.31254021,0.881228582 C5.24849994,0.944987361 5.21249912,1.0316322 5.2125,1.122 L5.2125,5.217 L5.2125,5.217 Z M6.7875,5.217 L10.46025,5.217 C10.89525,5.217 11.24775,5.568 11.24775,6 L11.24775,7.82625 L0.75225,7.82625 L0.75225,6 C0.75225,5.568 1.10475,5.217 1.53975,5.217 L5.2125,5.217 L5.2125,6 L1.88025,6 C1.69278128,5.99999818 1.54057585,6.15153309 1.53975,6.339 L1.53975,7.044 L10.46025,7.044 L10.46025,6.339 C10.4600513,6.24889263 10.4240656,6.16255478 10.3602094,6.0989799 C10.2963533,6.03540502 10.2098574,5.99980087 10.11975,6 L6.7875,6 L6.7875,5.217 Z M7.51725,11.217 L8.22975,11.217 L8.22975,9.6525 L7.51725,9.6525 L7.51725,11.2177522 L2.06475,11.2177522 C1.92590899,11.2181484 1.79259636,11.1633758 1.69413963,11.0654817 C1.59568291,10.9675876 1.54014726,10.834591 1.53975,10.69575 L1.53975,8.8695 L10.46025,8.8695 L10.46025,10.69575 C10.4598527,10.834591 10.4043171,10.9675876 10.3058604,11.0654817 C10.2074036,11.1633758 10.074091,11.2181484 9.93525,11.2177522 L9.75075,11.2177522 L9.75075,9.6525 L9.01725,9.6525 L9.01725,11.2177522 L6.01725,11.2177522 L7.51725,11.2177522 L7.51725,11.217 Z M0.75225,11.217 C0.75225,11.64975 1.10475,12 1.53975,12 L10.46025,12 C10.89525,12 11.24775,11.64975 11.24775,11.21775 L11.24775,8.08725 L0.75225,8.08725 L0.75225,11.21775 L0.75225,11.217 Z" id="形状"></path>
                        </g>
                    </g>
                </g>
            </g>
        </g>
    </g>
</svg>