<?xml version="1.0" encoding="UTF-8"?>
<svg width="16px" height="16px" viewBox="0 0 16 16" version="1.1" xmlns="http://www.w3.org/2000/svg" xmlns:xlink="http://www.w3.org/1999/xlink">
    <title>file-excel</title>
    <g id="ODC2.1-20200204" stroke="none" stroke-width="1" fill-rule="evenodd">
        <g id="file-excel" fill-rule="nonzero">
            <rect id="矩形" opacity="0" x="0" y="0" width="16" height="16"></rect>
            <path d="M13.353125,4.509375 L9.990625,1.146875 C9.896875,1.053125 9.7703125,1 9.6375,1 L3,1 C2.7234375,1 2.5,1.2234375 2.5,1.5 L2.5,14.5 C2.5,14.7765625 2.7234375,15 3,15 L13,15 C13.2765625,15 13.5,14.7765625 13.5,14.5 L13.5,4.8640625 C13.5,4.73125 13.446875,4.603125 13.353125,4.509375 Z M12.346875,5.09375 L9.40625,5.09375 L9.40625,2.153125 L12.346875,5.09375 Z M12.375,13.875 L3.625,13.875 L3.625,2.125 L8.34375,2.125 L8.34375,5.5 C8.34375,5.8625 8.6375,6.15625 9,6.15625 L12.375,6.15625 L12.375,13.875 Z M8.0328125,9.0640625 L7.0671875,7.4640625 C7.0328125,7.4078125 6.971875,7.3734375 6.90625,7.3734375 L6.30625,7.3734375 C6.2703125,7.3734375 6.2359375,7.3828125 6.20625,7.403125 C6.11875,7.4578125 6.0921875,7.5734375 6.1484375,7.6625 L7.434375,9.7 L6.13125,11.775 C6.1125,11.8046875 6.103125,11.8390625 6.103125,11.875 C6.103125,11.978125 6.1875,12.0625 6.290625,12.0625 L6.8296875,12.0625 C6.8953125,12.0625 6.9546875,12.028125 6.9890625,11.9734375 L7.96875,10.3875 L8.9421875,11.971875 C8.9765625,12.028125 9.0375,12.0609375 9.1015625,12.0609375 L9.6875,12.0609375 C9.7234375,12.0609375 9.7578125,12.05 9.7890625,12.03125 C9.8765625,11.975 9.9015625,11.859375 9.8453125,11.771875 L8.5328125,9.734375 L9.865625,7.6640625 C9.884375,7.634375 9.8953125,7.5984375 9.8953125,7.5625 C9.8953125,7.459375 9.8109375,7.375 9.7078125,7.375 L9.15,7.375 C9.084375,7.375 9.0234375,7.409375 8.9890625,7.465625 L8.0328125,9.0640625 L8.0328125,9.0640625 Z" id="形状"></path>
        </g>
    </g>
</svg>