<?xml version="1.0" standalone="no"?><!DOCTYPE svg PUBLIC "-//W3C//DTD SVG 1.1//EN" "http://www.w3.org/Graphics/SVG/1.1/DTD/svg11.dtd"><svg class="icon" width="32px" height="32.00px" viewBox="0 0 1024 1024" version="1.1" xmlns="http://www.w3.org/2000/svg"><path fill="currentColor" d="M864 112c26.51 0 48 21.49 48 48v704c0 26.51-21.49 48-48 48H160c-26.51 0-48-21.49-48-48V160c0-26.51 21.49-48 48-48h704zM321.1 344.9c-5.2-4.4-13.1-0.7-13.1 6.1v62.7c0 2.4 1 4.6 2.9 6.1L420.7 512l-109.8 92.2c-1.8 1.5-2.9 3.8-2.9 6.1V673c0 6.8 7.9 10.5 13.1 6.1l192-161c3.9-3.2 3.9-9.1 0-12.3zM708.5 617h-185c-4.1 0-7.5 3.6-7.5 8v48c0 4.4 3.4 8 7.5 8h185c4.1 0 7.5-3.6 7.5-8v-48c0-4.4-3.4-8-7.5-8z" /></svg>