<?xml version="1.0" standalone="no"?><!DOCTYPE svg PUBLIC "-//W3C//DTD SVG 1.1//EN" "http://www.w3.org/Graphics/SVG/1.1/DTD/svg11.dtd"><svg t="1591881571641" class="icon" viewBox="0 0 1024 1024" version="1.1" xmlns="http://www.w3.org/2000/svg" p-id="1641" xmlns:xlink="http://www.w3.org/1999/xlink" width="1em" height="1em" fill='currentColor'><defs><style type="text/css"></style></defs><path d="M616.8 64c8.5 0 16.6 3.4 22.6 9.4l215.2 215.2c6 6 9.4 14.2 9.4 22.7V928c0 17.7-14.3 32-32 32H192c-17.7 0-32-14.3-32-32V96c0-17.7 14.3-32 32-32zM534 136H232v752h560V394H576c-23.2 0-42-18.8-42-42V136z m57.706 325L489 755h-56l102.706-294h56z m-168.832 48.007a4 4 0 0 1 4 4v54.016a2 2 0 0 1-0.77 1.578l-51.23 39.899 51.353 39.9a2 2 0 0 1 0.773 1.579v54.348a4 4 0 0 1-6.597 3.043l-105.475-90.022a8 8 0 0 1-0.17-12.02l105.434-95.289a4 4 0 0 1 2.682-1.032z m179.252 0a4 4 0 0 1 2.682 1.032l105.435 95.29a8 8 0 0 1-0.171 12.02l-105.475 90.02a4 4 0 0 1-6.597-3.042V649.98a2 2 0 0 1 0.773-1.58l51.353-39.899-51.23-39.9a2 2 0 0 1-0.77-1.577v-54.016a4 4 0 0 1 4-4zM602 137.8V326h188.2L602 137.8z" p-id="1642"></path></svg>