<?xml version="1.0" standalone="no"?><!DOCTYPE svg PUBLIC "-//W3C//DTD SVG 1.1//EN" "http://www.w3.org/Graphics/SVG/1.1/DTD/svg11.dtd"><svg t="1732169125753" class="icon" viewBox="0 0 1024 1024" version="1.1" xmlns="http://www.w3.org/2000/svg" p-id="7764" xmlns:xlink="http://www.w3.org/1999/xlink" width="200" height="200"><path d="M512.512 73.728l365.1584 207.3088-26.6752 40.96-339.8656-192.6656L183.296 321.9456v373.248l327.7824 198.656 329.1648-198.656V370.8416h47.3088v352.256l-376.4736 227.1232-376.064-227.1232V290.56L512.512 73.728z m-1.8944 198.144l221.696 137.9328v237.8752l-216.1664 121.5488-216.9344-121.5488V409.8048l211.456-137.9328zM347.136 463.104v156.7232l140.4416 78.2336v-156.16L347.0848 463.104z m333.056 0l-140.4416 78.7968v156.16l140.4416-78.2336v-156.672zM510.6688 328.704L369.152 419.2768l141.4656 81.408 150.1696-78.336-150.1696-93.696z" fill="#0697EF" p-id="7765"></path></svg>