<?xml version="1.0" standalone="no"?><!DOCTYPE svg PUBLIC "-//W3C//DTD SVG 1.1//EN" "http://www.w3.org/Graphics/SVG/1.1/DTD/svg11.dtd"><svg t="1732169133003" class="icon" viewBox="0 0 1024 1024" version="1.1" xmlns="http://www.w3.org/2000/svg" p-id="8066" xmlns:xlink="http://www.w3.org/1999/xlink" width="200" height="200"><path d="M334.208 120c1.984 0 3.968 0.768 5.504 2.176L456.96 234.432h358.976a32 32 0 0 1 32 32l0.064 100.672a352 352 0 0 0-512.448 408.96l-255.616-0.064a32 32 0 0 1-32-32v-592a32 32 0 0 1 32-32z" fill="#1890FF" p-id="8067"></path><path d="M672 320a352 352 0 1 0 0 704 352 352 0 0 0 0-704z" fill="#1890FF" fill-opacity=".12" p-id="8068"></path><path d="M672.256 425.472l205.44 116.608-15.04 23.04-191.168-108.416-184.32 108.416v209.92l163.84 99.328 8.96 5.44 3.52 2.112 6.72 4.096 1.28 0.768 1.28-0.768 6.784-4.096 177.088-106.88V592.64h26.624v198.08l-211.776 127.744-211.52-127.744V547.456l212.288-121.984z m-1.024 111.424l124.736 77.632v133.76l-121.6 68.416-122.048-68.416v-133.76l118.912-77.632zM579.2 644.48v88.192l78.976 43.968v-87.808L579.2 644.48z m187.328 0l-78.976 44.352v87.808l78.976-43.968V644.48z m-95.36-75.584l-79.616 50.944 79.616 45.76 84.48-44.032-84.48-52.672z" fill="#0697EF" p-id="8069"></path></svg>