<?xml version="1.0" standalone="no"?><!DOCTYPE svg PUBLIC "-//W3C//DTD SVG 1.1//EN" "http://www.w3.org/Graphics/SVG/1.1/DTD/svg11.dtd"><svg t="1671181961321" class="icon" viewBox="0 0 1024 1024" version="1.1" xmlns="http://www.w3.org/2000/svg" p-id="10014" xmlns:xlink="http://www.w3.org/1999/xlink" width="200" height="200"><path d="M652.8 51.2a64 64 0 0 1 0 128H576.512v48.128A375.588571 375.588571 0 0 1 512 972.8a375.442286 375.442286 0 0 1-63.488-745.545143V179.2H371.2a64 64 0 0 1 0-128h281.6zM511.488 336.457143a53.394286 53.394286 0 0 0-53.394286 52.516571v170.422857c0 10.386286 2.998857 20.114286 8.118857 28.306286a53.394286 53.394286 0 0 0 7.753143 10.24l0.658286 0.585143 119.954286 119.954286A53.394286 53.394286 0 0 0 670.500571 643.657143l-0.658285-0.658286-105.106286-105.106286V389.851429a53.394286 53.394286 0 0 0-52.443429-53.394286h-0.877714z" p-id="10015"></path></svg>