<?xml version="1.0" standalone="no"?><!DOCTYPE svg PUBLIC "-//W3C//DTD SVG 1.1//EN" "http://www.w3.org/Graphics/SVG/1.1/DTD/svg11.dtd"><svg t="1720403809550" class="icon" viewBox="0 0 1024 1024" version="1.1" xmlns="http://www.w3.org/2000/svg" p-id="7163" xmlns:xlink="http://www.w3.org/1999/xlink" width="16" height="16"><path d="M49.728 544.768a11.648 11.648 0 0 1 12.8 2.432c33.024 31.232 104.832 56.704 196.928 70.4a416.576 416.576 0 0 0 10.624 162.176C136.448 761.408 42.688 718.72 42.688 668.8V555.712a11.648 11.648 0 0 1 7.04-10.944z m0-220.864a11.52 11.52 0 0 1 12.8 2.688c43.456 41.088 153.856 72.192 289.344 79.744a414.4 414.4 0 0 0-80.384 152.832C137.088 540.928 42.688 497.92 42.688 448V334.912a11.52 11.52 0 0 1 7.04-11.008zM416 106.688c206.208 0 373.312 53.952 373.312 120.512 0 14.08-7.424 27.52-21.056 40A417.152 417.152 0 0 0 411.52 347.712C207.296 346.88 42.688 293.312 42.688 227.2c0-66.56 167.104-120.512 373.312-120.512z" fill="#1890FF" p-id="7164"></path><path d="M672 320a352 352 0 1 0 0 704 352 352 0 0 0 0-704z" fill="#1890FF" fill-opacity=".12" p-id="7165"></path><path d="M933.632 745.984c-8.96-7.68-20.48-8.96-32-5.12-9.088 2.56-18.56 3.84-28.096 3.84 25.6-42.56 44.992-88.64 57.536-136.704 6.4-21.76 10.24-44.672 10.24-68.992 2.56-19.008-2.56-38.272-14.08-53.632a163.904 163.904 0 0 0-132.8-62.592h-3.84c-21.76 0-43.52 3.84-63.936 8.96h-1.28a207.936 207.936 0 0 0-39.552-3.84c-25.088-1.088-49.92 5.12-71.552 17.92a256.192 256.192 0 0 0-98.368-15.36c-30.656 0-61.312 12.8-83.008 34.496-22.976 24.256-34.496 61.312-33.152 113.664 2.496 23.04 6.336 46.016 11.456 67.712 7.68 33.152 16.64 65.152 28.096 97.088 8.96 29.696 24.192 57.152 44.672 80.448 10.24 10.24 24.32 16.64 39.68 17.92 11.456 0 21.696-5.12 30.592-12.8 7.68 8.96 17.92 14.08 29.44 16.64 15.296 3.776 30.592 5.056 45.952 2.496 7.616-1.28 14.016-3.84 20.416-6.4 0 7.68 0 15.36 1.28 23.04-1.28 22.976 2.56 44.672 8.96 66.368 2.56 12.8 8.96 24.32 17.92 34.56 17.408 16.256 41.728 22.976 65.088 17.792 24.32-3.776 47.232-16.576 61.312-35.712 16.64-23.04 24.32-57.472 25.6-112.448 0-2.56 1.216-5.12 1.216-7.616h3.84c21.312 1.216 42.688-2.304 62.592-10.24 15.36-6.4 29.376-16.64 39.616-30.656 2.56-5.12 5.12-10.24 6.4-15.296a27.776 27.776 0 0 0-10.24-25.6m-7.68 29.376a70.528 70.528 0 0 1-33.28 24.32 125.632 125.632 0 0 1-48.448 8.96c-7.68 0-15.36-1.28-23.04-2.56-3.84 31.872-6.4 63.808-12.8 95.744-1.28 15.36-8.96 30.656-19.072 43.392-12.8 11.52-28.16 19.2-44.8 20.48a61.568 61.568 0 0 1-53.568-10.24c-8.96-7.68-15.36-19.2-20.48-30.72a133.696 133.696 0 0 1-5.12-21.632c-1.28-11.52-2.56-23.04-2.56-33.216-1.28-20.48-1.28-39.616-1.28-58.752-10.176 8.896-22.464 15.04-35.712 17.856-12.8 2.56-26.88 1.28-39.68-2.56a45.44 45.44 0 0 1-11.456-5.12c-5.12-1.28-7.68-5.12-10.176-8.96-1.28-2.496-2.56-6.4-1.28-8.896 1.28-2.56 2.56-6.4 5.12-7.68 6.4-3.84 12.8-6.4 20.416-7.68 9.216-1.28 18.24-3.84 26.816-7.68 5.12-3.84 8.96-8.896 12.8-14.016v-1.28c-11.52 0-21.76-3.84-32-7.68-3.84 3.84-20.416 21.76-43.392 48.64a42.752 42.752 0 0 1-30.656 17.792 41.6 41.6 0 0 1-29.44-12.8 210.304 210.304 0 0 1-40.768-74.048 993.856 993.856 0 0 1-25.6-97.024A558.592 558.592 0 0 1 415.04 576c-2.56-48.64 8.96-80.512 28.096-100.928 19.2-19.2 44.736-29.376 72.768-30.656a247.808 247.808 0 0 1 100.928 17.92 126.272 126.272 0 0 1 67.712-19.2c12.8 0 26.752 2.56 39.552 5.12 5.12-2.56 11.52-3.84 17.92-5.12 16.64-3.84 32-5.12 48.576-6.4a153.728 153.728 0 0 1 125.12 57.472c7.68 12.8 11.52 29.44 10.24 44.736a383.68 383.68 0 0 1-10.24 65.088 522.752 522.752 0 0 1-67.648 152c1.28 1.28 2.496 1.28 3.776 2.56 17.92 3.84 35.776 3.84 53.696-1.28a28.16 28.16 0 0 1 20.416 1.28c2.56 2.56 5.12 6.4 5.12 10.24-3.84 0-3.84 3.84-5.12 6.4" fill="#000000" p-id="7166"></path><path d="M791.808 453.44h-3.84c-12.8 0-26.752 1.28-39.552 5.12 25.6 11.52 48.512 30.72 66.368 52.416 10.24 13.952 19.2 28.032 26.816 44.672 2.56 6.4 5.12 11.52 6.4 15.36 0 2.56 1.28 3.84 1.28 6.4v3.84c1.28 20.352-5.12 33.152-5.12 53.568 0 14.08 3.84 30.72 3.84 48.576 2.56 19.2-2.56 38.272-12.8 53.632 1.28 1.28 2.56 2.56 2.56 3.84a511.04 511.04 0 0 0 61.376-140.48c5.12-20.48 8.96-40.96 8.96-61.312 1.28-11.52-1.28-23.04-6.4-34.56-25.6-34.432-66.432-52.352-109.888-51.072" fill="#306092" p-id="7167"></path><path d="M681.984 458.56a87.168 87.168 0 0 0-61.312 20.48c-15.36 12.8-25.6 30.592-33.216 48.448-6.4 17.92-10.24 37.12-11.52 56.256 10.24-5.12 20.48-8.96 32-11.52 11.52-2.56 24.192-2.56 35.712 1.28 12.8 5.12 21.76 16.64 24.32 30.656 16.576 75.328-5.12 103.488-12.8 126.464a81.216 81.216 0 0 0-7.68 23.04c1.28 0 2.56 0 3.84-1.28 3.84 0 8.96 1.28 12.8 2.496 8 3.776 14.016 10.752 16.576 19.2a13.888 13.888 0 0 1 1.28 6.4v3.84c-1.28 29.312-1.28 58.752 0 88.064 0 11.52 1.28 21.76 2.56 33.216 0 6.4 1.28 11.52 3.84 17.92 2.56 8.96 7.68 16.64 15.296 22.976 7.68 6.4 19.2 10.24 39.616 6.4 12.8-1.28 25.6-7.68 35.712-16.64 7.68-10.24 12.8-21.696 14.08-34.432 5.12-24.32 12.8-95.808 14.08-108.608 0-7.68 1.28-16.64 5.12-22.976a27.968 27.968 0 0 1 12.8-11.52c2.56-1.28 3.84-1.28 6.4-2.56-2.56-2.56-3.84-5.12-6.4-7.68a104.384 104.384 0 0 1-15.36-25.536c-2.56-3.84-3.84-7.68-6.4-11.52-3.84-6.4-6.4-12.8-11.52-20.352a248.32 248.32 0 0 1-21.696-53.696c-5.12-19.2-6.4-36.992 6.4-51.072 10.24-11.52 29.376-17.92 57.472-14.08-1.28-2.56-1.28-5.12-2.56-7.68a119.808 119.808 0 0 0-24.32-40.832 153.152 153.152 0 0 0-120-61.312l-5.12-3.84" fill="#306092" p-id="7168"></path><path d="M526.144 459.84h-8.96c-23.04 0-46.016 8.96-61.312 25.6-16.64 16.576-28.096 44.672-25.536 91.904 2.56 20.416 6.4 40.896 10.24 61.312 6.4 32 15.36 62.592 26.752 93.248 7.68 25.216 20.352 48.64 37.12 68.992 3.84 5.12 10.24 7.68 17.92 7.68a30.272 30.272 0 0 0 19.136-11.52c14.016-16.64 28.032-33.216 42.112-47.232a77.44 77.44 0 0 1-26.816-74.112c1.28-15.36 2.56-30.72 2.56-47.296 0-12.8-1.28-20.352-1.28-25.536V601.6c0-26.816 5.12-53.632 14.08-79.168 6.4-17.92 16.576-34.496 30.656-48.576a244.16 244.16 0 0 0-67.712-12.736c-3.84-1.28-6.4-1.28-8.96-1.28m301.44 173.696c1.28-20.416 5.12-33.152 5.12-47.232-6.4-1.28-11.52-1.28-17.92-1.28a42.176 42.176 0 0 0-29.376 8.96c-6.4 6.4-6.4 20.352-3.84 36.992 5.12 17.92 11.52 34.56 20.48 49.856 3.84 7.68 7.68 14.08 10.24 20.416 2.56 3.84 5.12 8.96 6.4 12.8 1.28 2.56 2.56 6.4 5.12 7.68 5.12-12.8 7.616-25.6 6.4-38.4 1.216-15.296-2.56-33.152-2.56-49.792m-8.96-38.272c0 1.28 0 2.56-1.28 3.84-1.28 1.28-1.28 2.56-2.56 3.776-2.56 2.56-6.4 3.84-8.96 5.12-3.84 0-6.4 0-8.96-2.56-1.28-1.28-2.56-1.28-3.84-2.56-1.28 0-1.28-1.28-1.28-2.56s0-2.56 1.28-3.84l2.56-2.56a24.64 24.64 0 0 1 12.8-3.84h6.4c1.28 0 2.56 1.28 3.84 1.28v3.84" fill="#306092" p-id="7169"></path><path d="M651.328 606.72a25.344 25.344 0 0 0-15.36-20.416c-3.84-1.28-7.68-1.28-11.52-1.28-5.056 0-8.896 1.28-13.952 1.28-8.96 2.56-17.92 6.4-26.88 10.24-2.56 1.28-5.12 3.84-7.68 6.4 0 3.776 1.28 11.456 1.28 22.912 0 16.64 0 33.28-2.56 48.64a62.464 62.464 0 0 0 51.136 72.768c2.56 0 3.84 0 6.4 1.28 2.56-7.68 6.4-16.64 7.68-25.6 7.616-23.04 26.752-42.112 11.456-116.224m-8.96 1.28l-3.84 3.84a9.984 9.984 0 0 1-10.24 2.56 14.784 14.784 0 0 1-8.896-6.4c-1.28-1.28-2.56-2.56-2.56-3.84-2.56-2.56-2.56-3.84-2.56-5.12 0-2.56 2.56-3.84 5.12-5.12 2.56-1.28 5.12-1.28 6.4-1.28h3.84a11.584 11.584 0 0 1 8.96 3.84c1.28 1.28 2.56 1.28 3.776 2.56 1.28 1.28 1.28 2.56 1.28 5.12-1.28 1.28-1.28 2.56-1.28 3.84m195.456 158.4c-2.56 1.28-5.12 1.28-7.68 1.28a22.4 22.4 0 0 0-6.4 5.12 64.256 64.256 0 0 0-2.56 15.36c1.28 1.28 2.56 1.28 3.84 1.28 5.12 1.28 11.52 2.496 17.92 2.496 14.784 0 29.504-2.56 43.392-7.68 7.68-3.84 15.36-7.68 21.76-14.016-33.28 6.4-49.856 5.12-61.312 0a62.272 62.272 0 0 1-8.96-3.84m-187.776 2.56c-1.28 0-3.84 0-6.4 5.12-7.68 8.96-10.24 15.36-17.92 20.416-10.176 6.4-20.352 10.24-33.152 11.52a14.528 14.528 0 0 0-10.24 3.84l1.28 1.28c2.56 1.28 6.4 2.56 7.68 3.84 10.24 2.56 21.76 3.84 33.216 2.56 15.36-2.56 29.376-11.52 36.992-24.32a9.6 9.6 0 0 0 0-11.52 17.984 17.984 0 0 0-7.68-8.96c0-3.776-2.56-3.776-3.84-3.776" fill="#306092" p-id="7170"></path></svg>