<?xml version="1.0" standalone="no"?><!DOCTYPE svg PUBLIC "-//W3C//DTD SVG 1.1//EN" "http://www.w3.org/Graphics/SVG/1.1/DTD/svg11.dtd"><svg t="1696830656373" class="icon" viewBox="0 0 1024 1024" version="1.1" xmlns="http://www.w3.org/2000/svg" p-id="6909" xmlns:xlink="http://www.w3.org/1999/xlink" width="14" height="14"><path d="M49.728 544.768a11.648 11.648 0 0 1 12.8 2.432c33.024 31.232 104.832 56.704 196.928 70.4a416.576 416.576 0 0 0 10.624 162.176C136.448 761.408 42.688 718.72 42.688 668.8V555.712a11.648 11.648 0 0 1 7.04-10.944z m0-220.864a11.52 11.52 0 0 1 12.8 2.688c43.456 41.088 153.856 72.192 289.344 79.744a414.4 414.4 0 0 0-80.384 152.832C137.088 540.928 42.688 497.92 42.688 448V334.912a11.52 11.52 0 0 1 7.04-11.008zM416 106.688c206.208 0 373.312 53.952 373.312 120.512 0 14.08-7.424 27.52-21.056 40A417.152 417.152 0 0 0 411.52 347.712C207.296 346.88 42.688 293.312 42.688 227.2c0-66.56 167.104-120.512 373.312-120.512z" fill="#1890FF" p-id="6910"></path><path d="M672 320a352 352 0 1 0 0 704 352 352 0 0 0 0-704z" fill="#1890FF" fill-opacity=".12" p-id="6911"></path><path d="M564.16 486.4a185.6 185.6 0 0 0-0.192 371.2h215.936a185.6 185.6 0 0 0 0-371.2h-215.68z m211.072 305.792H568.896a120.256 120.256 0 0 1 0-240.384h206.336a120.192 120.192 0 1 1 0 240.384z" fill="#E93311" p-id="6912"></path></svg>