<?xml version="1.0" encoding="UTF-8"?>
<svg width="100px" height="100px" viewBox="0 0 100 100" version="1.1" xmlns="http://www.w3.org/2000/svg" xmlns:xlink="http://www.w3.org/1999/xlink">
    <title>模拟数据</title>
    <g id="模拟数据" stroke="none" stroke-width="1" fill="none" fill-rule="evenodd">
        <path d="M18,8 L70.1106521,8 L70.1106521,8 L83.397953,20.9868989 C83.782959,21.3632006 84,21.8788272 84,22.4171882 L84,90 C84,91.1045695 83.1045695,92 82,92 L18,92 C16.8954305,92 16,91.1045695 16,90 L16,10 C16,8.8954305 16.8954305,8 18,8 Z" id="矩形" fill="#1890FF"></path>
        <text id="MOCK" font-family="Helvetica-Bold, Helvetica" font-size="17" font-weight="bold" fill="#FFFFFF">
            <tspan x="24.3284912" y="81.2988744">MOCK</tspan>
        </text>
        <rect id="矩形" fill="#FFFFFF" opacity="0.600000024" x="33.85" y="25.85" width="32" height="8" rx="2"></rect>
        <rect id="矩形备份" fill="#FFFFFF" opacity="0.600000024" x="33.85" y="35.85" width="32" height="8" rx="2"></rect>
        <rect id="矩形备份-2" fill="#FFFFFF" opacity="0.600000024" x="33.85" y="45.85" width="32" height="8" rx="2"></rect>
        <g id="编组-2" transform="translate(50.526672, 39.473430)">
            <path d="M10,20 C4.4848797,20 0,15.5082387 0,10 C0,4.49176125 4.48489983,0 10,0 C15.5151203,0 20,4.48489983 20,10 C20,15.5151203 15.5151002,20 10,20 Z" id="路径" fill="#1890FF"></path>
            <path d="M10,2 C14.4120962,2 18,5.58791986 18,10 C18,14.4120962 14.4120801,18 10,18 C5.58790376,18 2,14.406591 2,10 C2,5.593409 5.58791986,2 10,2 Z M9.95555551,6.52221275 C7.65554818,6.52221275 5.86110088,7.89443603 3.65554818,10.1222169 L4.25743465,10.7240201 C5.91005657,12.3658593 7.44562712,13.716671 9.95555551,13.716671 C12.7666753,13.716671 14.827778,11.5666685 16.2555628,10.1611167 C14.8000061,8.50556467 12.733342,6.52221275 9.95555551,6.52221275 Z" id="形状结合" fill="#FFFFFF" fill-rule="nonzero" opacity="0.6"></path>
            <path d="M9.95555551,12.6833527 C8.56666555,12.6833527 7.43888592,11.5333514 7.43888592,10.1166831 C7.43888592,8.70001476 8.57222057,7.55001343 9.95555551,7.55001343 C11.3388905,7.55001343 12.4722454,8.70001476 12.4722454,10.1166831 C12.4777807,11.5333514 11.3444455,12.6833527 9.95555551,12.6833527 Z" id="路径" fill="#FFFFFF" fill-rule="nonzero" opacity="0.6"></path>
        </g>
    </g>
</svg>