<?xml version="1.0" standalone="no"?><!DOCTYPE svg PUBLIC "-//W3C//DTD SVG 1.1//EN" "http://www.w3.org/Graphics/SVG/1.1/DTD/svg11.dtd"><svg t="1696830644022" class="icon" viewBox="0 0 1024 1024" version="1.1" xmlns="http://www.w3.org/2000/svg" p-id="6605" xmlns:xlink="http://www.w3.org/1999/xlink" width="14" height="14"><path d="M49.728 544.768a11.648 11.648 0 0 1 12.8 2.432c33.024 31.232 104.832 56.704 196.928 70.4a416.576 416.576 0 0 0 10.624 162.176C136.448 761.408 42.688 718.72 42.688 668.8V555.712a11.648 11.648 0 0 1 7.04-10.944z m0-220.864a11.52 11.52 0 0 1 12.8 2.688c43.456 41.088 153.856 72.192 289.344 79.744a414.4 414.4 0 0 0-80.384 152.832C137.088 540.928 42.688 497.92 42.688 448V334.912a11.52 11.52 0 0 1 7.04-11.008zM416 106.688c206.208 0 373.312 53.952 373.312 120.512 0 14.08-7.424 27.52-21.056 40A417.152 417.152 0 0 0 411.52 347.712C207.296 346.88 42.688 293.312 42.688 227.2c0-66.56 167.104-120.512 373.312-120.512z" fill="#1890FF" p-id="6606"></path><path d="M672 320a352 352 0 1 0 0 704 352 352 0 0 0 0-704z" fill="#1890FF" fill-opacity=".12" p-id="6607"></path><path d="M584.192 449.024c36.736-4.48 130.176 3.84 207.744 58.944 1.92-0.192 8.192 0.896 9.984 0.64 45.824-11.264 166.592 26.752 157.632 45.824-16 11.904-85.312 24.128-81.28 41.6 0.256 1.856 2.112 1.6 2.304 3.456 52.928 85.312 72.32 185.28 47.68 296.512H830.08a315.584 315.584 0 0 0-12.608-42.88c-29.824-84.608-92.736-147.648-167.936-183.68l-3.712 0.384c-1.92 0.256-3.52 2.368-3.52 2.368-1.216 7.808-0.64 21.248-0.128 35.072l0.064 1.408 0.128 2.176v1.28c0.768 20.416 0.896 40.32-5.376 43.264-14.912 5.632-46.144-25.92-69.952-73.984-8.704-24.384-10.112-36.032-9.216-44.16l-0.256-1.92-2.112-1.536a654.464 654.464 0 0 0-94.912-19.968c-18.304-3.456-74.24-12.608-61.952-39.616 14.336-29.568 54.336-42.048 82.176-53.44 17.088-37.504 66.944-65.344 103.488-71.68z" fill="#01608A" p-id="6608"></path></svg>