<?xml version="1.0" standalone="no"?><!DOCTYPE svg PUBLIC "-//W3C//DTD SVG 1.1//EN" "http://www.w3.org/Graphics/SVG/1.1/DTD/svg11.dtd"><svg class="icon" width="200px" height="200.00px" viewBox="0 0 1024 1024" version="1.1" xmlns="http://www.w3.org/2000/svg"><path fill="#333333" d="M664.8 64c8.33 0 16.276 3.265 22.237 9.043l0.363 0.357 215.2 215.2a32.2 32.2 0 0 1 9.4 22.19V928c0 17.523-14.015 31.714-31.47 32H240c-17.523 0-31.714-14.015-32-31.47V748a8 8 0 0 1 8-8h56a8 8 0 0 1 8 8v140h560V394H624c-22.968 0-41.624-18.426-41.994-41.305L582 352V136H280v140a8 8 0 0 1-8 8h-56a8 8 0 0 1-8-8V96c0-17.523 14.015-31.714 31.47-32H664.8z m-57.2 554c3.52 0 6.4 3.6 6.4 8v48c0 4.4-2.88 8-6.4 8H460.4c-3.52 0-6.4-3.6-6.4-8v-48c0-4.4 2.88-8 6.4-8zM164.855 376c2.3 0 4.6 1.1 6.1 2.9l73.1 87.8 73.2-87.8c1.5-1.8 3.7-2.9 6.1-2.9h54.7c1.9 0 3.7 0.7 5.1 1.9 3.4 2.8 3.9 7.8 1.1 11.2L281.855 512l102.3 122.9c2.9 3.4 2.4 8.5-1 11.3-1.4 1.2-3.2 1.9-5.1 1.9h-55c-2.3 0-4.6-1.1-6.1-2.9l-73.1-87.8-73.1 87.8c-1.5 1.8-3.7 2.9-6.1 2.9h-54.7c-1.9 0-3.7-0.7-5.1-1.9-3.4-2.9-3.8-7.9-1-11.3l102.4-122.9-102.3-122.8c-2.9-3.4-2.4-8.5 1-11.3 1.4-1.2 3.2-1.9 5.1-1.9zM767.6 482c3.52 0 6.4 3.6 6.4 8v48c0 4.4-2.88 8-6.4 8H460.4c-3.52 0-6.4-3.6-6.4-8v-48c0-4.4 2.88-8 6.4-8zM650 137.8V326h188.2L650 137.8z" /></svg>