<?xml version="1.0" standalone="no"?><!DOCTYPE svg PUBLIC "-//W3C//DTD SVG 1.1//EN" "http://www.w3.org/Graphics/SVG/1.1/DTD/svg11.dtd"><svg t="1612753084460" class="icon" viewBox="0 0 1024 1024" version="1.1" xmlns="http://www.w3.org/2000/svg" p-id="2187" xmlns:xlink="http://www.w3.org/1999/xlink" width="200" height="200"><defs><style type="text/css"></style></defs><path d="M693 381c133.64 0 242 108.36 242 242S826.64 865 693 865 451 756.64 451 623s108.36-242 242-242zM397.89 792c1.71 0 3.11 3.6 3.11 8v56c0 4.4-1.4 8-3.11 8H93.11c-1.71 0-3.11-3.6-3.11-8v-56c0-4.4 1.4-8 3.11-8zM693 443c-99.387 0-180 80.613-180 180s80.613 180 180 180 180-80.613 180-180-80.613-180-180-180z m115.306 144c2.032 0 3.694 3.6 3.694 8v56c0 4.4-1.662 8-3.694 8H586.694c-2.032 0-3.694-3.6-3.694-8v-56c0-4.4 1.662-8 3.694-8z m-412.322-5c2.759 0 5.016 3.6 5.016 8v56c0 4.4-2.257 8-5.016 8H95.016c-2.759 0-5.016-3.6-5.016-8v-56c0-4.4 2.257-8 5.016-8z m0-212c2.759 0 5.016 3.6 5.016 8v56c0 4.4-2.257 8-5.016 8H95.016c-2.759 0-5.016-3.6-5.016-8v-56c0-4.4 2.257-8 5.016-8zM882 160c4.4 0 8 3.6 8 8v56c0 4.4-3.6 8-8 8H98c-4.4 0-8-3.6-8-8v-56c0-4.4 3.6-8 8-8z" p-id="2188"></path></svg>