<?xml version="1.0" standalone="no"?><!DOCTYPE svg PUBLIC "-//W3C//DTD SVG 1.1//EN" "http://www.w3.org/Graphics/SVG/1.1/DTD/svg11.dtd"><svg class="icon" width="32px" height="32.00px" viewBox="0 0 1024 1024" version="1.1" xmlns="http://www.w3.org/2000/svg"><path fill="currentColor" d="M366.336 192.32c-9.088 19.776-19.52 53.248-25.728 72.576H267.968c-35.328 0-54.848 19.776-54.848 55.04v310.912c0 35.328 19.52 46.08 54.848 46.08h83.648v107.84l136.96-107.84h251.968c22.72 0 33.6-5.44 40.32-26.176 16.832-3.328 45.632-15.744 86.4-37.248 0 83.968-61.056 136.192-126.72 136.192H530.688L347.52 886.848a45.696 45.696 0 0 1-73.152-36.544v-100.608h-27.392A118.848 118.848 0 0 1 128 630.848V320c0-65.664 52.992-127.68 118.656-127.68h119.68zM672 96a256 256 0 1 1 0 512 256 256 0 0 1 0-512zM832 320H512v64h320V320z" /></svg>