<?xml version="1.0" standalone="no"?><!DOCTYPE svg PUBLIC "-//W3C//DTD SVG 1.1//EN" "http://www.w3.org/Graphics/SVG/1.1/DTD/svg11.dtd"><svg t="1741681467253" class="icon" viewBox="0 0 1024 1024" version="1.1" xmlns="http://www.w3.org/2000/svg" p-id="7553" xmlns:xlink="http://www.w3.org/1999/xlink" width="200" height="200"><path d="M512 46.545455C254.836364 46.545455 46.545455 254.836364 46.545455 512s208.290909 465.454545 465.454545 465.454545 465.454545-208.290909 465.454545-465.454545S768.744727 46.545455 512 46.545455z" fill="#FFFFFF" p-id="7554"></path><path d="M512 139.636364c-205.730909 0-372.363636 166.632727-372.363636 372.363636s166.632727 372.363636 372.363636 372.363636 372.363636-166.632727 372.363636-372.363636-166.958545-372.363636-372.363636-372.363636z" fill="#3296FA" p-id="7555"></path><path d="M675.188364 482.862545a87.412364 87.412364 0 0 1-5.213091 13.870546l-0.372364 0.372364c-15.685818 33.326545-56.226909 98.536727-56.226909 98.536727l-0.325818-0.325818-12.008727 20.573091h57.250909l-109.381819 145.361454 24.762182-98.909091h-44.916363l15.685818-65.629091a486.865455 486.865455 0 0 0-45.288727 13.125818s-24.017455 13.917091-68.980364-26.996363c0 0-30.301091-26.996364-12.706909-33.28 7.447273-2.978909 36.352-6.423273 59.205818-9.402182 30.72-4.142545 49.803636-6.376727 49.803636-6.376727s-94.766545 1.536-117.248-2.280728c-22.434909-3.351273-50.967273-41.239273-56.925091-74.146909 0 0-9.402182-17.966545 20.200728-9.402181 29.230545 8.564364 152.203636 33.326545 152.203636 33.326545s-159.650909-48.593455-170.170182-60.602182c-10.472727-12.008727-31.092364-65.163636-28.485818-97.792 0 0 1.070545-8.238545 9.355636-6.004363 0 0 117.713455 53.992727 198.190546 83.223272 80.989091 29.975273 150.993455 44.962909 141.591273 82.757818z" fill="#FFFFFF" p-id="7556"></path></svg>