<?xml version="1.0" standalone="no"?><!DOCTYPE svg PUBLIC "-//W3C//DTD SVG 1.1//EN" "http://www.w3.org/Graphics/SVG/1.1/DTD/svg11.dtd"><svg t="1741659276445" class="icon" viewBox="0 0 1024 1024" version="1.1" xmlns="http://www.w3.org/2000/svg" p-id="7642" xmlns:xlink="http://www.w3.org/1999/xlink" width="200" height="200"><path d="M958.976 262.528a40.704 40.704 0 0 0-10.944-23.68l-162.88-162.88a40.64 40.64 0 0 0-28.8-11.968H267.648a40.64 40.64 0 0 0-28.8 11.968L75.968 238.848a40.704 40.704 0 0 0-10.944 23.68C64.768 264.32 64 265.856 64 267.712v574.976C64 907.456 116.672 960 181.376 960h661.248c64.64 0 117.376-52.672 117.376-117.312V267.712c0-1.728-0.768-3.392-1.024-5.184zM638.528 687.36l-97.792 97.728a40.704 40.704 0 0 1-57.472 0l-97.792-97.728a40.64 40.64 0 1 1 57.6-57.536l28.16 28.288V430.592a40.704 40.704 0 1 1 81.472 0v227.584l28.288-28.288a40.64 40.64 0 1 1 57.536 57.536zM203.008 227.008l81.408-81.408h455.04l81.408 81.408H203.008z" p-id="7643"></path></svg>