<?xml version="1.0" encoding="UTF-8"?>
<svg width="5px" height="13px" viewBox="0 0 5 13" version="1.1" xmlns="http://www.w3.org/2000/svg" xmlns:xlink="http://www.w3.org/1999/xlink">
    <title>Page 1 Copy备份 4</title>
    <g id="4.新建视图" stroke="none" stroke-width="1" fill="none" fill-rule="evenodd">
        <g id="4.2-新建视图_基表选择" transform="translate(-708.000000, -254.000000)" fill="#999999">
            <path d="M711.9992,255 L713,255 L713,254 L711.9992,254 L711.9992,255 Z M709.9996,255 L710.9994,255 L710.9994,254 L709.9996,254 L709.9996,255 Z M708,255 L708.9998,255 L708.9998,254 L708,254 L708,255 Z M711.9992,257 L713,257 L713,256 L711.9992,256 L711.9992,257 Z M709.9996,257 L710.9994,257 L710.9994,256 L709.9996,256 L709.9996,257 Z M708,257 L708.9998,257 L708.9998,256 L708,256 L708,257 Z M711.9992,259 L713,259 L713,258 L711.9992,258 L711.9992,259 Z M709.9996,259 L710.9994,259 L710.9994,258 L709.9996,258 L709.9996,259 Z M708,259 L708.9998,259 L708.9998,258 L708,258 L708,259 Z M711.9992,261 L713,261 L713,260 L711.9992,260 L711.9992,261 Z M709.9996,261 L710.9994,261 L710.9994,260 L709.9996,260 L709.9996,261 Z M708,261 L708.9998,261 L708.9998,260 L708,260 L708,261 Z M711.9992,263 L713,263 L713,261.999 L711.9992,261.999 L711.9992,263 Z M709.9996,263 L710.9994,263 L710.9994,261.999 L709.9996,261.999 L709.9996,263 Z M708,263 L708.9998,263 L708.9998,261.999 L708,261.999 L708,263 Z M711.9992,265 L713,265 L713,264 L711.9992,264 L711.9992,265 Z M709.9996,265 L710.9994,265 L710.9994,264 L709.9996,264 L709.9996,265 Z M708,265 L708.9998,265 L708.9998,264 L708,264 L708,265 Z M711.9992,267 L713,267 L713,266 L711.9992,266 L711.9992,267 Z M709.9996,267 L710.9994,267 L710.9994,266 L709.9996,266 L709.9996,267 Z M708,267 L708.9998,267 L708.9998,266 L708,266 L708,267 Z" id="Page-1-Copy备份-4"></path>
        </g>
    </g>
</svg>