<?xml version="1.0" encoding="UTF-8" ?>
<!DOCTYPE svg PUBLIC "-//W3C//DTD SVG 1.1//EN" "http://www.w3.org/Graphics/SVG/1.1/DTD/svg11.dtd">
<svg width="64pt" height="64pt" viewBox="0 0 64 64" version="1.1" xmlns="http://www.w3.org/2000/svg">
<g id="#03368ae3">
<path fill="#03368a" opacity="0.89" d=" M 3.14 0.00 L 6.15 0.00 C 6.38 0.34 6.84 1.01 7.06 1.35 C 5.02 2.27 3.04 3.32 0.97 4.16 C -1.43 3.95 2.06 0.58 3.14 0.00 Z" />
</g>
<g id="#0a6bcbff">
<path fill="#0a6bcb" opacity="1.00" d=" M 28.94 4.75 C 29.52 4.22 30.66 3.16 31.24 2.62 C 31.95 3.33 32.66 4.04 33.37 4.74 C 32.86 5.30 31.84 6.42 31.33 6.97 C 30.53 6.24 29.74 5.49 28.94 4.75 Z" />
<path fill="#0a6bcb" opacity="1.00" d=" M 32.18 14.17 C 33.00 13.52 33.81 12.87 34.62 12.21 C 35.27 12.97 35.92 13.73 36.57 14.49 C 35.82 15.20 35.06 15.91 34.31 16.62 C 33.60 15.80 32.89 14.98 32.18 14.17 Z" />
<path fill="#0a6bcb" opacity="1.00" d=" M 39.85 32.12 C 45.66 30.42 51.91 28.81 57.96 29.83 C 57.82 30.46 57.53 31.73 57.38 32.36 C 52.03 32.80 46.54 32.70 41.37 34.38 C 38.98 35.19 36.64 36.16 34.40 37.32 C 33.41 37.83 32.44 38.37 31.47 38.90 C 31.14 38.67 30.49 38.22 30.16 37.99 L 29.57 37.47 C 29.91 37.26 30.59 36.84 30.93 36.63 C 31.20 36.47 31.74 36.15 32.01 36.00 C 34.51 34.50 37.10 33.12 39.85 32.12 Z" />
<path fill="#0a6bcb" opacity="1.00" d=" M 42.16 49.36 C 42.73 48.64 43.32 47.94 43.92 47.26 C 44.68 48.02 45.45 48.79 46.22 49.56 C 45.36 50.36 44.51 51.16 43.64 51.95 C 43.11 51.11 42.62 50.24 42.16 49.36 Z" />
</g>
<g id="#99183fff">
<path fill="#99183f" opacity="1.00" d=" M 48.22 4.36 C 48.81 3.91 49.99 3.02 50.58 2.58 C 51.29 3.42 52.00 4.27 52.71 5.13 C 51.79 5.76 50.87 6.39 49.95 7.02 C 49.37 6.13 48.80 5.24 48.22 4.36 Z" />
<path fill="#99183f" opacity="1.00" d=" M 57.27 3.67 C 57.95 3.49 59.32 3.12 60.01 2.94 C 61.50 5.12 63.15 8.38 60.57 10.46 C 58.63 13.14 55.23 12.82 52.57 11.48 C 54.35 13.93 58.47 18.18 54.09 20.30 C 50.73 20.32 48.29 17.27 45.48 15.75 C 45.59 18.22 45.82 20.69 46.23 23.14 C 45.36 23.42 44.49 23.70 43.61 23.98 C 43.52 20.38 41.88 15.23 45.97 13.19 C 48.96 14.42 51.27 16.83 54.11 18.35 C 53.11 15.93 49.88 13.76 50.65 10.89 C 52.70 6.65 57.73 12.24 60.85 9.29 C 59.96 7.24 58.71 5.37 57.27 3.67 Z" />
<path fill="#99183f" opacity="1.00" d=" M 20.82 7.29 C 28.01 6.85 29.77 16.09 29.13 21.62 L 29.00 22.68 C 28.65 18.83 27.99 14.90 26.06 11.49 C 25.62 11.45 24.74 11.36 24.30 11.32 L 24.02 11.30 C 23.49 10.75 22.41 9.67 21.87 9.13 C 21.21 10.35 20.54 11.75 21.28 13.17 C 20.02 13.54 18.75 13.88 17.48 14.20 C 17.94 12.75 18.23 11.11 19.60 10.20 C 20.02 9.24 20.43 8.27 20.82 7.29 Z" />
<path fill="#99183f" opacity="1.00" d=" M 4.89 31.40 C 5.85 31.92 6.80 32.44 7.76 32.96 C 7.26 33.89 6.76 34.83 6.26 35.76 C 5.32 35.24 4.37 34.71 3.42 34.18 C 3.91 33.26 4.40 32.33 4.89 31.40 Z" />
<path fill="#99183f" opacity="1.00" d=" M 54.62 52.01 C 55.64 51.55 56.66 51.09 57.67 50.64 C 58.07 51.63 58.47 52.62 58.87 53.62 C 57.91 54.04 56.96 54.45 56.00 54.87 C 55.54 53.92 55.08 52.96 54.62 52.01 Z" />
</g>
<g id="#03479be5">
<path fill="#03479b" opacity="0.90" d=" M 1.18 6.13 C 3.47 6.22 5.56 7.57 7.83 7.97 C 9.76 8.24 10.26 10.88 9.39 12.34 C 7.37 13.74 5.04 14.60 2.87 15.75 C 6.19 16.01 9.73 14.51 12.88 15.58 C 16.05 19.13 11.72 23.23 9.58 26.10 C 9.15 25.57 8.30 24.49 7.87 23.95 C 9.38 22.00 10.83 20.00 12.15 17.92 C 8.85 18.02 5.39 18.94 2.17 17.86 C 1.21 16.68 0.53 14.85 1.59 13.51 C 3.33 12.18 5.44 11.45 7.40 10.51 C 4.93 10.23 0.96 9.30 1.18 6.13 Z" />
</g>
<g id="#be9036ff">
<path fill="#be9036" opacity="1.00" d=" M 12.78 8.04 C 13.53 7.35 14.30 6.68 15.09 6.04 C 15.94 6.62 16.77 7.22 17.57 7.86 C 17.03 8.39 15.94 9.46 15.40 9.99 C 14.52 9.35 13.65 8.69 12.78 8.04 Z" />
<path fill="#be9036" opacity="1.00" d=" M 29.00 22.68 L 29.13 21.62 C 30.93 23.05 32.68 24.52 34.38 26.07 C 32.90 27.27 30.06 27.65 30.06 30.01 C 29.77 32.19 31.23 34.07 32.01 36.00 C 31.74 36.15 31.20 36.47 30.93 36.63 C 29.07 34.73 27.98 32.29 27.63 29.66 C 28.14 27.34 28.69 25.03 29.00 22.68 Z" />
<path fill="#be9036" opacity="1.00" d=" M 48.16 39.42 C 49.09 38.92 50.03 38.41 50.96 37.90 C 51.51 38.81 52.06 39.71 52.61 40.61 C 51.68 41.07 50.74 41.53 49.81 41.98 C 49.26 41.13 48.71 40.28 48.16 39.42 Z" />
</g>
<g id="#e5297aff">
<path fill="#e5297a" opacity="1.00" d=" M 24.30 11.32 C 24.74 11.36 25.62 11.45 26.06 11.49 C 27.99 14.90 28.65 18.83 29.00 22.68 C 28.69 25.03 28.14 27.34 27.63 29.66 C 27.23 31.21 26.77 32.75 26.33 34.29 C 26.12 34.06 25.71 33.59 25.50 33.36 C 26.31 31.38 26.28 29.24 25.81 27.18 C 26.01 25.17 26.23 23.15 26.37 21.13 C 26.75 17.75 25.46 14.44 24.30 11.32 Z" />
</g>
<g id="#6e2a14ff">
<path fill="#6e2a14" opacity="1.00" d=" M 17.63 18.37 C 18.68 15.97 21.81 17.68 23.73 17.95 C 23.00 18.94 22.32 19.97 21.69 21.03 C 22.48 24.22 23.41 27.41 23.38 30.73 C 21.59 28.42 19.93 26.00 18.52 23.43 C 18.35 23.11 17.99 22.45 17.82 22.12 C 17.20 24.20 16.62 26.29 15.99 28.37 C 15.26 29.80 14.87 31.37 14.70 32.96 L 14.67 33.19 C 12.51 36.90 10.72 40.82 9.74 45.01 C 8.70 48.26 7.42 51.42 5.98 54.51 L 4.42 54.56 C 9.00 42.56 13.25 30.44 17.63 18.37 Z" />
</g>
<g id="#995e23ff">
<path fill="#995e23" opacity="1.00" d=" M 21.69 21.03 C 22.32 19.97 23.00 18.94 23.73 17.95 C 24.32 18.54 25.49 19.72 26.08 20.32 L 26.37 21.13 C 26.23 23.15 26.01 25.17 25.81 27.18 C 25.15 28.83 24.29 30.55 24.68 32.39 C 24.24 31.84 23.81 31.29 23.38 30.73 C 23.41 27.41 22.48 24.22 21.69 21.03 Z" />
<path fill="#995e23" opacity="1.00" d=" M 57.83 36.27 C 58.77 35.72 59.72 35.16 60.66 34.61 C 61.04 35.27 61.81 36.58 62.20 37.23 C 61.30 37.81 60.41 38.39 59.51 38.96 C 58.95 38.06 58.39 37.17 57.83 36.27 Z" />
<path fill="#995e23" opacity="1.00" d=" M 52.75 44.30 C 53.77 44.73 54.79 45.17 55.81 45.61 C 55.36 46.59 54.92 47.58 54.47 48.56 C 53.49 48.11 52.51 47.65 51.54 47.20 C 51.84 46.47 52.45 45.02 52.75 44.30 Z" />
</g>
<g id="#b14416ff">
<path fill="#b14416" opacity="1.00" d=" M 15.99 28.37 C 16.62 26.29 17.20 24.20 17.82 22.12 C 17.99 22.45 18.35 23.11 18.52 23.43 C 18.44 25.04 18.13 26.62 17.68 28.15 C 17.26 28.21 16.41 28.32 15.99 28.37 Z" />
</g>
<g id="#f9f0beff">
<path fill="#f9f0be" opacity="1.00" d=" M 17.68 28.15 C 18.13 26.62 18.44 25.04 18.52 23.43 C 19.93 26.00 21.59 28.42 23.38 30.73 C 23.81 31.29 24.24 31.84 24.68 32.39 C 24.88 32.63 25.29 33.11 25.50 33.36 C 25.71 33.59 26.12 34.06 26.33 34.29 C 27.38 35.38 28.46 36.43 29.57 37.47 L 30.16 37.99 C 29.29 37.49 28.42 36.99 27.56 36.47 C 25.23 34.61 23.28 32.35 21.30 30.14 C 19.65 32.96 17.96 35.75 16.59 38.72 C 15.78 38.44 14.97 38.19 14.15 37.95 C 14.28 36.36 14.47 34.77 14.67 33.19 L 14.70 32.96 C 16.58 32.08 17.33 30.06 17.68 28.15 Z" />
<path fill="#f9f0be" opacity="1.00" d=" M 9.74 45.01 C 10.83 43.23 11.88 41.42 13.00 39.65 C 13.38 40.33 14.13 41.67 14.51 42.35 C 12.51 44.71 10.71 47.23 9.10 49.86 C 8.23 51.37 7.47 52.94 6.72 54.50 C 6.53 54.51 6.16 54.51 5.98 54.51 C 7.42 51.42 8.70 48.26 9.74 45.01 Z" />
</g>
<g id="#a52449ff">
<path fill="#a52449" opacity="1.00" d=" M 24.68 32.39 C 24.29 30.55 25.15 28.83 25.81 27.18 C 26.28 29.24 26.31 31.38 25.50 33.36 C 25.29 33.11 24.88 32.63 24.68 32.39 Z" />
</g>
<g id="#d8a84aff">
<path fill="#d8a84a" opacity="1.00" d=" M 30.06 30.01 C 30.06 27.65 32.90 27.27 34.38 26.07 C 36.25 28.04 38.10 30.03 39.85 32.12 C 37.10 33.12 34.51 34.50 32.01 36.00 C 31.23 34.07 29.77 32.19 30.06 30.01 Z" />
</g>
<g id="#d88033ff">
<path fill="#d88033" opacity="1.00" d=" M 15.99 28.37 C 16.41 28.32 17.26 28.21 17.68 28.15 C 17.33 30.06 16.58 32.08 14.70 32.96 C 14.87 31.37 15.26 29.80 15.99 28.37 Z" />
</g>
<g id="#f6d94fff">
<path fill="#f6d94f" opacity="1.00" d=" M 16.59 38.72 C 17.96 35.75 19.65 32.96 21.30 30.14 C 23.28 32.35 25.23 34.61 27.56 36.47 C 24.31 38.01 20.93 39.20 17.59 40.52 L 16.59 38.72 Z" />
</g>
<g id="#ac5433ff">
<path fill="#ac5433" opacity="1.00" d=" M 26.33 34.29 C 26.77 32.75 27.23 31.21 27.63 29.66 C 27.98 32.29 29.07 34.73 30.93 36.63 C 30.59 36.84 29.91 37.26 29.57 37.47 C 28.46 36.43 27.38 35.38 26.33 34.29 Z" />
</g>
<g id="#cb9545ff">
<path fill="#cb9545" opacity="1.00" d=" M 9.74 45.01 C 10.72 40.82 12.51 36.90 14.67 33.19 C 14.47 34.77 14.28 36.36 14.15 37.95 C 13.86 38.38 13.29 39.23 13.00 39.65 C 11.88 41.42 10.83 43.23 9.74 45.01 Z" />
</g>
<g id="#f1c369ff">
<path fill="#f1c369" opacity="1.00" d=" M 34.40 37.32 C 36.64 36.16 38.98 35.19 41.37 34.38 C 43.23 37.33 45.75 40.92 43.91 44.48 C 40.30 42.73 37.08 40.29 34.40 37.32 Z" />
</g>
<g id="#f0aa34ff">
<path fill="#f0aa34" opacity="1.00" d=" M 17.59 40.52 C 20.93 39.20 24.31 38.01 27.56 36.47 C 28.42 36.99 29.29 37.49 30.16 37.99 C 30.49 38.22 31.14 38.67 31.47 38.90 C 32.30 39.49 33.13 40.08 33.97 40.68 C 25.34 42.86 17.87 48.18 9.10 49.86 C 10.71 47.23 12.51 44.71 14.51 42.35 C 15.51 41.69 16.54 41.09 17.59 40.52 Z" />
</g>
<g id="#d47926ff">
<path fill="#d47926" opacity="1.00" d=" M 31.47 38.90 C 32.44 38.37 33.41 37.83 34.40 37.32 C 37.08 40.29 40.30 42.73 43.91 44.48 C 42.50 44.29 41.10 44.08 39.70 43.88 C 37.66 43.51 35.48 43.20 33.60 44.27 C 27.45 47.30 20.93 49.57 15.02 53.07 C 12.41 54.27 9.57 54.68 6.72 54.50 C 7.47 52.94 8.23 51.37 9.10 49.86 C 17.87 48.18 25.34 42.86 33.97 40.68 C 33.13 40.08 32.30 39.49 31.47 38.90 Z" />
</g>
<g id="#326da5ff">
<path fill="#326da5" opacity="1.00" d=" M 14.15 37.95 C 14.97 38.19 15.78 38.44 16.59 38.72 L 17.59 40.52 C 16.54 41.09 15.51 41.69 14.51 42.35 C 14.13 41.67 13.38 40.33 13.00 39.65 C 13.29 39.23 13.86 38.38 14.15 37.95 Z" />
</g>
<g id="#9d4414ff">
<path fill="#9d4414" opacity="1.00" d=" M 33.60 44.27 C 35.48 43.20 37.66 43.51 39.70 43.88 C 33.44 47.65 26.49 50.02 19.88 53.05 C 15.75 54.95 11.61 56.81 7.30 58.26 L 6.92 56.83 L 5.69 58.85 C 5.28 57.45 4.86 56.06 4.45 54.66 L 4.42 54.56 L 5.98 54.51 C 6.16 54.51 6.53 54.51 6.72 54.50 C 9.57 54.68 12.41 54.27 15.02 53.07 C 20.93 49.57 27.45 47.30 33.60 44.27 Z" />
</g>
<g id="#4b1c05dd">
<path fill="#4b1c05" opacity="0.87" d=" M 19.88 53.05 C 26.49 50.02 33.44 47.65 39.70 43.88 C 41.10 44.08 42.50 44.29 43.91 44.48 C 34.35 48.24 25.08 52.67 15.63 56.68 C 12.10 58.08 8.77 60.27 4.98 60.79 C 2.21 59.52 3.60 56.68 4.45 54.66 C 4.86 56.06 5.28 57.45 5.69 58.85 L 6.92 56.83 L 7.30 58.26 C 11.61 56.81 15.75 54.95 19.88 53.05 Z" />
</g>
</svg>
