<svg t="1698307391706" class="icon" viewBox="0 0 1024 1024" version="1.1" xmlns="http://www.w3.org/2000/svg" p-id="6580" width="200" height="200"><path d="M720 249.6v-51.2a6.4 6.4 0 0 0-6.4-6.4H262.4a6.4 6.4 0 0 0-6.4 6.4v99.648a6.4 6.4 0 0 0 1.728 4.352l190.592 205.248a6.4 6.4 0 0 1 0 8.704l-190.592 205.248a6.4 6.4 0 0 0-1.728 4.352V825.6a6.4 6.4 0 0 0 6.4 6.4h451.2a6.4 6.4 0 0 0 6.4-6.4v-51.2a6.4 6.4 0 0 0-6.4-6.4H326.4a6.4 6.4 0 0 1-6.4-6.4v-10.496a6.4 6.4 0 0 1 1.728-4.352l213.888-230.4a6.4 6.4 0 0 0 0-8.704l-213.888-230.4A6.4 6.4 0 0 1 320 272.896V262.4a6.4 6.4 0 0 1 6.4-6.4h387.2a6.4 6.4 0 0 0 6.4-6.4z" fill="#000000" fill-opacity=".65" p-id="6581"></path></svg>