<?xml version="1.0" standalone="no"?><!DOCTYPE svg PUBLIC "-//W3C//DTD SVG 1.1//EN" "http://www.w3.org/Graphics/SVG/1.1/DTD/svg11.dtd"><svg t="1714457812592" class="icon" viewBox="0 0 1024 1024" version="1.1" xmlns="http://www.w3.org/2000/svg" p-id="7138" xmlns:xlink="http://www.w3.org/1999/xlink" width="200" height="200"><path d="M955.684571 855.990857L539.794286 136.045714A31.597714 31.597714 0 0 0 512 120.027429a31.451429 31.451429 0 0 0-27.721143 15.945142L68.315429 855.990857a31.963429 31.963429 0 0 0 27.648 47.981714h832.073142a31.963429 31.963429 0 0 0 27.648-47.981714zM479.963429 416.036571c0-4.388571 3.657143-8.045714 8.045714-8.045714h47.981714c4.388571 0 8.045714 3.657143 8.045714 8.045714v183.954286c0 4.388571-3.657143 8.045714-8.045714 8.045714h-47.981714a8.045714 8.045714 0 0 1-8.045714-8.045714V416.036571zM512 768a47.981714 47.981714 0 1 1 0-96.036571 47.981714 47.981714 0 0 1 0 96.036571z" fill="#FAAD14" p-id="7139"></path></svg>