<?xml version="1.0" standalone="no"?><!DOCTYPE svg PUBLIC "-//W3C//DTD SVG 1.1//EN" "http://www.w3.org/Graphics/SVG/1.1/DTD/svg11.dtd"><svg t="1741659318193" class="icon" viewBox="0 0 1024 1024" version="1.1" xmlns="http://www.w3.org/2000/svg" p-id="8103" xmlns:xlink="http://www.w3.org/1999/xlink" width="200" height="200"><path d="M512 0C229.12 0 0 229.12 0 512s229.12 512 512 512 512-229.12 512-512-229.568-512-512-512z" p-id="8104"></path><path d="M357.568 1023.104c25.152 4.352 34.56-10.624 34.56-23.744 0-11.84-0.64-51.136-0.64-92.928-126.336 23.104-159.04-30.528-169.088-58.624-5.696-14.336-30.144-58.624-51.52-70.464-17.6-9.344-42.752-32.448-0.64-33.024 39.616-0.64 67.84 36.16 77.312 51.136 45.248 75.392 117.568 54.208 146.432 41.152 4.48-32.448 17.6-54.272 32.064-66.752-111.872-12.416-228.8-55.488-228.8-246.4 0-54.208 19.456-99.072 51.584-134.08-5.056-12.48-22.656-63.616 4.992-132.224 0 0 42.112-13.056 138.304 51.2 40.96-11.264 83.2-16.96 125.696-16.832 42.752 0 85.504 5.568 125.696 16.768 96.192-64.832 138.304-51.072 138.304-51.072 27.648 68.608 10.048 119.744 5.056 132.224 32 34.944 51.52 79.168 51.52 134.08 0 161.856-83.968 217.216-177.536 237.952-17.088 3.84-34.56 6.464-51.84 8.384 18.176 15.616 33.92 45.504 33.92 92.352 0 66.688-0.64 120.32-0.64 137.216 0 13.056 9.472 28.608 34.56 23.68H357.568z" p-id="8105" data-spm-anchor-id="a313x.manage_type_myprojects.0.i5.121f3a81Fky8B9" class="selected" fill="#ffffff"></path></svg>