<?xml version="1.0" encoding="UTF-8"?>
<svg viewBox="0 0 16 16" version="1.1" xmlns="http://www.w3.org/2000/svg" xmlns:xlink="http://www.w3.org/1999/xlink">
    <title>github-fill</title>
    <g id="页面-1" stroke="none" stroke-width="1" fill="none" fill-rule="evenodd">
        <g id="意见反馈" transform="translate(-495.000000, -479.000000)" fill="#000000" fill-rule="nonzero">
            <g id="编组-21" transform="translate(475.000000, 349.000000)">
                <g id="编组-18" transform="translate(20.000000, 128.000000)">
                    <g id="github-fill" transform="translate(0.000000, 2.000000)">
                        <rect id="矩形" opacity="0" x="0" y="0" width="16" height="16"></rect>
                        <path d="M7.99375,1.19218691 C4.1296875,1.190625 1,4.31875 1,8.1796875 C1,11.2328125 2.9578125,13.828125 5.684375,14.78125 C6.0515625,14.8734375 5.9953125,14.6125 5.9953125,14.434375 L5.9953125,13.2234375 C3.875,13.471875 3.7890625,12.06875 3.646875,11.834375 C3.359375,11.34375 2.6796875,11.21875 2.8828125,10.984375 C3.365625,10.7359375 3.8578125,11.046875 4.428125,11.8890625 C4.840625,12.5 5.6453125,12.396875 6.053125,12.2953125 C6.1421875,11.928125 6.3328125,11.6 6.5953125,11.3453125 C4.3984375,10.9515625 3.4828125,9.6109375 3.4828125,8.0171875 C3.4828125,7.24375 3.7375,6.5328125 4.2375,5.959375 C3.91875,5.0140625 4.2671875,4.2046875 4.3140625,4.084375 C5.221875,4.003125 6.165625,4.734375 6.2390625,4.7921875 C6.7546875,4.653125 7.34375,4.5796875 8.003125,4.5796875 C8.665625,4.5796875 9.25625,4.65625 9.7765625,4.796875 C9.953125,4.6625 10.828125,4.034375 11.671875,4.1109375 C11.7171875,4.23125 12.0578125,5.021875 11.7578125,5.9546875 C12.2640625,6.5296875 12.521875,7.246875 12.521875,8.021875 C12.521875,9.61875 11.6,10.9609375 9.396875,11.3484375 C9.7640625,11.7109375 9.9921875,12.2140625 9.9921875,12.7703125 L9.9921875,14.528125 C10.0046875,14.66875 9.9921875,14.8078125 10.2265625,14.8078125 C12.99375,13.875 14.9859375,11.2609375 14.9859375,8.18125 C14.9859375,4.31875 11.8546875,1.19218691 7.99375,1.19218691 Z" id="路径"></path>
                    </g>
                </g>
            </g>
        </g>
    </g>
</svg>