<?xml version="1.0" standalone="no"?><!DOCTYPE svg PUBLIC "-//W3C//DTD SVG 1.1//EN" "http://www.w3.org/Graphics/SVG/1.1/DTD/svg11.dtd"><svg class="icon" width="1em" height="1em" viewBox="0 0 1024 1024" version="1.1" xmlns="http://www.w3.org/2000/svg"><path fill="currentColor" d="M803.986286 640h104.009143c8.777143 0 16.018286 7.168 16.018285 16.018286v287.963428c0 8.850286-7.168 16.018286-16.018285 16.018286H620.032a16.018286 16.018286 0 0 1-16.091429-16.018286V656.091429c0-8.850286 7.241143-16.018286 16.091429-16.018286h111.908571V552.009143H292.059429V640h111.981714c8.850286 0 16.091429 7.168 16.091428 16.018286v287.963428c0 8.850286-7.241143 16.018286-16.091428 16.018286H116.004571a16.018286 16.018286 0 0 1-16.018285-16.018286V656.091429c0-8.850286 7.168-16.018286 16.018285-16.018286h104.009143V488.009143c0-4.388571 3.584-8.045714 8.045715-8.045714h247.954285V384H367.908571a16.018286 16.018286 0 0 1-15.945142-16.018286V80.018286c0-8.850286 7.094857-16.018286 15.945142-16.018286H656.091429c8.777143 0 16.018286 7.168 16.018285 16.018286V367.908571c0 8.850286-7.168 16.018286-16.091428 16.018286H548.059429v96.036572h247.954285c4.461714 0 8.045714 3.510857 8.045715 7.972571V640z" /></svg>