<?xml version="1.0" standalone="no"?><!DOCTYPE svg PUBLIC "-//W3C//DTD SVG 1.1//EN" "http://www.w3.org/Graphics/SVG/1.1/DTD/svg11.dtd"><svg class="icon" width="1em" height="1em" viewBox="0 0 1024 1024" version="1.1" xmlns="http://www.w3.org/2000/svg"><path fill="currentColor" d="M465.993143 550.034286c8.777143 0 16.018286 7.094857 16.018286 15.945143v288.036571c0 8.777143-7.168 16.018286-16.018286 16.018286H178.029714a16.018286 16.018286 0 0 1-16.091428-16.091429V566.052571c0-8.777143 7.241143-15.945143 16.091428-15.945142H465.92z m395.995428 0c8.850286 0 16.018286 7.094857 16.018286 15.945143v288.036571c0 8.777143-7.168 16.018286-16.018286 16.018286H574.025143a16.018286 16.018286 0 0 1-16.091429-16.091429V566.052571c0-8.777143 7.241143-15.945143 16.091429-15.945142h287.963428zM729.307429 137.289143l165.376 165.376a16.018286 16.018286 0 0 1 0 22.674286l-165.302858 165.302857a16.018286 16.018286 0 0 1-22.674285 0L541.257143 325.412571a16.018286 16.018286 0 0 1 0-22.674285l165.302857-165.302857a16.018286 16.018286 0 0 1 22.674286 0z m-263.314286 16.676571c8.777143 0 16.018286 7.168 16.018286 16.091429v287.963428c0 8.777143-7.168 15.945143-16.018286 15.945143H178.029714a16.018286 16.018286 0 0 1-16.091428-15.945143V169.984c0-8.777143 7.241143-16.018286 16.091428-16.018286H465.92z" /></svg>