<?xml version="1.0" standalone="no"?><!DOCTYPE svg PUBLIC "-//W3C//DTD SVG 1.1//EN" "http://www.w3.org/Graphics/SVG/1.1/DTD/svg11.dtd"><svg class="icon" width="1em" height="1em" viewBox="0 0 1024 1024" version="1.1" xmlns="http://www.w3.org/2000/svg"><path fill="currentColor" d="M998.838857 451.218286l-33.792-357.302857a38.838857 38.838857 0 0 0-34.962286-34.962286L572.708571 25.161143h-0.438857a11.702857 11.702857 0 0 0-8.704 3.291428L28.525714 563.638857c-4.388571 4.461714-4.388571 11.702857 0 16.091429l415.744 415.817143c2.194286 2.194286 5.12 3.291429 8.118857 3.291428a11.337143 11.337143 0 0 0 8.118858-3.291428l535.259428-535.186286a12.068571 12.068571 0 0 0 3.145143-9.142857zM725.723429 369.152a73.142857 73.142857 0 0 1 0-146.285714 73.142857 73.142857 0 0 1 0 146.285714z" /></svg>