<?xml version="1.0" standalone="no"?><!DOCTYPE svg PUBLIC "-//W3C//DTD SVG 1.1//EN" "http://www.w3.org/Graphics/SVG/1.1/DTD/svg11.dtd"><svg class="icon" width="1em" height="1em" viewBox="0 0 1024 1024" version="1.1" xmlns="http://www.w3.org/2000/svg"><path fill="currentColor" d="M878.226286 220.672h-146.432V122.88c0-37.668571-32.987429-48.713143-73.069715-48.713143h-293.302857c-40.228571 0-73.142857 10.898286-73.142857 48.713143v97.792H145.846857A73.142857 73.142857 0 0 0 72.484571 293.888v549.449143c0 40.228571 32.914286 73.216 73.362286 73.216h732.379429a73.142857 73.142857 0 0 0 73.362285-73.216V293.888c0-40.228571-32.914286-73.216-73.362285-73.216z m-512.731429-73.289143h293.083429v73.289143H365.568V147.382857zM145.92 293.888s732.452571 0.146286 732.452571 0v148.260571c-2.852571-0.731429-5.632-1.755429-8.704-1.755428H145.773714l0.073143-146.505143z m429.348571 219.794286a72.923429 72.923429 0 0 1-63.122285 36.571428 72.923429 72.923429 0 0 1-63.122286-36.571428h126.171429z m303.030858 329.654857s-732.452571-0.146286-732.452572 0V513.682286h224.914286c16.384 63.049143 73.142857 109.860571 141.385143 109.860571 68.169143 0 124.928-46.811429 141.312-109.860571h216.210285c3.072 0 5.851429-1.024 8.777143-1.755429 0 153.380571 0 331.337143-0.146285 331.337143z" /></svg>