<?xml version="1.0" standalone="no"?><!DOCTYPE svg PUBLIC "-//W3C//DTD SVG 1.1//EN" "http://www.w3.org/Graphics/SVG/1.1/DTD/svg11.dtd"><svg class="icon" width="1em" height="1em" viewBox="0 0 1024 1024" version="1.1" xmlns="http://www.w3.org/2000/svg"><path fill="currentColor" d="M930.596571 375.003429l-281.6-281.6a37.814857 37.814857 0 0 0-53.686857 0L411.209143 277.577143A376.685714 376.685714 0 0 0 133.12 357.888a38.034286 38.034286 0 0 0-3.072 56.539429l207.725714 207.652571-246.198857 245.906286a18.066286 18.066286 0 0 0-5.266286 11.190857l-3.876571 42.569143a18.285714 18.285714 0 0 0 18.139429 19.821714l1.682285-0.073143 42.569143-3.876571a18.066286 18.066286 0 0 0 11.190857-5.266286L402.139429 686.08l207.725714 207.725714a37.814857 37.814857 0 0 0 56.393143-3.145143 377.490286 377.490286 0 0 0 80.237714-278.162285l184.100571-184.100572a37.888 37.888 0 0 0 0-53.467428z" /></svg>