<?xml version="1.0" standalone="no"?><!DOCTYPE svg PUBLIC "-//W3C//DTD SVG 1.1//EN" "http://www.w3.org/Graphics/SVG/1.1/DTD/svg11.dtd"><svg class="icon" width="1em" height="1em" viewBox="0 0 1024 1024" version="1.1" xmlns="http://www.w3.org/2000/svg"><path fill="currentColor" d="M1021.074286 56.100571l-53.174857-53.248a10.386286 10.386286 0 0 0-14.336 0l-95.524572 95.524572A250.075429 250.075429 0 0 0 717.385143 55.369143c-64.292571 0-128.512 24.429714-177.590857 73.508571L411.940571 256.804571a10.093714 10.093714 0 0 0 0 14.116572l340.918858 340.992c2.048 2.048 4.534857 2.925714 7.168 2.925714 2.56 0 5.12-1.024 7.168-2.925714l127.853714-127.853714a251.245714 251.245714 0 0 0 30.500571-318.171429L1021.074286 70.436571a10.24 10.24 0 0 0 0-14.336z m-186.514286 367.616l-74.532571 74.532572-234.422858-234.422857 74.605715-74.605715a164.790857 164.790857 0 0 1 117.174857-48.566857c44.324571 0 85.796571 17.188571 117.174857 48.566857 31.305143 31.305143 48.566857 72.923429 48.566857 117.248s-17.261714 85.869714-48.566857 117.248zM595.894857 555.446857a10.093714 10.093714 0 0 0-14.189714 0L498.102857 639.049143l-113.298286-113.371429 83.675429-83.675428a10.093714 10.093714 0 0 0 0-14.189715l-45.641143-45.641142a10.093714 10.093714 0 0 0-14.189714 0L324.973714 465.846857l-53.979428-53.979428a9.874286 9.874286 0 0 0-7.168-2.925715 10.605714 10.605714 0 0 0-7.168 2.925715L128.950857 539.794286a251.245714 251.245714 0 0 0-30.500571 318.171428L2.925714 953.344a10.093714 10.093714 0 0 0 0 14.189714l53.174857 53.174857c2.048 2.048 4.534857 2.925714 7.168 2.925715 2.633143 0 5.12-1.024 7.168-2.925715l95.524572-95.451428c42.276571 28.672 91.428571 43.008 140.653714 43.008 64.292571 0 128.512-24.502857 177.590857-73.508572l127.853715-127.926857a10.093714 10.093714 0 0 0 0-14.189714l-53.906286-53.906286 83.675428-83.748571a10.093714 10.093714 0 0 0 0-14.189714l-45.933714-45.348572zM423.716571 834.56a164.790857 164.790857 0 0 1-117.248 48.566857 164.498286 164.498286 0 0 1-117.174857-48.566857 164.790857 164.790857 0 0 1-48.566857-117.248c0-44.251429 17.188571-85.796571 48.566857-117.174857l74.532572-74.605714 234.422857 234.496-74.605714 74.532571z" /></svg>