<?xml version="1.0" standalone="no"?><!DOCTYPE svg PUBLIC "-//W3C//DTD SVG 1.1//EN" "http://www.w3.org/Graphics/SVG/1.1/DTD/svg11.dtd"><svg class="icon" width="1em" height="1em" viewBox="0 0 1024 1024" version="1.1" xmlns="http://www.w3.org/2000/svg"><path fill="currentColor" d="M998.838857 451.218286l-33.792-357.302857a38.838857 38.838857 0 0 0-34.962286-34.962286L572.708571 25.161143h-0.438857a11.702857 11.702857 0 0 0-8.704 3.291428L28.525714 563.638857c-4.388571 4.461714-4.388571 11.702857 0 16.091429l415.744 415.817143c2.194286 2.194286 5.12 3.291429 8.118857 3.291428a11.337143 11.337143 0 0 0 8.118858-3.291428l535.259428-535.186286a12.068571 12.068571 0 0 0 3.145143-9.142857z m-546.596571 429.568L143.213714 571.757714l456.777143-456.777143 282.331429 26.697143 26.697143 282.331429-456.777143 456.777143zM704 219.428571c-55.442286 0-100.571429 45.129143-100.571429 100.571429S648.557714 420.571429 704 420.571429 804.571429 375.442286 804.571429 320 759.442286 219.428571 704 219.428571z m0 137.142858a36.571429 36.571429 0 1 1-0.073143-73.069715 36.571429 36.571429 0 0 1 0.073143 73.069715z" /></svg>