<?xml version="1.0" standalone="no"?><!DOCTYPE svg PUBLIC "-//W3C//DTD SVG 1.1//EN" "http://www.w3.org/Graphics/SVG/1.1/DTD/svg11.dtd"><svg class="icon" width="1em" height="1em" viewBox="0 0 1024 1024" version="1.1" xmlns="http://www.w3.org/2000/svg"><path fill="currentColor" d="M983.77216 367.542857a510.537143 510.537143 0 0 0-109.714286-162.742857A510.537143 510.537143 0 0 0 512.000731 54.857143 510.537143 510.537143 0 0 0 149.943589 204.8 510.537143 510.537143 0 0 0 0.000731 566.857143c0 151.625143 66.56 294.546286 182.710858 392.045714l1.974857 1.682286c6.582857 5.485714 14.994286 8.557714 23.552 8.557714h607.670857a37.083429 37.083429 0 0 0 23.552-8.557714l1.901714-1.609143A511.341714 511.341714 0 0 0 1024.000731 566.857143c0-69.12-13.604571-136.045714-40.228571-199.314286z m-186.733714 514.706286H226.963017A424.155429 424.155429 0 0 1 86.821303 566.857143c0-113.590857 44.251429-220.379429 124.635428-300.617143A422.326857 422.326857 0 0 1 512.000731 141.750857c113.590857 0 220.306286 44.251429 300.617143 124.635429a422.326857 422.326857 0 0 1 124.562286 300.544c0 120.685714-50.907429 234.788571-140.141714 315.465143zM639.415589 408.649143a9.142857 9.142857 0 0 0-12.873143 0l-96.548572 96.548571a63.926857 63.926857 0 1 0 45.275429 45.275429l96.548571-96.548572a9.142857 9.142857 0 0 0 0-12.946285l-32.402285-32.329143zM486.839589 292.571429h50.322285a9.142857 9.142857 0 0 0 9.142857-9.142858v-91.428571a9.142857 9.142857 0 0 0-9.142857-9.142857h-50.322285a9.142857 9.142857 0 0 0-9.142858 9.142857v91.428571c0 5.046857 4.169143 9.142857 9.142858 9.142858z m297.179428 249.124571v50.322286c0 5.046857 4.096 9.142857 9.142857 9.142857h91.428572a9.142857 9.142857 0 0 0 9.142857-9.142857v-50.322286a9.142857 9.142857 0 0 0-9.142857-9.142857h-91.428572a9.142857 9.142857 0 0 0-9.142857 9.142857z m14.482286-225.353143l-35.547429-35.547428a9.142857 9.142857 0 0 0-12.873143 0l-64.731428 64.658285a9.142857 9.142857 0 0 0 0 12.946286l35.547428 35.547429a9.142857 9.142857 0 0 0 12.946286 0l64.658286-64.658286a9.142857 9.142857 0 0 0 0-12.946286z m-524.068572-35.547428a9.142857 9.142857 0 0 0-12.946285 0l-35.547429 35.547428a9.142857 9.142857 0 0 0 0 12.946286l64.658286 64.658286a9.142857 9.142857 0 0 0 12.946286 0l35.547428-35.547429a9.142857 9.142857 0 0 0 0-12.946286l-64.658286-64.658285z m-48.128 251.757714h-91.428571a9.142857 9.142857 0 0 0-9.142857 9.142857v50.322286c0 5.046857 4.096 9.142857 9.142857 9.142857h91.428571a9.142857 9.142857 0 0 0 9.142858-9.142857v-50.322286a9.142857 9.142857 0 0 0-9.142858-9.142857z" /></svg>