<?xml version="1.0" encoding="UTF-8"?>
<svg width="1em" height="1em" viewBox="0 0 16 16" version="1.1" xmlns="http://www.w3.org/2000/svg" xmlns:xlink="http://www.w3.org/1999/xlink">
    <title>dashboard-outlined</title>
    <g id="设计稿" stroke="none" stroke-width="1" fill="none" fill-rule="evenodd" fill-opacity="0.649999976">
        <g id="1.5-首页-窄屏-最小960px" transform="translate(-16.000000, -203.000000)" fill="#000000" fill-rule="nonzero">
            <g id="编组-6" transform="translate(0.000000, 76.000000)">
                <g id="编组备份-6" transform="translate(0.000000, 115.000000)">
                    <g id="dashboard-outlined" transform="translate(16.000000, 12.000000)">
                        <rect id="矩形" opacity="0" x="0" y="0" width="16" height="16"></rect>
                        <path d="M14.45,6.025 C14.096875,5.190625 13.5921875,4.4421875 12.95,3.8 C12.3078125,3.1578125 11.559375,2.653125 10.725,2.3 C9.8609375,1.934375 8.9453125,1.75 8,1.75 C7.0546875,1.75 6.1390625,1.934375 5.275,2.3 C4.440625,2.653125 3.6921875,3.1578125 3.05,3.8 C2.4078125,4.4421875 1.903125,5.190625 1.55,6.025 C1.184375,6.8890625 1,7.8046875 1,8.75 C1,10.8234375 1.9109375,12.7765625 3.4984375,14.1109375 L3.525,14.1328125 C3.615625,14.2078125 3.7296875,14.25 3.846875,14.25 L12.1546875,14.25 C12.271875,14.25 12.3859375,14.2078125 12.4765625,14.1328125 L12.503125,14.1109375 C14.0890625,12.7765625 15,10.8234375 15,8.75 C15,7.8046875 14.8140625,6.8890625 14.45,6.025 Z M11.896875,13.0625 L4.103125,13.0625 C2.8828125,11.9609375 2.1875,10.4 2.1875,8.75 C2.1875,7.196875 2.7921875,5.7375 3.890625,4.640625 C4.9890625,3.5421875 6.4484375,2.9375 8,2.9375 C9.553125,2.9375 11.0125,3.5421875 12.109375,4.640625 C13.2078125,5.7390625 13.8125,7.1984375 13.8125,8.75 C13.8125,10.4 13.1171875,11.9609375 11.896875,13.0625 Z M9.7421875,6.5859375 C9.69375,6.5375 9.6140625,6.5375 9.565625,6.5859375 L8.2453125,7.90625 C7.953125,7.828125 7.6296875,7.903125 7.4,8.1328125 C7.0578125,8.475 7.0578125,9.028125 7.4,9.3703125 C7.7421875,9.7125 8.2953125,9.7125 8.6375,9.3703125 C8.8671875,9.140625 8.9421875,8.8171875 8.8640625,8.525 L10.184375,7.2046875 C10.2328125,7.15625 10.2328125,7.0765625 10.184375,7.028125 L9.7421875,6.5859375 L9.7421875,6.5859375 Z M7.65625,5 L8.34375,5 C8.4125,5 8.46875,4.94375 8.46875,4.875 L8.46875,3.625 C8.46875,3.55625 8.4125,3.5 8.34375,3.5 L7.65625,3.5 C7.5875,3.5 7.53125,3.55625 7.53125,3.625 L7.53125,4.875 C7.53125,4.94375 7.5875,5 7.65625,5 Z M11.71875,8.40625 L11.71875,9.09375 C11.71875,9.1625 11.775,9.21875 11.84375,9.21875 L13.09375,9.21875 C13.1625,9.21875 13.21875,9.1625 13.21875,9.09375 L13.21875,8.40625 C13.21875,8.3375 13.1625,8.28125 13.09375,8.28125 L11.84375,8.28125 C11.775,8.28125 11.71875,8.3375 11.71875,8.40625 Z M11.9171875,5.325 L11.43125,4.8390625 C11.3828125,4.790625 11.303125,4.790625 11.2546875,4.8390625 L10.3703125,5.7234375 C10.321875,5.771875 10.321875,5.8515625 10.3703125,5.9 L10.85625,6.3859375 C10.9046875,6.434375 10.984375,6.434375 11.0328125,6.3859375 L11.9171875,5.5015625 C11.965625,5.453125 11.965625,5.3734375 11.9171875,5.325 Z M4.7515625,4.8390625 C4.703125,4.790625 4.6234375,4.790625 4.575,4.8390625 L4.0890625,5.325 C4.040625,5.3734375 4.040625,5.453125 4.0890625,5.5015625 L4.9734375,6.3859375 C5.021875,6.434375 5.1015625,6.434375 5.15,6.3859375 L5.6359375,5.9 C5.684375,5.8515625 5.684375,5.771875 5.6359375,5.7234375 L4.7515625,4.8390625 Z M4.09375,8.28125 L2.84375,8.28125 C2.775,8.28125 2.71875,8.3375 2.71875,8.40625 L2.71875,9.09375 C2.71875,9.1625 2.775,9.21875 2.84375,9.21875 L4.09375,9.21875 C4.1625,9.21875 4.21875,9.1625 4.21875,9.09375 L4.21875,8.40625 C4.21875,8.3375 4.1625,8.28125 4.09375,8.28125 Z" id="形状"></path>
                    </g>
                </g>
            </g>
        </g>
    </g>
</svg>