<?xml version="1.0" standalone="no"?><!DOCTYPE svg PUBLIC "-//W3C//DTD SVG 1.1//EN" "http://www.w3.org/Graphics/SVG/1.1/DTD/svg11.dtd"><svg t="1697439333423" class="icon" viewBox="0 0 1024 1024" version="1.1" xmlns="http://www.w3.org/2000/svg" p-id="8033" width="16" height="16"><path d="M320 777.142857h384v64h-384z" p-id="8034" fill="#F6BD16"></path><path d="M320 672.036571c17.700571 0 32.036571 14.262857 32.036571 31.963429v192a31.963429 31.963429 0 0 1-32.036571 32.036571H128a31.963429 31.963429 0 0 1-32.036571-32.036571V704c0-17.700571 14.336-32.036571 32.036571-32.036571h192z m576 0c17.700571 0 32.036571 14.262857 32.036571 31.963429v192a31.963429 31.963429 0 0 1-32.036571 32.036571H704a31.963429 31.963429 0 0 1-32.036571-32.036571V704c0-17.700571 14.336-32.036571 32.036571-32.036571h192zM492.032 95.890286c81.408 0 153.161143 46.372571 184.612571 115.858285 12.434286-2.340571 24.576-3.510857 36.278858-3.510857 98.084571 0 151.113143 82.285714 151.113142 159.670857 0 97.060571-82.797714 176.054857-184.612571 176.054858H544.036571v256h-64v-256H327.606857c-92.452571 0-167.643429-71.826286-167.643428-160.036572 0-79.213714 61.44-145.700571 141.385142-157.915428 27.355429-76.580571 103.862857-130.121143 190.683429-130.121143z" p-id="8035" fill="#F6BD16"></path></svg>