<svg t="1716164821559" class="icon" viewBox="0 0 1024 1024" version="1.1" xmlns="http://www.w3.org/2000/svg" p-id="11151" width="200" height="200"><path d="M912 192H328A8 8 0 0 0 320 200V256c0 4.416 3.584 8 8 8h584A8 8 0 0 0 920 256v-56A8 8 0 0 0 912 192z m0 284.032H328A8 8 0 0 0 320 484.032v56c0 4.352 3.584 7.936 8 7.936h584a8 8 0 0 0 8-7.936v-56.064a8 8 0 0 0-8-8z m0 283.968H328A8 8 0 0 0 320 768v56c0 4.416 3.584 8 8 8h584a8 8 0 0 0 8-8V768a8 8 0 0 0-8-8zM104 227.968a56 56 0 1 0 112 0 56 56 0 0 0-112 0z m0 284.032a56 56 0 1 0 112 0 56 56 0 0 0-112 0z m0 284.032a56 56 0 1 0 112 0 56 56 0 0 0-112 0z" p-id="11152"></path></svg>