<?xml version="1.0" encoding="UTF-8"?>
<svg width="146px" height="20px" viewBox="0 0 146 20" version="1.1" xmlns="http://www.w3.org/2000/svg" xmlns:xlink="http://www.w3.org/1999/xlink">
    <title>Logo</title>
    <g id="页面-1" stroke="none" stroke-width="1" fill="none" fill-rule="evenodd">
        <g id="首页-Web端" transform="translate(-104.000000, -52.000000)" fill-rule="nonzero">
            <g id="第一屏-主屏" transform="translate(84.000000, 51.000000)">
                <g id="导航" transform="translate(20.000000, 0.000000)">
                    <g id="Logo" transform="translate(0.000000, 1.000000)">
                        <path d="M123.009654,0.755621967 C123.840533,0.755621967 124.701086,0.872797207 125.591313,1.10714769 C126.451867,1.34149817 127.282746,1.69302389 128.054276,2.13243103 L128.054276,2.13243103 L125.680336,5.5598068 C125.264897,5.17898727 124.819783,4.88604917 124.374669,4.71028631 C123.929555,4.50522964 123.454767,4.41734821 123.009654,4.41734821 C122.416169,4.41734821 121.941381,4.56381726 121.525941,4.82746155 C121.110502,5.09110584 120.873108,5.44263156 120.784085,5.88203871 C120.724736,6.17497681 120.784085,6.40932729 120.932456,6.61438396 C121.080827,6.79014681 121.288547,6.96590967 121.555615,7.11237872 C121.822684,7.25884777 122.119426,7.37602301 122.475517,7.49319825 C122.831608,7.58107968 123.158025,7.69825492 123.514116,7.81543016 C124.879131,8.28413112 125.828707,8.92859494 126.362844,9.74882162 C126.89698,10.5690483 127.045352,11.5943316 126.807958,12.8832593 C126.659586,13.7327798 126.362844,14.5237126 125.947404,15.2267641 C125.531965,15.9298155 124.997828,16.5449855 124.344995,17.0429803 C123.692161,17.5409751 122.920631,17.9510884 122.060078,18.2147327 C121.199524,18.478377 120.220274,18.624846 119.181676,18.624846 C117.015455,18.624846 115.145978,17.9803822 113.513894,16.7207484 L113.513894,16.7207484 L116.065879,13.1761974 C116.62969,13.7620736 117.223175,14.1721869 117.81666,14.465125 C118.410145,14.7580631 119.033304,14.9045322 119.656464,14.9045322 C120.39832,14.9045322 120.96213,14.7287693 121.37757,14.4065374 C121.793009,14.0843055 122.030403,13.703486 122.119426,13.2933726 C122.1491,13.0297283 122.1491,12.7953779 122.089752,12.619615 C122.030403,12.4145583 121.911706,12.2387955 121.733661,12.0923264 C121.555615,11.9458574 121.318221,11.7993883 120.991805,11.6529193 C120.665388,11.535744 120.279623,11.389275 119.834509,11.2135121 C119.300373,11.0377493 118.766236,10.8326926 118.261774,10.6276359 C117.727637,10.4225792 117.282524,10.1296411 116.926433,9.77811543 C116.570342,9.42658971 116.303273,8.98718256 116.125228,8.43060017 C115.947182,7.87401778 115.947182,7.20026015 116.095554,6.35073967 C116.243925,5.50121918 116.510993,4.73958012 116.926433,4.06582249 C117.312198,3.36277105 117.81666,2.80618866 118.410145,2.30819389 C119.00363,1.81019913 119.715812,1.4293796 120.487342,1.16573531 C121.258873,0.902091017 122.089752,0.755621967 123.009654,0.755621967 Z M132.594436,13.0004345 L132.281025,14.7838572 C133.206329,14.6677499 134.237183,14.4837561 135.354141,14.2014807 C138.262218,13.4691355 140.398764,13.3812541 141.852802,13.4984293 L141.852802,13.4984293 L141.229643,17.1308617 C140.309741,17.0136865 138.618309,16.9843927 135.858603,17.6874441 C132.802156,18.4490832 130.25017,18.5955522 128.49939,18.5662584 C127.965253,18.5662584 127.520139,18.5369646 127.164049,18.5076708 L127.164049,18.5076708 L128.054276,13.1055925 C128.850582,13.2471854 131.30926,13.1706942 132.594436,13.0004345 L132.594436,13.0004345 Z M112.467364,14.5637349 L112.564318,14.5823003 L113.306174,18.1854389 L108.558294,18.1854389 L108.024158,14.9045322 C110.323267,14.4001692 111.726427,14.4318441 112.467364,14.5637349 Z M109.863961,1.31220436 L111.466371,8.95788875 C110.398098,8.98492919 109.102264,9.11181125 107.50885,9.47677719 L107.104256,9.57305876 L106.540445,6.29215205 L103.929112,11.1842183 C104.75999,11.0670431 105.679892,10.8912802 106.659142,10.6276359 C106.866862,10.5690483 107.044908,10.5397545 107.252627,10.4811669 C108.896124,10.0755603 110.236206,9.91955773 111.342892,9.874917 L111.614742,9.86599686 L112.386272,13.5863107 C111.644416,13.4398417 110.249727,13.3812541 107.875787,13.9085426 C107.608718,13.9671302 107.34165,14.0257179 107.044908,14.1135993 C105.209669,14.6003272 103.601992,14.8374511 102.245216,14.9401727 L101.911263,14.9631198 L100.190156,18.1854389 L95.4422763,18.1854389 L104.997384,1.31220436 L109.863961,1.31220436 Z M92.7419196,1.22432293 C94.3146548,1.22432293 95.4422763,1.60514246 96.124784,2.3374877 C96.8072917,3.06983295 97.0150115,4.15370392 96.7776175,5.5598068 C96.6292463,6.40932729 96.362178,7.11237872 95.9467385,7.66896111 C95.5609733,8.25483731 94.9971626,8.72353827 94.2849806,9.1043578 C94.8784656,9.22153304 95.3829278,9.42658971 95.7983673,9.66094019 C96.1841325,9.89529067 96.5105493,10.2175226 96.718269,10.5690483 C96.9259887,10.920574 97.07436,11.3306874 97.1040342,11.7700945 C97.1337085,12.2095017 97.1040342,12.7074964 97.0150115,13.2054912 C96.8666402,13.9964241 96.599572,14.6994755 96.2138068,15.3146455 C95.8280415,15.9298155 95.3532535,16.4571041 94.7597686,16.8672174 C94.1662836,17.2773308 93.5134501,17.5995627 92.7419196,17.8046194 C91.9703892,18.009676 91.1395102,18.1268513 90.2196085,18.1268513 L90.2196085,18.1268513 L82.5043037,18.1268513 L85.5310771,1.22432293 Z M89.7744947,11.1549245 L88.2017595,11.1549245 L87.5489261,14.7287693 L89.091987,14.7287693 C90.2196085,14.7287693 91.0504874,14.5823003 91.5846239,14.2893622 C92.1187604,13.9964241 92.4451771,13.5570169 92.5935484,12.9711407 C92.7122454,12.3266769 92.5638741,11.8872697 92.1187604,11.5943316 C91.6736467,11.3013935 90.9021162,11.1549245 89.7744947,11.1549245 L89.7744947,11.1549245 Z M90.7537449,4.59311107 L89.3590552,4.59311107 L88.7952445,7.87401778 L90.1899342,7.87401778 C91.5846239,7.87401778 92.3561544,7.31743539 92.5638741,6.23356443 C92.7419196,5.14969346 92.1484347,4.59311107 90.7537449,4.59311107 L90.7537449,4.59311107 Z M137.075248,1.37079198 C140.250392,0.579859108 142.446287,0.521271488 143.929999,0.697034347 L143.929999,0.697034347 L143.30684,4.35876059 C142.475961,4.21229154 140.72518,4.0951163 137.609384,4.88604917 C136.212134,5.23423128 134.920308,5.45385228 133.762258,5.5868918 L133.762258,5.5868918 L133.425315,7.52249206 C131.472434,7.78660866 129.762616,7.72976056 128.959026,7.66896111 L128.959026,7.66896111 L129.886666,2.07384341 C131.132985,2.19101865 133.692383,2.22031246 137.075248,1.37079198 Z" id="Combined-Shape" fill="#050D29"></path>
                        <path d="M128.80244,8.60636303 L128.199857,12.2387955 C128.526274,12.2680893 128.885155,12.2973831 129.330269,12.2973831 C131.081049,12.3266769 133.633035,12.1802078 136.689482,11.4185688 C139.597559,10.6862235 141.318665,10.7448112 142.208893,10.8619864 L142.832052,7.22955396 C141.407688,7.0537911 139.241468,7.14167253 136.18502,7.90331159 C132.653785,8.78212589 129.98941,8.69424446 128.80244,8.60636303 Z" id="Fill-21" fill="#086FFF"></path>
                        <path d="M11.2267575,0.755621967 C12.591773,0.755621967 13.8084172,0.960678637 14.9063644,1.4293796 C16.0043116,1.89808055 16.8945391,2.51325056 17.5770468,3.33347724 C18.2892288,4.15370392 18.7640168,5.09110584 19.0607593,6.17497681 C19.3575018,7.25884777 19.387176,8.43060017 19.149782,9.690234 C18.912388,10.9498678 18.4672743,12.1216202 17.8144408,13.2054912 C17.1616074,14.2893622 16.3307284,15.2267641 15.3514782,16.0469908 C14.3722279,16.8672174 13.2446065,17.4823874 11.998288,17.9510884 C10.7519696,18.3904956 9.41662836,18.624846 8.0516129,18.624846 C6.6569232,18.624846 5.41060474,18.4197894 4.34233177,17.9510884 C3.27405881,17.4823874 2.38383134,16.8672174 1.70132361,16.0469908 C1.01881588,15.2267641 0.51435365,14.2893622 0.247285409,13.2054912 C-0.0494570817,12.1216202 -0.0791313307,10.9498678 0.158262661,9.690234 C0.395656654,8.43060017 0.840770389,7.25884777 1.49360387,6.17497681 C2.14643735,5.09110584 2.97731632,4.15370392 3.95656654,3.33347724 C4.93581676,2.51325056 6.03376397,1.89808055 7.28008243,1.4293796 C8.52640089,0.989972447 9.83206784,0.755621967 11.2267575,0.755621967 Z M30.4556709,0.755621967 C31.1381786,0.755621967 31.7910121,0.843503397 32.4141714,0.989972447 C33.0373306,1.1364415 33.6901641,1.37079198 34.3726718,1.66373008 L34.3726718,1.66373008 L33.4230958,6.90732205 C32.6218911,5.67698204 31.4645954,5.06181203 29.9512087,5.06181203 C29.2983752,5.06181203 28.675216,5.17898727 28.0520567,5.41333775 C27.4585718,5.64768823 26.894761,5.96992014 26.4199731,6.38003348 C25.9451851,6.79014681 25.5297456,7.28814158 25.2033288,7.84472397 C24.8769121,8.43060017 24.6395181,9.04577018 24.5208211,9.690234 C24.4021241,10.3346978 24.4021241,10.9791616 24.5504954,11.535744 C24.6691924,12.0923264 24.9065864,12.5903212 25.2626773,13.0004345 C25.5890941,13.4398417 26.0342078,13.7620736 26.53867,13.9964241 C27.0431323,14.2307745 27.6366173,14.3479498 28.2894507,14.3479498 C29.7138147,14.3479498 31.1085044,13.7620736 32.4438456,12.5610274 L32.4438456,12.5610274 L31.5239439,17.7460317 L31.0491559,17.8925008 C30.3369739,18.1268513 29.6841404,18.3026141 29.0609812,18.4197894 C28.437822,18.5369646 27.844337,18.5955522 27.2805263,18.5955522 C26.1232306,18.5955522 25.0252833,18.3612017 24.0163589,17.9217946 C23.0074344,17.4823874 22.1765554,16.8672174 21.4940477,16.0762846 C20.81154,15.2853517 20.3070778,14.318656 20.0103353,13.234785 C19.6839185,12.1216202 19.6542443,10.920574 19.8916383,9.63164638 C20.099358,8.34271874 20.574146,7.14167253 21.2566537,6.05780157 C21.9391614,4.9739306 22.7403662,4.03652868 23.7196164,3.24559581 C24.6691924,2.48395675 25.7374653,1.86878674 26.9244353,1.4293796 C28.081731,0.989972447 29.268701,0.755621967 30.4556709,0.755621967 Z M61.3168899,1.22432293 L64.8184513,18.1268513 L60.0705715,18.1268513 L59.5661092,15.1974703 L53.2158199,15.1974703 L51.672759,18.1268513 L46.9248791,18.1268513 L56.4503131,1.22432293 L61.3168899,1.22432293 Z M49.2097963,1.22432293 L48.5569628,4.94463679 L39.5359911,4.94463679 L39.0315289,7.78613635 L47.7557581,7.78613635 L47.1029246,11.5064502 L38.3786954,11.5064502 L37.8445589,14.4065374 L46.8655306,14.4065374 L46.2126972,18.1268513 L32.7405881,18.1268513 L35.7673615,1.22432293 L49.2097963,1.22432293 Z M72.652453,1.22432293 L77.8751209,11.3599812 L79.7149243,1.22432293 L84.1363874,1.22432293 L81.109614,18.1268513 L76.6881509,18.1268513 L71.4951573,7.99119302 L69.6553539,18.1268513 L65.2042165,18.1268513 L68.2013157,1.22432293 L72.652453,1.22432293 Z M10.4849013,5.06181203 C9.86174209,5.06181203 9.20890862,5.17898727 8.58574939,5.41333775 C7.93291591,5.64768823 7.36910518,5.96992014 6.86464294,6.38003348 C6.36018071,6.79014681 5.91506697,7.28814158 5.55897598,7.84472397 C5.202885,8.40130636 4.965491,9.01647637 4.84679401,9.690234 C4.72809701,10.3346978 4.75777126,10.9791616 4.90614251,11.535744 C5.05451375,12.0923264 5.32158199,12.5903212 5.67767298,13.0004345 C6.06343822,13.4105479 6.50855195,13.7327798 7.04268844,13.9671302 C7.57682492,14.2014807 8.19998415,14.318656 8.82314338,14.318656 C9.44630261,14.318656 10.0991361,14.2014807 10.7222953,13.9671302 C11.3454545,13.7327798 11.9092653,13.4105479 12.4434018,13.0004345 C12.947864,12.5903212 13.3929777,12.0923264 13.7490687,11.535744 C14.1051597,10.9791616 14.3425537,10.3346978 14.4909249,9.690234 C14.6096219,9.04577018 14.5799477,8.40130636 14.4315764,7.84472397 C14.253531,7.28814158 14.016137,6.79014681 13.6303717,6.38003348 C13.2742807,5.96992014 12.7994927,5.64768823 12.2653563,5.41333775 C11.7312198,5.17898727 11.1377348,5.06181203 10.4849013,5.06181203 Z M57.993374,6.23356443 L54.9962749,11.8579759 L59.0022985,11.8579759 L57.993374,6.23356443 Z" id="Combined-Shape" fill="#086FFF"></path>
                    </g>
                </g>
            </g>
        </g>
    </g>
</svg>