<?xml version="1.0" standalone="no"?><!DOCTYPE svg PUBLIC "-//W3C//DTD SVG 1.1//EN" "http://www.w3.org/Graphics/SVG/1.1/DTD/svg11.dtd"><svg class="icon" width="32px" height="32.00px" viewBox="0 0 1024 1024" version="1.1" xmlns="http://www.w3.org/2000/svg"><path fill="currentColor" d="M290.011429 292.571429c64.658286 0 113.152 16.091429 143.725714 48.347428 27.282286 28.013714 40.886857 68.754286 40.886857 122.221714v280.137143H384.438857v-57.782857a171.666286 171.666286 0 0 1-62.902857 50.102857c-28.086857 12.726857-61.293714 19.529143-99.547429 19.529143-45.933714 0-81.627429-11.922286-108.032-34.816A113.883429 113.883429 0 0 1 73.142857 630.345143c0-49.225143 18.724571-87.405714 57.782857-113.737143 35.84-25.453714 85.942857-38.985143 150.601143-40.740571l96.109714-2.486858v-17.042285c0-57.709714-31.451429-85.650286-94.354285-85.650286-27.282286 0-48.566857 4.242286-64.731429 14.409143-18.651429 10.971429-31.451429 28.013714-36.571428 50.907428l-96.109715-7.606857c9.362286-48.420571 33.206857-84.114286 71.460572-106.057143C189.659429 301.787429 233.910857 292.571429 290.011429 292.571429zM377.417143 540.672l-86.308572 2.56c-74.898286 1.682286-111.908571 28.891429-111.908571 81.481143 0 15.36 5.778286 28.013714 18.944 38.253714 13.165714 10.166857 29.549714 16.091429 50.176 16.091429 36.132571 0 66.56-10.971429 91.282286-32.256 24.649143-22.089143 37.814857-50.102857 37.814857-84.114286v-22.016zM766.317714 292.571429c64.585143 0 113.078857 16.091429 143.725715 48.347428 27.209143 28.013714 40.813714 68.754286 40.813714 122.221714v280.137143h-90.185143v-57.782857a171.666286 171.666286 0 0 1-62.902857 50.102857c-28.086857 12.726857-61.220571 19.529143-99.474286 19.529143-46.006857 0-81.700571-11.922286-108.032-34.816a113.883429 113.883429 0 0 1-40.886857-89.965714c0-49.225143 18.724571-87.405714 57.856-113.737143 35.693714-25.453714 85.942857-38.985143 150.528-40.740571l96.109714-2.486858v-17.042285c0-57.709714-31.451429-85.650286-94.354285-85.650286-27.282286 0-48.493714 4.242286-64.658286 14.409143-18.724571 10.971429-31.451429 28.013714-36.571429 50.907428l-96.109714-7.606857c9.362286-48.420571 33.133714-84.114286 71.460571-106.057143C665.892571 301.787429 710.144 292.571429 766.317714 292.571429z m87.259429 248.100571l-86.308572 2.56c-74.898286 1.682286-111.908571 28.891429-111.908571 81.481143 0 15.36 5.778286 28.013714 18.944 38.253714 13.165714 10.166857 29.622857 16.091429 50.176 16.091429 36.205714 0 66.56-10.971429 91.282286-32.256 24.722286-22.089143 37.814857-50.102857 37.814857-84.114286v-22.016z" /></svg>