<?xml version="1.0" standalone="no"?><!DOCTYPE svg PUBLIC "-//W3C//DTD SVG 1.1//EN" "http://www.w3.org/Graphics/SVG/1.1/DTD/svg11.dtd"><svg class="icon" width="32px" height="32.00px" viewBox="0 0 1024 1024" version="1.1" xmlns="http://www.w3.org/2000/svg"><path fill="currentColor" d="M983.388 477.586c-2.12-3.823-45.74-92.75-128.378-175.597C744.827 189.826 622.115 136 511.932 136c-110.183 0-231.689 53.826-341.872 165.99C87.423 384.836 42.595 473.762 41.535 477.585c-12.713 20.394-12.713 49.709 0 68.828 1.06 3.823 45.888 94.201 128.525 177.049C280.243 835.625 401.75 888 511.932 888c110.183 0 232.895-52.375 343.078-164.537 82.637-84.122 125.2-174.5 127.318-177.05 12.714-19.118 12.714-49.708 1.06-68.827zM512 712c-110 0-200-90.37-200-200s90-200 200-200 200 90.37 200 200-90 200-200 200z m80-200c0 44.8-35.2 80-80 80s-80-35.2-80-80 35.2-80 80-80 80 35.2 80 80z" /></svg>