<?xml version="1.0" standalone="no"?><!DOCTYPE svg PUBLIC "-//W3C//DTD SVG 1.1//EN" "http://www.w3.org/Graphics/SVG/1.1/DTD/svg11.dtd"><svg class="icon" width="32px" height="32.00px" viewBox="0 0 1024 1024" version="1.1" xmlns="http://www.w3.org/2000/svg"><path fill="currentColor" d="M618.13 304.405v0.543h127.16v-0.543h136.672c16.424 0 29.769 13.33 30.038 29.878V881.62c0 16.61-13.18 30.108-29.54 30.38H341.286c-16.424 0-29.769-13.33-30.04-29.877V334.785c0-16.61 13.183-30.108 29.543-30.38h277.341zM682.714 112c16.424 0 29.769 13.33 30.038 29.877v82.31H231.172v495.408h-89.134c-16.424 0-29.769-13.33-30.038-29.878V142.38c0-16.61 13.18-30.108 29.54-30.38h541.173z m-70.968 386.474c-62.407 0-112.999 51.168-112.999 114.285 0 63.118 50.592 114.286 112.999 114.286 62.406 0 112.998-51.168 112.998-114.286 0-63.117-50.592-114.285-112.998-114.285z" /></svg>