<?xml version="1.0" standalone="no"?><!DOCTYPE svg PUBLIC "-//W3C//DTD SVG 1.1//EN" "http://www.w3.org/Graphics/SVG/1.1/DTD/svg11.dtd"><svg class="icon" width="32px" height="32.00px" viewBox="0 0 1024 1024" version="1.1" xmlns="http://www.w3.org/2000/svg"><path fill="currentColor" d="M520.23 101.333C520.23 85.127 506.86 72 490.355 72h-89.62c-107.247 0-194.179 85.36-194.179 190.667V380h-74.683C115.368 380 102 393.127 102 409.333v88c0 16.207 13.368 29.334 29.874 29.334h74.683v234.666c0 24.2-20.164 44-44.81 44h-29.873c-16.506 0-29.874 13.127-29.874 29.334v88C102 938.873 115.368 952 131.874 952h29.873c107.246 0 194.178-85.36 194.178-190.667V526.667h74.684c16.505 0 29.873-13.127 29.873-29.334v-88c0-16.206-13.368-29.333-29.873-29.333h-74.684V262.667c0-24.2 20.164-44 44.81-44h89.62c16.506 0 29.874-13.127 29.874-29.334v-88zM803.85 732.5l107.237-105.317a36.124 36.124 0 0 0 0-51.744l-52.664-51.72c-14.551-14.292-38.136-14.292-52.687 0L698.5 629.034 591.264 523.718c-14.551-14.29-38.136-14.29-52.687 0l-52.664 51.721a36.124 36.124 0 0 0 0 51.744L593.15 732.5 485.913 837.817a36.124 36.124 0 0 0 0 51.744l52.664 51.72c14.551 14.292 38.136 14.292 52.687 0L698.5 835.966l107.236 105.317c14.551 14.29 38.136 14.29 52.687 0l52.664-51.721a36.124 36.124 0 0 0 0-51.744L803.85 732.5z" /></svg>