<?xml version="1.0" standalone="no"?><!DOCTYPE svg PUBLIC "-//W3C//DTD SVG 1.1//EN" "http://www.w3.org/Graphics/SVG/1.1/DTD/svg11.dtd"><svg class="icon" width="1em" height="1em" viewBox="0 0 1024 1024" version="1.1" xmlns="http://www.w3.org/2000/svg"><path fill="currentColor" d="M912 160v147H112V160c0-26.51 21.49-48 48-48h704c26.51 0 48 21.49 48 48zM347 360v239H112V360h235z m0 293v259H160c-26.51 0-48-21.49-48-48V653h235z m280-293v239H397V360h230z m0 293v259H398V653h229z m285-293v239H682V360h230z m0 293v211c0 26.51-21.49 48-48 48H682V653h230z" /></svg>