<?xml version="1.0" standalone="no"?><!DOCTYPE svg PUBLIC "-//W3C//DTD SVG 1.1//EN" "http://www.w3.org/Graphics/SVG/1.1/DTD/svg11.dtd"><svg class="icon" width="32px" height="32.00px" viewBox="0 0 1024 1024" version="1.1" xmlns="http://www.w3.org/2000/svg"><path fill="currentColor" d="M772.754 371.332c-8.094-13.375-22.836-21.583-38.765-21.586H596.092l159.82-250.7c8.628-13.532 9.053-30.56 1.109-44.483-7.938-13.93-23-22.563-39.345-22.563H380.051c-21.65 0-40.235 15.024-44.24 35.767l-90.034 466.11c-2.478 12.835 1.037 26.078 9.589 36.13 8.55 10.058 21.252 15.88 34.652 15.88h128.168l-43.014 357.106c-2.508 20.834 10.458 40.485 30.944 46.9 20.487 6.414 42.765-2.202 53.17-20.563l314.092-554.475c7.713-13.592 7.475-30.146-0.624-43.523z" /></svg>