<?xml version="1.0" standalone="no"?><!DOCTYPE svg PUBLIC "-//W3C//DTD SVG 1.1//EN" "http://www.w3.org/Graphics/SVG/1.1/DTD/svg11.dtd"><svg class="icon" width="32px" height="32.00px" viewBox="0 0 1024 1024" version="1.1" xmlns="http://www.w3.org/2000/svg"><path fill="currentColor" d="M805.736 523.718c14.551-14.29 38.136-14.29 52.687 0l52.664 51.721a36.124 36.124 0 0 1 0 51.744L803.85 732.5l107.237 105.317a36.124 36.124 0 0 1 0 51.744l-52.664 51.72c-14.551 14.292-38.136 14.292-52.687 0L698.5 835.966 591.264 941.282c-14.551 14.29-38.136 14.29-52.687 0l-52.664-51.721a36.124 36.124 0 0 1 0-51.744L593.15 732.5 485.913 627.183a36.124 36.124 0 0 1 0-51.744l52.664-51.72c14.551-14.292 38.136-14.292 52.687 0L698.5 629.034zM281.756 92l-0.061 1.246h165.761c65.59 0 114.266 16.7 146.027 50.098 31.76 33.398 40.255 85.107 25.482 155.127-16.545 76.465-47.715 130.517-93.51 162.158-45.795 31.64-104.885 47.46-177.27 47.46h-86.413l-18.71 389.623C242.143 916.907 226.179 932 206.8 932h-68.494C118.255 932 102 915.882 102 896c0-0.571 0.014-1.142 0.041-1.712l36.881-768c0.72-14.977 10.596-27.457 24.107-32.218l-0.092-0.824h2.75a36.621 36.621 0 0 1 9.5-1.246h106.568z m119.61 113.746H276.292l-9.159 190.723h93.46c32.205 0 58.943-7.764 80.215-23.291 21.273-15.528 35.455-40.137 42.545-73.828 7.387-33.692 3.62-57.715-11.3-72.07-14.92-14.356-38.483-21.534-70.687-21.534z" /></svg>