<?xml version="1.0" standalone="no"?><!DOCTYPE svg PUBLIC "-//W3C//DTD SVG 1.1//EN" "http://www.w3.org/Graphics/SVG/1.1/DTD/svg11.dtd"><svg t="1614083954491" class="icon" viewBox="0 0 1024 1024" version="1.1" xmlns="http://www.w3.org/2000/svg" p-id="2328" xmlns:xlink="http://www.w3.org/1999/xlink" width="32" height="32"><defs><style type="text/css"></style></defs><path d="M676.654 910.719a290.36 290.36 0 0 1-229.573-99.738c-8.934-10.56-8.934-26.029 0-36.59 57.53-66.216 141.912-102.875 229.573-99.737a290.36 290.36 0 0 1 229.573 99.737c8.934 10.561 8.934 26.03 0 36.59-57.53 66.216-141.912 102.876-229.573 99.738zM510.228 792.686a248.458 248.458 0 0 0 166.426 59.017 248.458 248.458 0 0 0 166.426-59.017 248.459 248.459 0 0 0-166.426-59.016 248.458 248.458 0 0 0-166.426 59.016z" p-id="2329"></path><path d="M638.654 792.686c0 20.987 17.013 38 38 38s38-17.013 38-38c0-20.986-17.013-38-38-38s-38 17.014-38 38zM145.508 881.21C129.211 881.21 116 868 116 851.704V143.508C116 127.211 129.211 114 145.508 114h708.195c16.296 0 29.508 13.211 29.508 29.508v472.13c0 16.297-13.212 29.508-29.508 29.508-16.297 0-29.508-13.211-29.508-29.508V173.016H175.016v649.179h206.557c16.297 0 0 13.274 0 29.57 0 16.298 16.297 29.446 0 29.446H145.508z" p-id="2330"></path><path d="M284 822h109v59H284z" p-id="2331"></path><path d="M853.703 406.065H145.508c-16.297 0-29.508-16.118-29.508-36s13.211-36 29.508-36h708.195c16.296 0 29.508 16.118 29.508 36s-13.212 36-29.508 36z m0 242.065H145.508c-16.297 0-29.508-16.118-29.508-36 0-19.883 13.211-36 29.508-36h708.195c16.296 0 29.508 16.117 29.508 36 0 19.882-13.212 36-29.508 36z" p-id="2332"></path></svg>