<?xml version="1.0" encoding="UTF-8"?>
<svg xmlns="http://www.w3.org/2000/svg" xmlns:xlink="http://www.w3.org/1999/xlink" width="180px" height="24px" viewBox="0 0 180 24" version="1.1">
<g id="surface1">
<path style=" stroke:none;fill-rule:nonzero;fill:rgb(9.411765%,9.411765%,9.411765%);fill-opacity:1;" d="M 96.601562 3.625 L 87.605469 20.527344 L 92.089844 20.527344 L 93.550781 17.589844 L 99.546875 17.589844 L 100.027344 20.527344 L 104.507812 20.527344 L 101.210938 3.625 Z M 95.214844 14.246094 L 98.035156 8.628906 L 98.96875 14.246094 Z M 95.214844 14.246094 "/>
<path style=" stroke:none;fill-rule:nonzero;fill:rgb(9.411765%,9.411765%,9.411765%);fill-opacity:1;" d="M 59.269531 5.746094 C 58.613281 4.925781 57.78125 4.316406 56.75 3.855469 C 55.71875 3.394531 54.558594 3.164062 53.273438 3.164062 C 51.964844 3.164062 50.730469 3.394531 49.546875 3.855469 C 48.386719 4.316406 47.328125 4.953125 46.421875 5.746094 C 45.492188 6.5625 44.734375 7.507812 44.105469 8.578125 C 43.476562 9.652344 43.074219 10.824219 42.847656 12.078125 C 42.644531 13.328125 42.667969 14.503906 42.921875 15.574219 C 43.171875 16.648438 43.625 17.589844 44.28125 18.410156 C 44.9375 19.226562 45.769531 19.839844 46.773438 20.296875 C 47.78125 20.757812 48.941406 20.988281 50.277344 20.988281 C 51.585938 20.988281 52.820312 20.757812 53.980469 20.296875 C 55.164062 19.839844 56.195312 19.199219 57.128906 18.410156 C 58.058594 17.589844 58.839844 16.648438 59.445312 15.574219 C 60.074219 14.503906 60.476562 13.328125 60.703125 12.078125 C 60.90625 10.824219 60.882812 9.652344 60.628906 8.578125 C 60.378906 7.480469 59.925781 6.535156 59.269531 5.746094 M 55.640625 13.941406 C 55.316406 14.503906 54.886719 15.011719 54.40625 15.421875 C 53.902344 15.828125 53.375 16.160156 52.796875 16.390625 C 52.214844 16.621094 51.613281 16.75 50.980469 16.75 C 50.378906 16.75 49.796875 16.621094 49.292969 16.390625 C 48.789062 16.160156 48.363281 15.828125 48.007812 15.421875 C 47.65625 15.011719 47.429688 14.503906 47.277344 13.941406 C 47.128906 13.378906 47.101562 12.765625 47.230469 12.078125 C 47.328125 11.414062 47.554688 10.773438 47.910156 10.210938 C 48.234375 9.652344 48.664062 9.140625 49.144531 8.730469 C 49.621094 8.324219 50.152344 7.992188 50.753906 7.761719 C 51.335938 7.53125 51.9375 7.402344 52.570312 7.402344 C 53.171875 7.402344 53.753906 7.53125 54.257812 7.761719 C 54.761719 7.992188 55.1875 8.324219 55.542969 8.730469 C 55.894531 9.140625 56.144531 9.652344 56.296875 10.210938 C 56.449219 10.773438 56.472656 11.414062 56.347656 12.078125 C 56.195312 12.742188 55.96875 13.351562 55.640625 13.941406 "/>
<path style=" stroke:none;fill-rule:nonzero;fill:rgb(9.411765%,9.411765%,9.411765%);fill-opacity:1;" d="M 87.558594 16.800781 L 79.066406 16.800781 L 79.546875 13.890625 L 87.757812 13.890625 L 88.386719 10.160156 L 80.175781 10.160156 L 80.65625 7.351562 L 89.144531 7.351562 L 89.773438 3.625 L 77.078125 3.625 L 74.230469 20.527344 L 86.925781 20.527344 Z M 87.558594 16.800781 "/>
<path style=" stroke:none;fill-rule:nonzero;fill:rgb(9.411765%,9.411765%,9.411765%);fill-opacity:1;" d="M 116.777344 13.761719 L 111.863281 3.625 L 107.683594 3.625 L 104.835938 20.527344 L 109.019531 20.527344 L 110.78125 10.390625 L 115.667969 20.527344 L 119.851562 20.527344 L 122.695312 3.625 L 118.515625 3.625 Z M 116.777344 13.761719 "/>
<path style=" stroke:none;fill-rule:nonzero;fill:rgb(9.411765%,9.411765%,9.411765%);fill-opacity:1;" d="M 135.519531 15.625 C 135.59375 15.113281 135.617188 14.628906 135.59375 14.195312 C 135.542969 13.734375 135.441406 13.351562 135.242188 12.996094 C 135.039062 12.636719 134.738281 12.332031 134.359375 12.078125 C 133.980469 11.820312 133.503906 11.640625 132.921875 11.539062 C 133.578125 11.15625 134.105469 10.671875 134.511719 10.109375 C 134.886719 9.550781 135.164062 8.835938 135.316406 7.992188 C 135.542969 6.585938 135.339844 5.515625 134.710938 4.773438 C 134.058594 4.035156 133 3.652344 131.511719 3.652344 L 124.710938 3.652344 L 121.863281 20.554688 L 129.167969 20.554688 C 130.027344 20.554688 130.808594 20.449219 131.539062 20.246094 C 132.269531 20.042969 132.898438 19.734375 133.453125 19.300781 C 134.007812 18.894531 134.460938 18.359375 134.835938 17.746094 C 135.113281 17.105469 135.367188 16.417969 135.519531 15.625 M 128.289062 6.996094 L 129.625 6.996094 C 130.933594 6.996094 131.511719 7.53125 131.3125 8.628906 C 131.132812 9.726562 130.378906 10.265625 129.070312 10.265625 L 127.734375 10.265625 Z M 130.402344 16.699219 C 129.902344 16.980469 129.121094 17.132812 128.0625 17.132812 L 126.574219 17.132812 L 127.179688 13.558594 L 128.667969 13.558594 C 129.722656 13.558594 130.453125 13.710938 130.859375 13.992188 C 131.261719 14.273438 131.410156 14.730469 131.3125 15.371094 C 131.210938 15.957031 130.90625 16.417969 130.402344 16.699219 "/>
<path style=" stroke:none;fill-rule:nonzero;fill:rgb(9.411765%,9.411765%,9.411765%);fill-opacity:1;" d="M 160.503906 10.210938 C 160.179688 10.085938 159.851562 9.984375 159.523438 9.878906 C 159.195312 9.777344 158.894531 9.652344 158.640625 9.523438 C 158.390625 9.371094 158.1875 9.21875 158.0625 9.011719 C 157.9375 8.808594 157.886719 8.578125 157.9375 8.273438 C 158.011719 7.839844 158.238281 7.480469 158.617188 7.226562 C 158.996094 6.945312 159.472656 6.816406 160 6.816406 C 160.429688 6.816406 160.859375 6.917969 161.285156 7.097656 C 161.714844 7.277344 162.117188 7.582031 162.519531 7.964844 L 164.761719 4.542969 C 164.03125 4.085938 163.25 3.753906 162.421875 3.523438 C 161.589844 3.292969 160.78125 3.164062 159.976562 3.164062 C 159.121094 3.164062 158.3125 3.292969 157.582031 3.574219 C 156.851562 3.855469 156.199219 4.210938 155.644531 4.699219 C 155.089844 5.183594 154.609375 5.769531 154.234375 6.433594 C 153.855469 7.125 153.605469 7.863281 153.453125 8.707031 C 153.300781 9.550781 153.328125 10.238281 153.476562 10.773438 C 153.628906 11.3125 153.878906 11.769531 154.234375 12.128906 C 154.585938 12.484375 154.988281 12.765625 155.46875 12.996094 C 155.945312 13.199219 156.449219 13.402344 156.953125 13.582031 C 157.382812 13.734375 157.734375 13.890625 158.035156 14.042969 C 158.339844 14.171875 158.566406 14.324219 158.742188 14.476562 C 158.917969 14.628906 159.019531 14.808594 159.09375 14.988281 C 159.144531 15.164062 159.144531 15.394531 159.121094 15.652344 C 159.042969 16.058594 158.816406 16.441406 158.441406 16.773438 C 158.035156 17.105469 157.507812 17.257812 156.828125 17.257812 C 156.222656 17.257812 155.644531 17.105469 155.089844 16.824219 C 154.535156 16.542969 153.980469 16.109375 153.453125 15.523438 L 151.058594 19.074219 C 152.597656 20.347656 154.359375 20.988281 156.398438 20.988281 C 157.382812 20.988281 158.289062 20.859375 159.121094 20.578125 C 159.953125 20.296875 160.65625 19.914062 161.285156 19.402344 C 161.917969 18.894531 162.421875 18.304688 162.824219 17.589844 C 163.226562 16.875 163.476562 16.109375 163.628906 15.242188 C 163.855469 13.964844 163.703125 12.917969 163.199219 12.128906 C 162.695312 11.335938 161.789062 10.699219 160.503906 10.210938 "/>
<path style=" stroke:none;fill-rule:nonzero;fill:rgb(9.411765%,9.411765%,9.411765%);fill-opacity:1;" d="M 71.386719 3.164062 C 70.25 3.164062 69.144531 3.394531 68.035156 3.828125 C 66.925781 4.265625 65.917969 4.875 65.011719 5.667969 C 64.105469 6.460938 63.324219 7.378906 62.667969 8.476562 C 62.015625 9.550781 61.585938 10.75 61.359375 12.050781 C 61.132812 13.351562 61.183594 14.554688 61.460938 15.652344 C 61.738281 16.75 62.214844 17.695312 62.847656 18.484375 C 63.5 19.277344 64.28125 19.914062 65.238281 20.347656 C 66.195312 20.78125 67.203125 21.011719 68.335938 21.011719 C 68.890625 21.011719 69.445312 20.960938 70.023438 20.835938 C 70.605469 20.730469 71.234375 20.554688 71.914062 20.296875 L 72.367188 20.144531 L 73.25 14.9375 C 71.988281 16.136719 70.679688 16.722656 69.320312 16.722656 C 68.714844 16.722656 68.160156 16.597656 67.65625 16.367188 C 67.179688 16.136719 66.777344 15.804688 66.449219 15.371094 C 66.121094 14.960938 65.894531 14.449219 65.769531 13.890625 C 65.640625 13.328125 65.640625 12.714844 65.742188 12.027344 C 65.84375 11.363281 66.070312 10.75 66.371094 10.1875 C 66.699219 9.625 67.078125 9.140625 67.53125 8.730469 C 67.984375 8.324219 68.488281 7.992188 69.066406 7.761719 C 69.648438 7.53125 70.25 7.402344 70.882812 7.402344 C 72.316406 7.402344 73.402344 8.015625 74.15625 9.269531 L 75.039062 4.035156 C 74.40625 3.726562 73.777344 3.523438 73.199219 3.371094 C 72.644531 3.21875 72.039062 3.164062 71.386719 3.164062 "/>
<path style=" stroke:none;fill-rule:nonzero;fill:rgb(9.411765%,9.411765%,9.411765%);fill-opacity:1;" d="M 150.179688 16.980469 C 149.496094 16.851562 148.164062 16.773438 145.894531 17.3125 L 146.425781 20.578125 L 150.910156 20.578125 Z M 150.179688 16.980469 "/>
<path style=" stroke:none;fill-rule:nonzero;fill:rgb(9.411765%,9.411765%,9.411765%);fill-opacity:1;" d="M 150 15.984375 L 149.269531 12.253906 C 148.1875 12.28125 146.828125 12.433594 145.164062 12.867188 C 144.988281 12.917969 144.789062 12.96875 144.609375 13.019531 C 143.679688 13.277344 142.824219 13.457031 142.042969 13.582031 L 144.484375 8.679688 L 145.015625 11.949219 C 146.703125 11.515625 148.035156 11.363281 149.121094 11.335938 L 147.609375 3.675781 L 143.023438 3.675781 L 134.03125 20.578125 L 138.515625 20.578125 L 140.128906 17.363281 C 141.460938 17.257812 143.101562 17.03125 144.964844 16.519531 C 145.242188 16.441406 145.492188 16.390625 145.746094 16.316406 C 147.988281 15.777344 149.320312 15.855469 150 15.984375 "/>
<path style=" stroke:none;fill-rule:nonzero;fill:rgb(9.411765%,9.411765%,9.411765%);fill-opacity:1;" d="M 172.445312 10.316406 C 169.121094 11.207031 166.578125 11.105469 165.46875 11.003906 L 164.863281 14.628906 C 165.191406 14.65625 165.542969 14.679688 165.972656 14.679688 C 167.609375 14.707031 170.027344 14.554688 172.925781 13.789062 C 175.667969 13.046875 177.308594 13.097656 178.136719 13.25 L 178.742188 9.601562 C 177.355469 9.445312 175.316406 9.550781 172.445312 10.316406 "/>
<path style=" stroke:none;fill-rule:nonzero;fill:rgb(9.411765%,9.411765%,9.411765%);fill-opacity:1;" d="M 173.328125 3.777344 C 170.152344 4.621094 167.683594 4.597656 166.527344 4.492188 L 165.644531 10.058594 C 166.425781 10.136719 167.910156 10.1875 169.851562 9.933594 L 170.152344 7.992188 C 171.261719 7.863281 172.46875 7.632812 173.804688 7.277344 C 176.753906 6.484375 178.390625 6.613281 179.171875 6.765625 L 179.777344 3.113281 C 178.363281 2.910156 176.300781 2.988281 173.328125 3.777344 "/>
<path style=" stroke:none;fill-rule:nonzero;fill:rgb(9.411765%,9.411765%,9.411765%);fill-opacity:1;" d="M 171.664062 16.621094 C 170.605469 16.902344 169.648438 17.082031 168.769531 17.207031 L 169.042969 15.421875 C 167.808594 15.574219 166.777344 15.601562 165.921875 15.574219 C 165.519531 15.574219 165.140625 15.550781 164.839844 15.523438 L 163.957031 20.9375 C 164.308594 20.960938 164.710938 20.988281 165.214844 21.011719 C 166.851562 21.039062 169.269531 20.886719 172.167969 20.121094 C 174.761719 19.429688 176.351562 19.429688 177.230469 19.558594 L 177.835938 15.933594 C 176.398438 15.753906 174.410156 15.878906 171.664062 16.621094 "/>
<path style=" stroke:none;fill-rule:nonzero;fill:rgb(2.745098%,78.431373%,27.45098%);fill-opacity:1;" d="M 19.871094 24 C 20.578125 23.695312 21.285156 23.414062 22.015625 23.15625 C 22.367188 23.03125 22.695312 22.925781 23.046875 22.824219 C 23.324219 22.75 23.601562 22.648438 23.878906 22.570312 C 28.035156 21.394531 32.265625 21.089844 36.347656 21.550781 L 36.347656 17.234375 C 31.839844 16.773438 27.179688 17.15625 22.566406 18.484375 C 22.292969 18.5625 22.015625 18.636719 21.738281 18.742188 C 21.382812 18.84375 21.007812 18.96875 20.652344 19.097656 C 19.949219 19.351562 19.242188 19.609375 18.5625 19.890625 Z M 19.871094 24 "/>
<path style=" stroke:none;fill-rule:nonzero;fill:rgb(0.392157%,50.588235%,99.215686%);fill-opacity:1;" d="M 36.320312 3.242188 L 36.320312 16.160156 C 31.636719 15.703125 26.800781 16.136719 22.039062 17.539062 C 21.460938 17.71875 20.878906 17.898438 20.300781 18.101562 C 19.597656 18.359375 18.890625 18.5625 18.183594 18.792969 C 12.191406 20.578125 6.09375 21.21875 0.175781 20.78125 L 0.175781 7.863281 C 4.808594 8.324219 9.570312 7.914062 14.28125 6.535156 C 14.910156 6.359375 15.566406 6.152344 16.195312 5.921875 C 16.851562 5.695312 17.480469 5.488281 18.136719 5.285156 C 24.179688 3.445312 30.328125 2.808594 36.320312 3.242188 Z M 36.320312 3.242188 "/>
<path style=" stroke:none;fill-rule:nonzero;fill:rgb(100%,62.745098%,1.960784%);fill-opacity:1;" d="M 16.625 0 C 15.917969 0.304688 15.214844 0.585938 14.484375 0.84375 C 14.128906 0.96875 13.800781 1.074219 13.449219 1.175781 C 13.171875 1.25 12.894531 1.351562 12.617188 1.429688 C 8.460938 2.605469 4.230469 2.910156 0.148438 2.449219 L 0.148438 6.765625 C 4.660156 7.226562 9.320312 6.84375 13.929688 5.515625 C 14.207031 5.4375 14.484375 5.363281 14.757812 5.257812 C 15.113281 5.15625 15.488281 5.03125 15.84375 4.902344 C 16.546875 4.648438 17.253906 4.390625 17.933594 4.109375 Z M 16.625 0 "/>
</g>
</svg>
