<?xml version="1.0" encoding="UTF-8"?>
<svg width="122px" height="16px" viewBox="0 0 122 16" version="1.1" xmlns="http://www.w3.org/2000/svg" xmlns:xlink="http://www.w3.org/1999/xlink">
    <title>编组</title>
    <defs>
        <polygon id="path-1" points="0.0569216429 0.112685714 12.601015 0.112685714 12.601015 6.18133973 0.0569216429 6.18133973"></polygon>
        <polygon id="path-3" points="0.134408322 0.121586939 12.4174008 0.121586939 12.4174008 4.89251701 0.134408322 4.89251701"></polygon>
    </defs>
    <g id="组件" stroke="none" stroke-width="1" fill="none" fill-rule="evenodd">
        <g id="5.1帮助中心菜单" transform="translate(-85.000000, -16.000000)">
            <g id="编组" transform="translate(85.000000, 16.000000)">
                <path d="M45.9257708,9.82954525 L48.4619843,5.09502983 L49.3009015,9.82954525 L45.9257708,9.82954525 Z M47.1642101,0.888888889 L39.1111111,15.1111111 L43.1188316,15.1111111 L44.4246754,12.6401239 L49.794252,12.6401239 L50.214027,15.1111111 L54.2222222,15.1111111 L51.2679741,0.888888889 L47.1642101,0.888888889 Z" id="Fill-1" fill="#FFFFFF"></path>
                <g>
                    <path d="M11.4759635,9.43987483 C11.1759393,9.92470748 10.8084606,10.3454639 10.3730578,10.7024599 C9.93749842,11.0596136 9.45921263,11.3370667 8.93773088,11.5345034 C8.41624912,11.7322558 7.88365536,11.8308952 7.3399496,11.8308952 C6.79624383,11.8308952 6.29808164,11.7322558 5.84593254,11.5345034 C5.39347043,11.3370667 5.01534921,11.0596136 4.71109935,10.7024599 C4.40669298,10.3454639 4.18946109,9.92470748 4.05924715,9.43987483 C3.92887672,8.95567347 3.91416505,8.42633469 4.01448612,7.8524898 C4.11480719,7.2786449 4.31466679,6.74962177 4.61453445,6.26478912 C4.91408909,5.78027211 5.27843769,5.35951565 5.70789325,5.0023619 C6.13687929,4.64552381 6.61203494,4.36807075 7.1336732,4.17016054 C7.65484194,3.97272381 8.18774871,3.87376871 8.73145448,3.87376871 C9.27500374,3.87376871 9.77300942,3.97272381 10.225628,4.17016054 C10.6776206,4.36807075 11.0590285,4.64552381 11.3698517,5.0023619 C11.6803618,5.35951565 11.9007238,5.78027211 12.0310943,6.26478912 C12.1613082,6.74962177 12.1763329,7.2786449 12.0758553,7.8524898 C11.9756908,8.42633469 11.7756746,8.95567347 11.4759635,9.43987483 M14.6823251,2.43931429 C14.1007446,1.75073197 13.3571792,1.21208163 12.4514724,0.822889796 C11.5456092,0.434013605 10.5173573,0.23957551 9.36687342,0.23957551 C8.20324292,0.23957551 7.10409335,0.434013605 6.06879869,0.822889796 C5.03334753,1.21208163 4.10745135,1.75073197 3.29173619,2.43931429 C2.47586453,3.12773878 1.79083283,3.93453061 1.23758012,4.85890068 C0.683544886,5.78358639 0.313249019,6.78134422 0.126066493,7.8524898 C-0.0612725411,8.92363537 -0.0398310644,9.9213932 0.190703937,10.8459211 C0.42061291,11.7706068 0.823618767,12.5769252 1.39862596,13.2655075 C1.97363315,13.9542476 2.71109474,14.4930558 3.61054122,14.8817741 C4.50983118,15.2706503 5.54105665,15.4652463 6.70453065,15.4652463 C7.85517106,15.4652463 8.951347,15.2706503 9.99321496,14.8817741 C11.0349264,14.4930558 11.9669264,13.9542476 12.7892148,13.2655075 C13.6115033,12.5769252 14.2991956,11.7706068 14.8529178,10.8459211 C15.4064835,9.9213932 15.7770924,8.92363537 15.964588,7.8524898 C16.151614,6.78134422 16.1301725,5.78358639 15.8999505,4.85890068 C15.669259,3.93453061 15.2635925,3.12773878 14.6823251,2.43931429" id="Fill-2" fill="#FFFFFF"></path>
                    <polygon id="Fill-4" fill="#FFFFFF" points="39.1511191 11.8884376 31.6253173 11.8884376 32.0599376 9.40177633 39.3393972 9.40177633 39.894528 6.22653279 32.6152249 6.22653279 33.0366986 3.81641578 40.5625004 3.81641578 41.1176312 0.641172245 29.8740026 0.641172245 27.3522032 15.0635233 38.6009966 15.062892"></polygon>
                    <polygon id="Fill-6" fill="#FFFFFF" points="65.0505292 9.29421986 60.7066739 0.641251156 56.9890035 0.641251156 54.4672042 15.0636022 58.1848745 15.0636022 59.7267827 6.41063347 64.0704816 15.0636022 67.7692146 15.0636022 70.291014 0.641251156 66.5924375 0.641251156"></polygon>
                    <path d="M76.5207959,11.7927336 C76.0734985,12.0351499 75.382363,12.1562003 74.4464504,12.1562003 L73.1403984,12.1562003 L73.6754963,9.09569415 L74.9815483,9.09569415 C75.9174609,9.09569415 76.566183,9.21721796 76.92881,9.45916082 C77.2909675,9.70141932 77.4252506,10.0904533 77.3316593,10.6257894 C77.2379116,11.1614411 76.9674672,11.5506329 76.5207959,11.7927336 L76.5207959,11.7927336 Z M74.6522573,3.51033361 L75.8257477,3.51033361 C76.9887522,3.51033361 77.4891055,3.97591184 77.3263381,4.90659483 C77.1635707,5.83775129 76.50045,6.3031717 75.337289,6.3031717 L74.1637985,6.3031717 L74.6522573,3.51033361 Z M81.0440084,10.8745186 C81.1197579,10.4412941 81.1405733,10.0328479 81.1062983,9.65044245 C81.0715537,9.26787918 80.9646593,8.92366694 80.7842066,8.61749007 C80.6035974,8.31147102 80.3452041,8.05327238 80.0090268,7.84305197 C79.6728495,7.63251592 79.2482456,7.47627102 78.7347457,7.37415946 C79.3238386,7.04273088 79.7899168,6.63775673 80.1328239,6.15971048 C80.475418,5.68150639 80.7104917,5.07877986 80.837732,4.35200435 C81.0472951,3.15365333 80.8665293,2.23543837 80.2949653,1.5976751 C79.7237143,0.96006966 78.7804458,0.641266939 77.4651599,0.641266939 L71.4361923,0.641266939 L68.9142364,15.0634601 L75.3797024,15.0634601 C76.1386055,15.0634601 76.8370968,14.9744479 77.4750199,14.7956343 C78.1134124,14.6172941 78.6754295,14.3494683 79.1613842,13.9924724 C79.6474953,13.6356343 80.0530053,13.1956234 80.3786966,12.6724397 C80.7039184,12.1498873 80.925689,11.5506329 81.0440084,10.8745186 L81.0440084,10.8745186 Z" id="Fill-8" fill="#FFFFFF"></path>
                    <path d="M103.202961,6.26475755 C102.917335,6.16280381 102.627328,6.06732082 102.333094,5.97799293 C102.038861,5.88866503 101.779059,5.78355483 101.553845,5.66218884 C101.328318,5.54129633 101.154282,5.39767728 101.031581,5.23180517 C100.908723,5.06624871 100.869752,4.85587048 100.914357,4.60067048 C100.978838,4.23104871 101.183236,3.93118476 101.526769,3.70170993 C101.870303,3.4722351 102.282229,3.35749769 102.763019,3.35749769 C103.142236,3.35749769 103.520044,3.43719837 103.897226,3.5964419 C104.273939,3.75600109 104.63547,4.00141605 104.98229,4.33284463 L106.973687,1.40617252 C106.332164,1.02376707 105.643063,0.733845986 104.906541,0.535935782 C104.169705,0.338656871 103.447268,0.239543946 102.739074,0.239543946 C101.980327,0.239543946 101.274167,0.354281361 100.621063,0.583914014 C99.9671759,0.813388844 99.3924817,1.13550585 98.8965106,1.54979156 C98.4002265,1.9642351 97.9845435,2.46169361 97.6493053,3.04185143 C97.3135975,3.62216707 97.0836885,4.2692419 96.9589523,4.98323374 C96.8340596,5.69754122 96.8414155,6.28716844 96.9814893,6.75258884 C97.1212502,7.21816707 97.3445859,7.60372898 97.6516529,7.90974803 C97.9584068,8.21576707 98.3265116,8.46165551 98.7559672,8.64630857 C99.1849532,8.83127728 99.6263033,8.9999902 100.080331,9.15323646 C100.460486,9.29354122 100.782735,9.42090449 101.047232,9.53548408 C101.311572,9.65037932 101.520509,9.77474395 101.674356,9.90857796 C101.827889,10.0425698 101.92868,10.1891875 101.976884,10.3485888 C102.024775,10.5083059 102.029783,10.6961154 101.992065,10.9128065 C101.929306,11.2698024 101.724907,11.588763 101.379027,11.8693725 C101.032676,12.1498242 100.556269,12.2899712 99.9491775,12.2899712 C99.4179923,12.2899712 98.9015188,12.1689208 98.400383,11.9265045 C97.8989341,11.6845616 97.413449,11.3144664 96.9442407,10.8171657 L94.822317,13.839163 C96.1756341,14.9234079 97.7561996,15.4653725 99.564483,15.4653725 C100.437167,15.4653725 101.238483,15.347163 101.969059,15.1113752 C102.699477,14.8755875 103.339122,14.5440011 103.887992,14.1167739 C104.437019,13.6897045 104.887134,13.1763059 105.238649,12.5768936 C105.589851,11.9776392 105.830246,11.3083113 105.959521,10.5685943 C106.151399,9.47203918 106.025254,8.58270585 105.582026,7.90027864 C105.138484,7.21816707 104.345619,6.67304599 103.202961,6.26475755" id="Fill-10" fill="#FFFFFF"></path>
                    <path d="M25.437182,0.239496599 C24.4380404,0.239496599 23.450637,0.427779592 22.474189,0.803872109 C21.498054,1.18028027 20.6067459,1.70267483 19.8005777,2.37216054 C18.9940965,3.04180408 18.3048391,3.83881088 17.732336,4.76318095 C17.1595199,5.68786667 16.7763904,6.70456327 16.5823216,7.81421769 C16.3884093,8.92355646 16.4181456,9.94672381 16.6713742,10.8840354 C16.9249157,11.8213469 17.3363729,12.6312952 17.9063719,13.313249 C18.4762144,13.9956762 19.1804964,14.5248571 20.0187486,14.9007918 C20.8570008,15.2768844 21.7695939,15.4653252 22.7560583,15.4653252 C23.2363787,15.4653252 23.7317238,15.4171891 24.241624,15.3217061 C24.7515242,15.2260653 25.3088461,15.0759755 25.9134331,14.8722259 L26.316439,14.7383918 L27.0924013,10.3007211 C25.9653935,11.3210476 24.8073973,11.8309741 23.6190386,11.8309741 C23.0753329,11.8309741 22.5871871,11.7290204 22.1550709,11.5247973 C21.7227983,11.3210476 21.3639274,11.0404381 21.0789279,10.6832844 C20.7933024,10.3264463 20.5950079,9.9056898 20.4840443,9.42069932 C20.3724547,8.93634014 20.3671335,8.40715918 20.4676111,7.83331429 C20.565741,7.27225306 20.7549582,6.74954286 21.035732,6.2647102 C21.3161927,5.7801932 21.6581608,5.36275102 22.0611667,5.01175238 C22.4638595,4.66138503 22.9200778,4.3840898 23.429978,4.17970884 C23.9400348,3.97595918 24.472785,3.8736898 25.0293244,3.8736898 C26.293902,3.8736898 27.2633071,4.40318639 27.9384789,5.46139048 L28.721171,0.985526531 C28.1586844,0.730642177 27.6131006,0.542517007 27.0841065,0.421308844 C26.5552689,0.300258503 26.0062419,0.239496599 25.437182,0.239496599" id="Fill-12" fill="#FFFFFF"></path>
                    <path d="M94.0576858,12.0371701 C93.4548203,11.9206966 92.2761651,11.8559891 90.2672396,12.321883 L90.7251795,15.118351 L94.6898181,15.118351 L94.0576858,12.0371701 Z" id="Fill-14" fill="#FFFFFF"></path>
                    <path d="M93.894308,11.1922639 L93.2507507,8.01544218 C92.291988,8.03138231 91.0914218,8.17515918 89.6028825,8.54130884 C89.4393325,8.58155374 89.273122,8.62400816 89.1026857,8.66961905 C88.2766411,8.8910449 87.5113212,9.04113469 86.8172121,9.14135238 L88.9923482,4.96156463 L89.459835,7.75819048 C90.9483743,7.39204082 92.1489405,7.24826395 93.1077031,7.23232381 L91.7675326,0.696078912 L87.7085202,0.696078912 L79.7427769,15.1184299 L83.7071024,15.1184299 L85.136169,12.3719918 C86.3282838,12.2916599 87.7761313,12.0874367 89.4183606,11.6471102 C89.6581295,11.583034 89.8844388,11.5277959 90.1037053,11.4769769 C92.1127873,11.011083 93.291286,11.0757905 93.894308,11.1922639" id="Fill-16" fill="#FFFFFF"></path>
                    <path d="M113.793783,6.34521578 C110.842997,7.09961034 108.599311,7.02843211 107.618637,6.93799946 L107.093556,10.0378035 C107.372921,10.058794 107.699395,10.0763124 108.072038,10.0832566 C109.525833,10.1100865 111.660121,9.98082939 114.232629,9.32333823 C116.673044,8.6994634 118.110093,8.73828789 118.849119,8.85744435 L119.376392,5.74454095 C118.137481,5.61701986 116.334206,5.69577361 113.793783,6.34521578" id="Fill-18" fill="#FFFFFF"></path>
                    <g transform="translate(107.676905, 0.000000)">
                        <mask id="mask-2" fill="white">
                            <use xlink:href="#path-1"></use>
                        </mask>
                        <g id="Clip-21"></g>
                        <path d="M6.88016295,0.76436898 C4.06100003,1.48498939 1.88774204,1.45216218 0.844152502,1.36914721 L0.0569216429,6.12798803 C0.746961575,6.19111728 2.05755227,6.24288327 3.79446839,6.00883156 L4.07132951,4.34979483 C5.04574289,4.23474177 6.13518902,4.04503837 7.31900894,3.74249143 C9.92125298,3.07726694 11.381934,3.16564789 12.0724435,3.30106014 L12.6011245,0.179476463 C11.359397,0.0311227211 9.51762109,0.0901485714 6.88016295,0.76436898" id="Fill-20" fill="#FFFFFF" mask="url(#mask-2)"></path>
                    </g>
                    <g transform="translate(106.111834, 10.574150)">
                        <mask id="mask-4" fill="white">
                            <use xlink:href="#path-3"></use>
                        </mask>
                        <g id="Clip-23"></g>
                        <path d="M6.97079623,1.15122503 C6.03848326,1.38953796 5.17753754,1.54499374 4.40392281,1.64394884 L4.65793388,0.121586939 C3.57427851,0.243110748 2.63789636,0.271834558 1.88541008,0.257788299 C1.52074847,0.251001905 1.2008479,0.23411483 0.925708367,0.213755646 L0.134408322,4.83292299 C0.441162296,4.85896381 0.81380577,4.88121687 1.2490521,4.88926585 C2.70284682,4.91609578 4.83697803,4.78683864 7.40964222,4.12918966 C9.709984,3.5412985 11.1183917,3.54208762 11.8912239,3.64388354 L12.4174008,0.538082177 C11.1834986,0.42981551 9.42044582,0.524982857 6.97079623,1.15122503" id="Fill-22" fill="#FFFFFF" mask="url(#mask-4)"></path>
                    </g>
                </g>
            </g>
        </g>
    </g>
</svg>