<?xml version="1.0" standalone="no"?><!DOCTYPE svg PUBLIC "-//W3C//DTD SVG 1.1//EN" "http://www.w3.org/Graphics/SVG/1.1/DTD/svg11.dtd"><svg t="1697439616269" class="icon" viewBox="0 0 1024 1024" version="1.1" xmlns="http://www.w3.org/2000/svg" p-id="8597" width="16" height="16"><path d="M920.868571 710.144a119.954286 119.954286 0 0 0-140.434285 13.970286l-57.563429-33.572572V524.653714a48.128 48.128 0 0 0-23.917714-41.691428l-147.748572-85.650286V323.876571a122.441143 122.441143 0 0 0 82.651429-116.004571c0-67.730286-54.491429-122.514286-121.709714-122.514286-67.291429 0-121.709714 54.784-121.709715 122.514286 0 53.906286 34.523429 99.620571 82.578286 116.004571v73.435429l-147.748571 85.577143a48.128 48.128 0 0 0-23.917715 41.691428V690.468571l-57.563428 33.572572a119.954286 119.954286 0 0 0-140.434286-14.043429 123.172571 123.172571 0 0 0-44.470857 167.277715 120.393143 120.393143 0 0 0 165.302857 44.836571 122.88 122.88 0 0 0 58.294857-129.901714l52.882286-31.012572 152.722286 88.649143a47.835429 47.835429 0 0 0 47.835428 0l152.649143-88.502857 52.882286 30.939429a123.099429 123.099429 0 0 0 58.221714 129.974857 120.246857 120.246857 0 0 0 165.376-44.836572 123.099429 123.099429 0 0 0-44.178286-167.277714z" p-id="8598" fill="#36CFC9"></path></svg>