<?xml version="1.0" standalone="no"?><!DOCTYPE svg PUBLIC "-//W3C//DTD SVG 1.1//EN" "http://www.w3.org/Graphics/SVG/1.1/DTD/svg11.dtd"><svg t="1732169128922" class="icon" viewBox="0 0 1024 1024" version="1.1" xmlns="http://www.w3.org/2000/svg" p-id="7915" xmlns:xlink="http://www.w3.org/1999/xlink" width="200" height="200"><path d="M109.6192 521.6256s95.232 50.688 191.488 106.496l22.2208 12.9024c40.5504 23.808 79.9232 47.9232 111.104 68.864 0 0 2.2528 1.8432 0.9728 3.84 0 0-0.9728 1.6896-2.6112 1.6896l-122.4192 0.4096h-49.0496c-10.1376 0-16.5888-0.1024-17.3568-0.256 0 0-23.9104-0.6144-48.128-10.496l-1.6384-0.512a150.6816 150.6816 0 0 1-77.7216-74.5472 146.944 146.944 0 0 1-6.8608-108.3904z m118.2208-208.384s131.5328 158.72 227.9424 368.128a2.56 2.56 0 0 1-0.6144 2.9184c-1.2288 1.4848-3.0208 0.8192-3.4816 0.6144-35.0208-17.3056-186.368-93.8496-248.832-154.4704l-1.6384-1.4336c-7.4752-6.5024-37.5808-35.4304-39.936-80.2304-5.12-67.84 66.56-135.5776 66.56-135.5776zM452.1472 204.8l0.6144 0.8704c0.4096 0.512 1.024 1.4336 1.7408 2.6112l1.6896 2.8672c14.9504 26.368 65.0752 140.6976 34.048 450.048 0 0 0.1536 2.3552-2.4064 3.1744 0 0-1.4336 0.6656-3.072-1.024-23.552-34.048-132.9664-195.6352-155.136-293.9392 0 0-12.4928-41.728-0.4096-79.5648 0 0 15.7696-60.2624 82.432-77.3632l0.8192-0.2048 5.888-1.28c9.3696-2.048 26.1632-5.4784 33.792-6.1952zM431.616 736.3072c-0.5632-2.2016-3.2256-2.2016-3.2256-2.2016l-251.8016 8.704c27.3408 48.4864 73.3184 86.1696 121.2416 74.5472 33.024-8.3456 107.9808-60.3136 132.608-77.824 1.9968-1.792 1.1776-3.2256 1.1776-3.2256m415.6416 6.5024l-252.0064-8.704s-2.2528 0.1536-2.816 2.048c0 0-0.6656 2.1504 0.9728 3.3792 24.1664 17.152 97.1264 68.096 132.4032 77.9776 0 0 65.0752 22.016 121.4464-74.752m67.1744-221.5936c19.0976 57.3952-5.7344 106.5472-5.4784 106.752-27.648 60.2624-80.9984 77.1584-80.9984 77.1584a152.7296 152.7296 0 0 1-43.3152 9.8816 2252.8 2252.8 0 0 1-58.368 0.4096l-40.448 0.0512h-94.5664c-1.6384 0-2.7136-1.8944-2.7136-1.8944a3.0208 3.0208 0 0 1 1.28-3.584c110.592-74.4448 324.608-188.7744 324.608-188.7744z m-118.272-207.9744s70.912 64.8704 66.4064 135.168c-2.1504 50.5856-41.472 82.0736-41.472 82.0736-62.208 60.2112-212.3264 136.192-248.4224 154.112-1.5872 1.024-3.3792-0.2048-3.3792-0.2048-1.8944-1.5872-0.6656-4.0448-0.6656-4.0448 96.3072-208.896 227.5328-367.104 227.5328-367.104z m-224.256-108.1856c20.48 2.816 39.68 7.6288 39.68 7.6288 66.6624 16.1792 83.2 77.4144 83.2 77.4144 11.6736 32.2048-0.4096 79.5648-0.4096 79.5648-22.2208 97.8944-131.0208 258.4576-155.136 293.376 0 0-1.2288 2.4064-3.6352 1.3824a3.1744 3.1744 0 0 1-2.048-2.816c-28.4672-283.6992 11.4688-403.5584 29.9008-441.856l2.3552-4.6592 2.048-3.7888 1.6896-2.816a34.3552 34.3552 0 0 1 2.3552-3.4304z" fill="#E10011" p-id="7916"></path></svg>