<?xml version="1.0" standalone="no"?><!DOCTYPE svg PUBLIC "-//W3C//DTD SVG 1.1//EN" "http://www.w3.org/Graphics/SVG/1.1/DTD/svg11.dtd"><svg t="1732169120894" class="icon" viewBox="0 0 1024 1024" version="1.1" xmlns="http://www.w3.org/2000/svg" p-id="7611" xmlns:xlink="http://www.w3.org/1999/xlink" width="200" height="200"><path d="M334.208 120c1.984 0 3.968 0.768 5.504 2.176L456.96 234.432h358.976a32 32 0 0 1 32 32l0.064 100.672a352 352 0 0 0-512.448 408.96l-255.616-0.064a32 32 0 0 1-32-32v-592a32 32 0 0 1 32-32z" fill="#1890FF" p-id="7612"></path><path d="M672 320a352 352 0 1 0 0 704 352 352 0 0 0 0-704z" fill="#1890FF" fill-opacity=".12" p-id="7613"></path><path d="M445.696 677.376s120.512 64.192 182.656 105.92c0 0 1.28 1.088 0.576 2.176 0 0-0.576 0.96-1.472 0.96h-5.12l-14.144 0.064-36.544 0.128h-40.64c-5.76 0-9.344 0-9.792-0.128 0 0-13.44-0.32-27.072-5.888a83.84 83.84 0 0 1-48.448-103.232z m66.432-117.184s73.984 89.28 128.256 207.04c0.448 1.024-0.384 1.664-0.384 1.664-0.64 0.832-1.664 0.512-1.92 0.384-19.712-9.792-104.832-52.8-139.968-86.912 0 0-21.888-17.152-23.424-45.952-2.432-32.64 26.88-65.344 35.2-73.984zM638.336 499.2s41.792 53.76 21.44 256.704c0 0 0 1.344-1.408 1.792 0 0-0.768 0.384-1.664-0.576-13.312-19.136-74.816-110.08-87.296-165.312 0 0-7.04-23.488-0.256-44.8 0 0 8.896-33.92 46.4-43.52 0 0 16.64-3.712 22.784-4.288z m-11.584 299.008c-0.32-1.28-1.792-1.28-1.792-1.28l-141.696 4.864c15.424 27.328 41.28 48.512 68.224 41.984 18.56-4.672 60.8-33.92 74.624-43.776 1.088-1.024 0.64-1.792 0.64-1.792m233.792 3.584l-141.76-4.864s-1.28 0.128-1.6 1.152c0 0-0.32 1.216 0.576 1.92 13.632 9.6 54.656 38.272 74.496 43.84 0 0 36.608 12.352 68.288-42.048m37.76-124.672c10.816 32.32-3.2 59.968-3.008 60.096a82.88 82.88 0 0 1-69.952 48.96c-0.768 0.128-10.56 0.192-24.256 0.192h-84.544c-0.896 0-1.536-1.024-1.536-1.024-0.448-1.344 0.704-1.984 0.704-1.984 62.208-41.856 182.592-106.24 182.592-106.24z m-66.56-116.928l2.24 2.112c8.32 8.32 37.376 40 35.2 73.92-1.28 28.416-23.36 46.144-23.36 46.144-34.944 33.92-119.424 76.608-139.712 86.72-0.896 0.576-1.92-0.128-1.92-0.128-1.024-0.896-0.384-2.304-0.384-2.304 54.208-117.504 128-206.464 128-206.464z m-126.08-60.864c11.52 1.536 22.336 4.288 22.336 4.288 37.504 9.088 46.72 43.52 46.72 43.52 6.656 18.112-0.128 44.8-0.128 44.8-12.544 55.04-73.728 145.344-87.296 164.992 0 0-0.64 1.344-2.048 0.768a1.792 1.792 0 0 1-1.152-1.536c-20.352-203.136 21.568-256.96 21.568-256.832z" fill="#E10011" p-id="7614"></path></svg>