<?xml version="1.0" standalone="no"?><!DOCTYPE svg PUBLIC "-//W3C//DTD SVG 1.1//EN" "http://www.w3.org/Graphics/SVG/1.1/DTD/svg11.dtd"><svg t="1732169098820" class="icon" viewBox="0 0 1024 1024" version="1.1" xmlns="http://www.w3.org/2000/svg" p-id="7307" xmlns:xlink="http://www.w3.org/1999/xlink" width="200" height="200"><path d="M620.7488 170.6496A330.8032 330.8032 0 0 0 299.5712 422.4a204.6976 204.6976 0 0 0-154.2656 349.0816 204.4416 204.4416 0 0 0 289.536-0.3584c32.0512-32.1024 50.0736-75.1104 55.296-122.88l-74.1376-5.7856c-16.7936-2.0992-22.1696-14.848-11.9808-28.3648l125.5936-155.392c10.1376-13.5168 23.9616-11.8784 30.6176 3.7888l71.168 173.9776c6.656 15.616-1.7408 26.624-18.5344 24.576l-55.1424-5.0688c-6.2464 57.6512-32.2048 108.544-68.4544 148.8896a330.7008 330.7008 0 1 0 131.4816-634.112z" fill="#FF6900" p-id="7308"></path></svg>