<?xml version="1.0" standalone="no"?><!DOCTYPE svg PUBLIC "-//W3C//DTD SVG 1.1//EN" "http://www.w3.org/Graphics/SVG/1.1/DTD/svg11.dtd"><svg t="1732169117428" class="icon" viewBox="0 0 1024 1024" version="1.1" xmlns="http://www.w3.org/2000/svg" p-id="7458" xmlns:xlink="http://www.w3.org/1999/xlink" width="200" height="200"><path d="M334.208 120c1.984 0 3.968 0.768 5.504 2.176L456.96 234.432h358.976a32 32 0 0 1 32 32l0.064 100.672a352 352 0 0 0-512.448 408.96l-255.616-0.064a32 32 0 0 1-32-32v-592a32 32 0 0 1 32-32z" fill="#1890FF" p-id="7459"></path><path d="M672 320a352 352 0 1 0 0 704 352 352 0 0 0 0-704z" fill="#1890FF" fill-opacity=".12" p-id="7460"></path><path d="M733.184 480a186.112 186.112 0 0 0-180.672 141.568 115.136 115.136 0 1 0 76.096 196.16c18.048-18.048 28.16-42.24 31.104-69.12l-41.728-3.264c-9.408-1.152-12.48-8.32-6.72-16l70.656-87.36c5.696-7.616 13.44-6.656 17.216 2.112l40 97.92c3.776 8.768-0.96 14.976-10.432 13.824l-30.976-2.88a149.504 149.504 0 0 1-38.528 83.712A185.984 185.984 0 1 0 733.184 480z" fill="#FF6900" p-id="7461"></path></svg>