<?xml version="1.0" standalone="no"?><!DOCTYPE svg PUBLIC "-//W3C//DTD SVG 1.1//EN" "http://www.w3.org/Graphics/SVG/1.1/DTD/svg11.dtd"><svg t="1591175627236" class="icon" viewBox="0 0 1024 1024" version="1.1" xmlns="http://www.w3.org/2000/svg" p-id="1775" xmlns:xlink="http://www.w3.org/1999/xlink" width="128" height="128"><defs><style type="text/css"></style></defs><path d="M446 112c8.837 0 16 7.163 16 16v144c0 8.837-7.163 16-16 16h-44v315.999L622 604V288h-44c-8.837 0-16-7.163-16-16V128c0-8.837 7.163-16 16-16h144c8.837 0 16 7.163 16 16v144c0 8.837-7.163 16-16 16h-44v316h139.358V225.818H768V160h86.24c16.296 0 29.494 12.684 29.756 28.48l0.004 0.48V604h28v72h-28v179.04c0 15.858-13.034 28.7-29.267 28.956l-0.493 0.004H169.76c-16.296 0-29.494-12.684-29.756-28.48l-0.004-0.48V675.999L112 676v-72l28-0.001V188.96c0-15.858 13.034-28.7 29.267-28.956l0.493-0.004H256v65.818h-48.364V604H346V288h-44c-8.837 0-16-7.163-16-16V128c0-8.837 7.163-16 16-16h144zM207.636 675.999v143.15h609.722V676l-609.722-0.001zM406 168h-64v64h64v-64z m276 0h-64v64h64v-64z" p-id="1776"></path></svg>