<?xml version="1.0" standalone="no"?><!DOCTYPE svg PUBLIC "-//W3C//DTD SVG 1.1//EN" "http://www.w3.org/Graphics/SVG/1.1/DTD/svg11.dtd"><svg t="1591173597786" class="icon" viewBox="0 0 1024 1024" version="1.1" xmlns="http://www.w3.org/2000/svg" p-id="1641" xmlns:xlink="http://www.w3.org/1999/xlink" width="128" height="128"><defs><style type="text/css"></style></defs><path d="M548 112v28h306.24c16.296 0 29.494 13.034 29.756 29.267l0.004 0.493V476h28v72h-28v306.24c0 16.296-13.034 29.494-29.267 29.756l-0.493 0.004H548v28h-72v-28H169.76c-16.296 0-29.494-13.034-29.756-29.267l-0.004-0.493V547.999L112 548v-72l28-0.001V169.76c0-16.296 13.034-29.494 29.267-29.756l0.493-0.004H476v-28h72zM207.636 547.999v269.36L476 817.357V547.999H207.636zM548 548v269.358h269.358V548H548z m269.358-340.364H548V476h269.358V207.636z m-341.358 0H207.636V476H476V207.636z" p-id="1642"></path></svg>