<?xml version="1.0" standalone="no"?><!DOCTYPE svg PUBLIC "-//W3C//DTD SVG 1.1//EN" "http://www.w3.org/Graphics/SVG/1.1/DTD/svg11.dtd"><svg t="1591175631819" class="icon" viewBox="0 0 1024 1024" version="1.1" xmlns="http://www.w3.org/2000/svg" p-id="1909" xmlns:xlink="http://www.w3.org/1999/xlink" width="128" height="128"><defs><style type="text/css"></style></defs><path d="M854.24 140c16.461 0 29.76 13.299 29.76 29.76v178.239l28 0.001v72l-28-0.001V854.24c0 16.296-13.034 29.494-29.267 29.756l-0.493 0.004H169.76c-16.461 0-29.76-13.299-29.76-29.76V420h-28v-72h28V169.76c0-16.296 13.034-29.494 29.267-29.756l0.493-0.004z m-36.882 279.999H678V584h44c8.837 0 16 7.163 16 16v144c0 8.837-7.163 16-16 16H578c-8.837 0-16-7.163-16-16v-48H462v48c0 8.837-7.163 16-16 16H302c-8.837 0-16-7.163-16-16V600c0-8.837 7.163-16 16-16h44V420H207.636v397.358h609.722V420zM406 640h-64v64h64v-64z m276 0h-64v64h64v-64z m-60-220.001L402 420v164h44c8.837 0 16 7.163 16 16v40h100v-40c0-8.837 7.163-16 16-16h44V419.999z m195.358-212.363H207.636V348l609.722-0.001V207.636z" p-id="1910"></path></svg>