<?xml version="1.0" standalone="no"?><!DOCTYPE svg PUBLIC "-//W3C//DTD SVG 1.1//EN" "http://www.w3.org/Graphics/SVG/1.1/DTD/svg11.dtd"><svg t="1591175934399" class="icon" viewBox="0 0 1024 1024" version="1.1" xmlns="http://www.w3.org/2000/svg" p-id="2043" xmlns:xlink="http://www.w3.org/1999/xlink" width="128" height="128"><defs><style type="text/css"></style></defs><path d="M798 112c61.856 0 112 50.144 112 112s-50.144 112-112 112c-15.28 0-29.846-3.06-43.118-8.6L649.95 419.631C667.665 446.038 678 477.812 678 512c0 34.188-10.335 65.962-28.051 92.368l105.585 92.806C769.164 691.272 784.2 688 800 688c61.856 0 112 50.144 112 112s-50.144 112-112 112-112-50.144-112-112c0-19.62 5.045-38.062 13.909-54.099l-104.282-91.66C572.627 669.322 543.327 678 512 678c-31.326 0-60.626-8.677-85.627-23.76l-104.282 91.661C330.955 761.938 336 780.38 336 800c0 61.856-50.144 112-112 112s-112-50.144-112-112 50.144-112 112-112c15.8 0 30.835 3.272 44.466 9.174l105.585-92.806C356.335 577.962 346 546.188 346 512c0-34.188 10.335-65.962 28.051-92.368l-105.585-92.806C254.836 332.728 239.8 336 224 336c-61.856 0-112-50.144-112-112s50.144-112 112-112 112 50.144 112 112c0 19.62-5.045 38.062-13.909 54.099l104.282 91.66c25-15.082 54.3-23.759 85.627-23.759 31.326 0 60.626 8.677 85.627 23.76l102.942-90.483C691.296 262.967 686 244.102 686 224c0-61.856 50.144-112 112-112z m2 640c-26.51 0-48 21.49-48 48s21.49 48 48 48 48-21.49 48-48-21.49-48-48-48z m-576 0c-26.51 0-48 21.49-48 48s21.49 48 48 48 48-21.49 48-48-21.49-48-48-48z m288-342c-56.333 0-102 45.667-102 102s45.667 102 102 102 102-45.667 102-102-45.667-102-102-102z m286-234c-26.51 0-48 21.49-48 48s21.49 48 48 48 48-21.49 48-48-21.49-48-48-48z m-574 0c-26.51 0-48 21.49-48 48s21.49 48 48 48 48-21.49 48-48-21.49-48-48-48z" p-id="2044"></path></svg>