<?xml version="1.0" standalone="no"?><!DOCTYPE svg PUBLIC "-//W3C//DTD SVG 1.1//EN" "http://www.w3.org/Graphics/SVG/1.1/DTD/svg11.dtd"><svg t="1720403812222" class="icon" viewBox="0 0 1024 1024" version="1.1" xmlns="http://www.w3.org/2000/svg" p-id="7320" xmlns:xlink="http://www.w3.org/1999/xlink" width="16" height="16"><path d="M930.56 579.136c-14.272-12.288-32.64-14.336-51.072-8.192a170.24 170.24 0 0 1-44.992 6.144A827.008 827.008 0 0 0 926.464 358.4c10.24-34.752 16.384-71.488 16.384-110.336a116.992 116.992 0 0 0-22.528-85.824A262.272 262.272 0 0 0 707.84 62.08h-6.144c-34.752 0-69.504 6.144-102.208 14.336h-2.048a332.672 332.672 0 0 0-63.36-6.144 207.68 207.68 0 0 0-114.432 28.608 409.92 409.92 0 0 0-157.376-24.512c-49.024 0-98.112 20.416-132.8 55.168-36.8 38.784-55.232 98.112-53.12 181.888 4.032 36.8 10.176 73.6 18.368 108.288 12.224 53.12 26.56 104.256 44.928 155.328A347.584 347.584 0 0 0 211.2 703.808c16.32 16.32 38.848 26.56 63.36 28.608 18.368 0 34.752-8.192 49.024-20.48 12.288 14.336 28.608 22.528 47.04 26.624 24.512 6.08 49.024 8.128 73.6 4.032 12.16-1.984 22.4-6.08 32.64-10.24 0 12.288 0 24.576 2.048 36.864-2.048 36.736 4.096 71.488 14.336 106.24 4.032 20.48 14.272 38.848 28.608 55.168a115.84 115.84 0 0 0 104.192 28.608c38.848-6.08 75.648-26.56 98.112-57.216 26.56-36.8 38.848-91.968 40.896-179.84 0-4.096 1.984-8.192 1.984-12.224h6.144a234.944 234.944 0 0 0 100.16-16.384c24.512-10.24 46.976-26.56 63.36-49.024 4.096-8.192 8.192-16.384 10.24-24.512a44.416 44.416 0 0 0-16.384-40.96m-12.288 46.976c-13.44 17.92-32 31.488-53.12 38.848a200.96 200.96 0 0 1-77.632 14.336c-12.288 0-24.512-2.048-36.8-4.096-6.144 51.072-10.24 102.144-20.48 153.28-1.984 24.512-14.272 49.024-30.592 69.44-20.48 18.432-44.992 30.72-71.552 32.704a98.56 98.56 0 0 1-85.824-16.32c-14.336-12.288-24.512-30.72-32.704-49.088a213.888 213.888 0 0 1-8.192-34.688c-2.048-18.432-4.096-36.8-4.096-53.12-2.048-32.768-2.048-63.36-2.048-94.08a126.464 126.464 0 0 1-57.216 28.608c-20.416 4.096-42.88 2.048-63.36-4.032a72.64 72.64 0 0 1-18.368-8.192c-8.192-2.048-12.288-8.192-16.32-14.336-2.048-4.032-4.096-10.24-2.048-14.272 2.048-4.096 4.096-10.24 8.128-12.288 10.24-6.144 20.48-10.24 32.704-12.224a168.32 168.32 0 0 0 42.88-12.288c8.256-6.144 14.336-14.272 20.48-22.464v-2.048c-18.368 0-34.752-6.144-51.072-12.288-6.144 6.144-32.704 34.752-69.504 77.696a68.352 68.352 0 0 1-49.024 28.608 66.56 66.56 0 0 1-47.04-20.48c-30.656-34.688-51.072-75.584-65.344-118.528a1590.144 1590.144 0 0 1-40.96-155.264 893.76 893.76 0 0 1-18.304-102.208c-4.096-77.696 14.272-128.768 44.928-161.472 30.656-30.656 71.552-46.976 116.48-49.024a396.48 396.48 0 0 1 161.472 28.608 201.984 201.984 0 0 1 108.288-30.72c20.48 0 42.88 4.16 63.36 8.256 8.192-4.096 18.432-6.144 28.608-8.192 26.56-6.144 51.136-8.192 77.696-10.24a245.952 245.952 0 0 1 200.256 91.968c12.288 20.48 18.368 47.04 16.32 71.552a613.888 613.888 0 0 1-16.32 104.192 836.416 836.416 0 0 1-108.288 243.2c2.048 2.048 4.032 2.048 6.08 4.096 28.608 6.144 57.216 6.144 85.888-2.048 10.24-4.096 22.4-2.048 32.64 2.048 4.096 4.096 8.192 10.24 8.192 16.384-6.144 0-6.144 6.08-8.192 10.24" fill="#000000" p-id="7321"></path><path d="M703.744 111.104H697.6c-20.48 0-42.88 2.048-63.36 8.192 40.896 18.432 77.632 49.088 106.24 83.84 16.384 22.4 30.72 44.928 42.88 71.488 4.16 10.24 8.256 18.368 10.24 24.512 0 4.096 2.112 6.144 2.112 10.24v6.144c1.984 32.64-8.192 53.12-8.192 85.76 0 22.528 6.144 49.088 6.144 77.696 4.032 30.72-4.096 61.312-20.48 85.824 2.048 2.048 4.096 4.096 4.096 6.144 42.88-69.504 77.696-145.088 98.112-224.768 8.192-32.704 14.272-65.408 14.272-98.112 2.048-18.432-2.048-36.8-10.24-55.168-40.832-55.168-106.24-83.84-175.68-81.792" fill="#306092" p-id="7322"></path><path d="M528 119.296a139.456 139.456 0 0 0-98.112 32.704c-24.576 20.48-40.896 49.024-53.12 77.632-10.24 28.672-16.384 59.264-18.432 89.92 16.32-8.128 32.64-14.272 51.072-18.368 18.432-4.096 38.848-4.096 57.216 2.048 20.48 8.192 34.752 26.56 38.848 49.024 26.56 120.576-8.192 165.568-20.48 202.368a129.92 129.92 0 0 0-12.16 36.8c1.984 0 4.032 0 6.08-2.048 6.144 0 14.336 2.048 20.48 4.032 12.8 6.016 22.4 17.152 26.496 30.72 1.472 3.2 2.176 6.72 2.048 10.24v6.08a1622.4 1622.4 0 0 0 0 140.992c0 18.432 2.048 34.752 4.096 53.12 0 10.24 2.048 18.432 6.144 28.672 4.096 14.272 12.288 26.56 24.512 36.736 12.288 10.24 30.72 16.384 63.36 10.24 20.48-2.048 40.896-12.288 57.216-26.56 12.288-16.384 20.48-34.752 22.464-55.168 8.192-38.848 20.48-153.28 22.528-173.76 0-12.224 2.048-26.56 8.128-36.736a44.8 44.8 0 0 1 20.48-18.432c4.096-2.048 6.144-2.048 10.24-4.096-4.096-4.032-6.144-8.128-10.24-12.224a167.04 167.04 0 0 1-24.512-40.896c-4.096-6.144-6.144-12.224-10.24-18.368-6.144-10.24-10.24-20.48-18.368-32.704a397.376 397.376 0 0 1-34.752-85.824c-8.192-30.72-10.24-59.264 10.24-81.792 16.32-18.368 46.976-28.608 91.904-22.4-2.048-4.16-2.048-8.256-4.096-12.288a191.68 191.68 0 0 0-38.784-65.408c-44.992-61.312-116.48-96.064-192.128-98.112l-8.192-6.144" fill="#306092" p-id="7323"></path><path d="M278.656 121.344H264.32c-36.8 0-73.6 14.336-98.112 40.896-26.56 26.56-44.928 71.488-40.832 147.136 4.096 32.64 10.24 65.408 16.32 98.112 10.24 51.072 24.512 100.096 42.88 149.12a320.64 320.64 0 0 0 59.328 110.4c6.144 8.192 16.32 12.288 28.608 12.288a48.448 48.448 0 0 0 30.656-18.432c22.464-26.56 44.928-53.12 67.456-75.584a123.968 123.968 0 0 1-42.944-118.528c2.048-24.576 4.096-49.088 4.096-75.648 0-20.48-2.048-32.64-2.048-40.896v-1.984c0-42.944 8.192-85.888 22.464-126.72 10.24-28.608 26.56-55.168 49.088-77.696a390.656 390.656 0 0 0-108.352-20.416c-6.144-2.048-10.24-2.048-14.272-2.048m482.304 277.952c2.048-32.704 8.128-53.12 8.128-75.648-10.24-2.048-18.368-2.048-28.608-2.048-16.32-2.048-32.64 4.096-46.976 14.336-10.24 10.24-10.24 32.64-6.144 59.264 8.192 28.608 18.368 55.168 32.704 79.68 6.144 12.288 12.288 22.528 16.384 32.704 4.032 6.144 8.128 14.336 10.24 20.48 1.984 4.032 4.032 10.24 8.128 12.224 8.192-20.48 12.224-40.832 10.24-61.312 1.984-24.512-4.096-53.12-4.096-79.68m-14.336-61.312c0 2.048 0 4.096-2.048 6.144s-2.048 4.096-4.096 6.08c-4.096 4.096-10.24 6.144-14.272 8.192-6.144 0-10.24 0-14.336-4.096-2.048-2.048-4.096-2.048-6.08-4.096-2.048 0-2.048-1.984-2.048-4.032s0-4.096 1.984-6.144l4.096-4.096a39.424 39.424 0 0 1 20.48-6.144h10.24c1.984 0 4.032 2.048 6.08 2.048v6.144" fill="#306092" p-id="7324"></path><path d="M478.912 356.352a40.576 40.576 0 0 0-24.512-32.64c-6.144-2.112-12.288-2.112-18.432-2.112-8.128 0-14.272 2.048-22.4 2.048-14.336 4.096-28.672 10.24-42.944 16.384a54.272 54.272 0 0 0-12.288 10.24c0 6.08 2.048 18.368 2.048 36.736 0 26.56 0 53.12-4.096 77.696-10.24 55.168 26.56 106.24 81.728 116.48 4.096 0 6.144 0 10.24 2.048 4.096-12.288 10.24-26.56 12.288-40.896 12.224-36.8 42.88-67.456 18.368-185.984m-14.336 2.048l-6.08 6.144a15.936 15.936 0 0 1-16.384 4.096 23.68 23.68 0 0 1-14.272-10.24c-2.048-2.048-4.096-4.096-4.096-6.144-4.096-4.032-4.096-6.08-4.096-8.128 0-4.096 4.096-6.144 8.192-8.192s8.128-2.048 10.24-2.048h6.08a18.56 18.56 0 0 1 14.336 6.144c2.048 2.048 4.096 2.048 6.08 4.096 2.048 2.048 2.048 4.096 2.048 8.128-2.048 2.048-2.048 4.096-2.048 6.144m312.704 253.44c-4.096 2.048-8.192 2.048-12.224 2.048a35.84 35.84 0 0 0-10.24 8.128 102.784 102.784 0 0 0-4.096 24.576c2.048 2.048 4.096 2.048 6.144 2.048 8.192 2.048 18.368 4.032 28.608 4.032a199.04 199.04 0 0 0 69.504-12.224c12.224-6.144 24.512-12.288 34.688-22.464-53.12 10.24-79.68 8.128-98.048 0a99.584 99.584 0 0 1-14.336-6.144m-300.416 4.096c-2.048 0-6.144 0-10.24 8.128-12.224 14.336-16.32 24.576-28.608 32.704-16.32 10.24-32.64 16.384-53.12 18.432a23.232 23.232 0 0 0-16.32 6.144l2.048 1.984c4.032 2.048 10.24 4.096 12.224 6.144 16.384 4.096 34.752 6.144 53.12 4.096 24.576-4.096 47.04-18.368 59.264-38.848a15.36 15.36 0 0 0 0-18.368 28.8 28.8 0 0 0-12.224-14.336c0-6.08-4.096-6.08-6.144-6.08" fill="#306092" p-id="7325"></path></svg>