<?xml version="1.0" standalone="no"?><!DOCTYPE svg PUBLIC "-//W3C//DTD SVG 1.1//EN" "http://www.w3.org/Graphics/SVG/1.1/DTD/svg11.dtd"><svg t="1684980215572" class="icon" viewBox="0 0 1024 1024" version="1.1" xmlns="http://www.w3.org/2000/svg" p-id="5982" xmlns:xlink="http://www.w3.org/1999/xlink" width="16" height="16"><path d="M0 0m128 0l768 0q128 0 128 128l0 768q0 128-128 128l-768 0q-128 0-128-128l0-768q0-128 128-128Z" fill="#1890FF" p-id="5983"></path><path d="M777.312 386.016L527.36 283.552c-7.52-3.2-15.04-4.288-23.616-4.288a61.44 61.44 0 0 0-23.616 4.288L230.08 386.016c-8.576 3.2-12.864 10.688-12.864 19.2 0 8.576 5.376 16.032 12.864 19.232l250.016 102.496c7.52 3.2 15.04 4.288 23.616 4.288s16.096-1.088 23.616-4.288l249.984-102.496c8.608-3.2 12.896-10.656 12.896-19.2 1.056-8.544-4.288-16-12.896-19.2z m0 213.536l-81.536-34.176-167.392 68.32c-7.52 3.2-15.04 4.288-23.616 4.288s-16.096-1.088-23.584-4.288l-167.392-68.32-82.624 34.176c-8.576 3.2-12.896 10.656-12.896 19.2 0 8.544 5.376 16 12.896 19.2l250.016 102.496c7.488 3.2 15.04 4.288 23.584 4.288 8.608 0 16.096-1.088 23.616-4.288l250.016-102.464c8.576-3.2 12.864-10.688 12.864-19.2 0-8.576-5.344-16.032-13.952-19.232z" fill="#FFFFFF" p-id="5984"></path><path d="M777.28 485.408l-81.696-35.456-167.68 70.912a56.32 56.32 0 0 1-23.68 4.448 56.32 56.32 0 0 1-23.648-4.448l-167.68-70.912-82.784 35.456c-8.608 3.328-12.896 11.072-12.896 19.936s5.376 16.64 12.896 19.968l250.464 106.368c7.552 3.328 15.04 4.448 23.68 4.448 8.576 0 16.096-1.12 23.648-4.448l250.464-106.368c8.608-3.328 12.896-11.104 12.896-19.968a21.248 21.248 0 0 0-13.952-19.936z" fill="#FFFFFF" opacity=".5" p-id="5985"></path></svg>