<?xml version="1.0" standalone="no"?><!DOCTYPE svg PUBLIC "-//W3C//DTD SVG 1.1//EN" "http://www.w3.org/Graphics/SVG/1.1/DTD/svg11.dtd"><svg t="1647581497604" class="icon" viewBox="0 0 1024 1024" version="1.1" xmlns="http://www.w3.org/2000/svg" p-id="3403" xmlns:xlink="http://www.w3.org/1999/xlink" width="200" height="200"><defs><style type="text/css">@font-face { font-family: feedback-iconfont; src: url("//at.alicdn.com/t/font_1031158_u69w8yhxdu.woff2?t=1630033759944") format("woff2"), url("//at.alicdn.com/t/font_1031158_u69w8yhxdu.woff?t=1630033759944") format("woff"), url("//at.alicdn.com/t/font_1031158_u69w8yhxdu.ttf?t=1630033759944") format("truetype"); }
</style></defs><path d="M180 478.5h228a8 8 0 0 1 8 8v52a8 8 0 0 1-8 8H180V766h228a8 8 0 0 1 8 8v52a8 8 0 0 1-8 8H154c-23.196 0-42-18.804-42-42V232c0-23.196 18.804-42 42-42h126.122a8 8 0 0 1 8 8v52a8 8 0 0 1-8 8H180v220.5zM392 160h512a8 8 0 0 1 8 8v112a8 8 0 0 1-8 8H392a8 8 0 0 1-8-8V168a8 8 0 0 1 8-8z m128 288h384a8 8 0 0 1 8 8v112a8 8 0 0 1-8 8H520a8 8 0 0 1-8-8V456a8 8 0 0 1 8-8z m0 288h384a8 8 0 0 1 8 8v112a8 8 0 0 1-8 8H520a8 8 0 0 1-8-8V744a8 8 0 0 1 8-8z" p-id="3404"></path></svg>