<?xml version="1.0" standalone="no"?><!DOCTYPE svg PUBLIC "-//W3C//DTD SVG 1.1//EN" "http://www.w3.org/Graphics/SVG/1.1/DTD/svg11.dtd"><svg class="icon" width="32px" height="32.00px" viewBox="0 0 1024 1024" version="1.1" xmlns="http://www.w3.org/2000/svg"><path fill="currentColor" d="M539.776 291.072h-49.664a7.36 7.36 0 0 0-7.36 7.36v253.568c0 2.368 1.088 4.544 3.072 5.952l152.192 111.168a7.36 7.36 0 0 0 10.304-1.6l28.48-44.48a7.232 7.232 0 0 0-1.6-10.368l-128-93.696V298.432a7.36 7.36 0 0 0-7.424-7.36zM523.776 115.2a394.88 394.88 0 0 1 312.064 152.128l-2.24-2.688 60.544-42.368a8 8 0 0 1 12.224 4.288l0.32 2.688-10.496 180.288a8 8 0 0 1-10.304 7.232l-173.056-51.904a8 8 0 0 1-2.24-14.208l60.672-42.496 4.928-3.392a325.12 325.12 0 0 0-378.88-93.952 325.12 325.12 0 0 0-103.616 69.888 323.584 323.584 0 0 0-69.888 103.552 323.136 323.136 0 0 0-25.6 126.912c0 44.032 8.576 86.784 25.408 126.784a326.592 326.592 0 0 0 173.504 173.504c40.128 17.024 82.816 25.6 126.784 25.6a324.288 324.288 0 0 0 230.4-95.488 323.584 323.584 0 0 0 75.456-117.504 7.36 7.36 0 0 1 9.28-4.416l52.224 17.92c3.84 1.408 5.888 5.76 4.48 9.6A395.904 395.904 0 0 1 128.192 515.2 395.264 395.264 0 0 1 523.84 115.2z" /></svg>