<?xml version="1.0" standalone="no"?><!DOCTYPE svg PUBLIC "-//W3C//DTD SVG 1.1//EN" "http://www.w3.org/Graphics/SVG/1.1/DTD/svg11.dtd"><svg t="1732169136715" class="icon" viewBox="0 0 1024 1024" version="1.1" xmlns="http://www.w3.org/2000/svg" p-id="8219" xmlns:xlink="http://www.w3.org/1999/xlink" width="200" height="200"><path d="M102.4 102.4h819.2v819.2H102.4z" fill="#367D1F" p-id="8220"></path><path d="M512 376.9856c-123.8528 0-256-23.1936-256-73.2672C256 253.5936 389.376 230.4 512 230.4s256 22.016 256 73.3184-132.1472 73.2672-256 73.2672z m0-122.1632c-150.016 0-232.192 31.744-232.192 48.896 0 17.1008 82.176 48.8448 232.192 48.8448s232.192-31.744 232.192-48.8448c0-17.1008-82.176-48.896-232.192-48.896z m233.3696 46.4384l20.224 3.6864-23.04 169.3184 2.3552 1.3312c32.0512 18.6368 44.6464 37.9904 37.8368 58.0608-3.1232 9.216-19.3536 10.3936-48.64 3.584l-24.4736 179.4048a50.5344 50.5344 0 0 1-36.864 42.752c-9.5744 4.864-71.4752 34.2016-160.768 34.2016-80.9472 0-151.1936-30.5664-160.768-35.4304-20.224-4.864-34.5088-22.016-38.0928-42.752l-55.9616-408.064v-4.864l20.2752-1.2288v2.4576c2.3552 6.0928 23.808 50.0736 228.608 50.0736 220.2624 0 239.3088-52.5312 239.3088-52.5312z m-3.584 32.9728c-28.5696 19.5584-92.8768 40.3456-234.5472 40.3456-133.376 0-195.2768-18.3296-225.024-36.6592l51.2 376.2688c1.1776 12.2368 10.7008 23.1936 23.808 25.6512l2.3552 1.2288c1.2288 0 71.4752 34.2016 152.4224 34.2016 90.4704 0 151.1936-32.9728 152.4224-34.2016l2.3552-1.2288c11.9296-2.4576 21.4528-13.4144 23.808-25.6512l24.576-181.8624c-39.2192-11.264-95.3856-32.9728-168.5504-65.024a38.4512 38.4512 0 1 1 5.376-19.6096l-8.8064-3.584c79.3088 34.5088 137.4208 58.0096 174.336 70.4512l24.2688-180.3264z m-1.6896 159.0272l-3.7376 27.2384c18.2784 5.2224 28.0576 5.9904 29.2352 2.3552 3.072-9.216-5.4272-19.0976-25.4976-29.5936z" fill="#FFFFFF" p-id="8221"></path></svg>