<?xml version="1.0" standalone="no"?><!DOCTYPE svg PUBLIC "-//W3C//DTD SVG 1.1//EN" "http://www.w3.org/Graphics/SVG/1.1/DTD/svg11.dtd"><svg t="1732169141306" class="icon" viewBox="0 0 1024 1024" version="1.1" xmlns="http://www.w3.org/2000/svg" p-id="8371" xmlns:xlink="http://www.w3.org/1999/xlink" width="200" height="200"><path d="M334.208 120c1.984 0 3.968 0.768 5.504 2.176L456.96 234.432h358.976a32 32 0 0 1 32 32l0.064 100.672a352 352 0 0 0-512.448 408.96l-255.616-0.064a32 32 0 0 1-32-32v-592a32 32 0 0 1 32-32z" fill="#1890FF" p-id="8372"></path><path d="M672 320a352 352 0 1 0 0 704 352 352 0 0 0 0-704z" fill="#1890FF" fill-opacity=".12" p-id="8373"></path><path d="M467.2 467.2h409.6v409.6H467.2z" fill="#367D1F" p-id="8374"></path><path d="M672 604.48c-61.888 0-128-11.584-128-36.608 0-25.088 66.688-36.672 128-36.672s128 11.008 128 36.672c0 25.6-66.112 36.608-128 36.608z m0-61.056c-75.008 0-116.096 15.872-116.096 24.448 0 8.512 41.088 24.384 116.096 24.384 75.008 0 116.096-15.872 116.096-24.384 0-8.576-41.088-24.448-116.096-24.448z m116.672 23.232l10.112 1.792-11.52 84.736 3.84 2.24c14.08 8.832 19.456 17.92 16.256 27.392-1.536 4.608-9.6 5.248-24.32 1.856l-12.16 89.6a25.28 25.28 0 0 1-18.56 21.44 187.072 187.072 0 0 1-80.32 17.088 204.416 204.416 0 0 1-80.384-17.728 25.92 25.92 0 0 1-19.008-21.376l-28.032-204.032v-2.432l10.112-0.64v1.28c1.216 3.008 11.904 25.024 114.304 25.024 100.992 0 117.44-22.08 119.424-25.728z m-1.792 16.448c-14.272 9.792-46.4 20.16-117.248 20.16-66.688 0-97.664-9.152-112.512-18.304l25.6 188.16a14.72 14.72 0 0 0 11.904 12.8l1.152 0.64c0.64 0 35.712 17.088 76.224 17.088 45.248 0 75.584-16.512 76.16-17.088l1.28-0.64a16.256 16.256 0 0 0 11.84-12.8l12.352-90.944c-19.648-5.632-47.744-16.512-84.352-32.512a19.2 19.2 0 1 1 2.752-9.792l-4.48-1.792c39.68 17.28 68.8 28.992 87.296 35.2l12.032-90.176z" fill="#FFFFFF" p-id="8375"></path></svg>