<?xml version="1.0" standalone="no"?><!DOCTYPE svg PUBLIC "-//W3C//DTD SVG 1.1//EN" "http://www.w3.org/Graphics/SVG/1.1/DTD/svg11.dtd"><svg t="1714457793975" class="icon" viewBox="0 0 1024 1024" version="1.1" xmlns="http://www.w3.org/2000/svg" p-id="6824" xmlns:xlink="http://www.w3.org/1999/xlink" width="200" height="200"><path d="M866.889143 169.910857L527.067429 54.125714A49.152 49.152 0 0 0 512 51.931429c-5.485714 0-10.971429 0.731429-15.067429 2.194285L157.110857 169.910857a23.990857 23.990857 0 0 0-15.140571 21.211429v482.377143c0 8.777143 5.705143 20.406857 12.653714 25.892571l344.649143 268.580571c3.510857 2.706286 8.045714 4.096 12.653714 4.096a20.48 20.48 0 0 0 12.580572-4.096l344.722285-268.580571a37.229714 37.229714 0 0 0 12.580572-25.892571V191.122286a23.552 23.552 0 0 0-14.921143-21.211429zM694.491429 340.699429L481.865143 633.417143a16.091429 16.091429 0 0 1-25.965714 0L329.508571 459.337143a8.045714 8.045714 0 0 1 6.509715-12.653714h55.149714c5.12 0 10.020571 2.486857 13.019429 6.582857l64.731428 89.014857 150.893714-207.725714a16.091429 16.091429 0 0 1 13.019429-6.656h55.149714c6.582857 0.073143 10.313143 7.533714 6.582857 12.8z" fill="#52C41A" p-id="6825"></path></svg>