<?xml version="1.0" encoding="UTF-8"?>
<svg width="14px" height="12px" viewBox="0 0 14 12" version="1.1" xmlns="http://www.w3.org/2000/svg" xmlns:xlink="http://www.w3.org/1999/xlink">
    <!-- Generator: Sketch 61.2 (89653) - https://sketch.com -->
    <title>ordered list</title>
    <desc>Created with Sketch.</desc>
    <g id="ODC2.1-20200204" stroke="none" stroke-width="1" fill-rule="evenodd" opacity="0.65">
        <g id="sequnece管理查看1" transform="translate(-13.000000, -224.000000)" fill-rule="nonzero">
            <g id="ordered-list" transform="translate(12.000000, 222.000000)">
                <rect id="矩形" opacity="0" x="0" y="0" width="16" height="16"></rect>
                <path d="M14.375,11.875 L5.25,11.875 C5.18125,11.875 5.125,11.93125 5.125,12 L5.125,12.875 C5.125,12.94375 5.18125,13 5.25,13 L14.375,13 C14.44375,13 14.5,12.94375 14.5,12.875 L14.5,12 C14.5,11.93125 14.44375,11.875 14.375,11.875 Z M14.375,3 L5.25,3 C5.18125,3 5.125,3.05625 5.125,3.125 L5.125,4 C5.125,4.06875 5.18125,4.125 5.25,4.125 L14.375,4.125 C14.44375,4.125 14.5,4.06875 14.5,4 L14.5,3.125 C14.5,3.05625 14.44375,3 14.375,3 Z M14.375,7.4375 L5.25,7.4375 C5.18125,7.4375 5.125,7.49375 5.125,7.5625 L5.125,8.4375 C5.125,8.50625 5.18125,8.5625 5.25,8.5625 L14.375,8.5625 C14.44375,8.5625 14.5,8.50625 14.5,8.4375 L14.5,7.5625 C14.5,7.49375 14.44375,7.4375 14.375,7.4375 Z M3.375,11.125 L1.5625,11.125 C1.528125,11.125 1.5,11.153125 1.5,11.1875 L1.5,11.71875 C1.5,11.753125 1.528125,11.78125 1.5625,11.78125 L2.69375,11.78125 L2.69375,12.1015625 L2.1359375,12.1015625 C2.1015625,12.1015625 2.0734375,12.1296875 2.0734375,12.1640625 L2.0734375,12.6953125 C2.0734375,12.7296875 2.1015625,12.7578125 2.1359375,12.7578125 L2.69375,12.7578125 L2.69375,13.09375 L1.5625,13.09375 C1.528125,13.09375 1.5,13.121875 1.5,13.15625 L1.5,13.6875 C1.5,13.721875 1.528125,13.75 1.5625,13.75 L3.375,13.75 C3.409375,13.75 3.4375,13.721875 3.4375,13.6875 L3.4375,11.1875 C3.4375,11.153125 3.409375,11.125 3.375,11.125 Z M1.5625,2.9375 L2.15625,2.9375 L2.15625,4.8125 C2.15625,4.846875 2.184375,4.875 2.21875,4.875 L2.84375,4.875 C2.878125,4.875 2.90625,4.846875 2.90625,4.8125 L2.90625,2.375 C2.90625,2.30625 2.85,2.25 2.78125,2.25 L1.5625,2.25 C1.528125,2.25 1.5,2.278125 1.5,2.3125 L1.5,2.875 C1.5,2.909375 1.528125,2.9375 1.5625,2.9375 Z M3.375,6.6875 L1.5625,6.6875 C1.528125,6.6875 1.5,6.715625 1.5,6.75 L1.5,7.3125 C1.5,7.346875 1.528125,7.375 1.5625,7.375 L2.63125,7.375 L1.5328125,8.5890625 C1.5125,8.6125 1.5,8.6421875 1.5,8.6734375 L1.5,9.25 C1.5,9.284375 1.528125,9.3125 1.5625,9.3125 L3.375,9.3125 C3.409375,9.3125 3.4375,9.284375 3.4375,9.25 L3.4375,8.6875 C3.4375,8.653125 3.409375,8.625 3.375,8.625 L2.30625,8.625 L3.4046875,7.4109375 C3.425,7.3875 3.4375,7.3578125 3.4375,7.3265625 L3.4375,6.75 C3.4375,6.715625 3.409375,6.6875 3.375,6.6875 L3.375,6.6875 Z" id="形状"></path>
            </g>
        </g>
    </g>
</svg>