<svg t="1698378089148" class="icon" viewBox="0 0 1088 1024" version="1.1" xmlns="http://www.w3.org/2000/svg" p-id="6457" width="200" height="200"><path d="M274.56 472.384l-54.656-12.608c-61.184-14.208-87.68-34.752-87.68-70.656 0-44.608 39.04-73.536 96.896-73.536 52.8 0 91.392 26.496 99.84 68.928h70.016C391.936 308.608 323.584 256 229.376 256 126.08 256 58.432 311.488 58.432 395.008c0 68.608 38.592 109.44 122.176 128.512l61.568 14.272c63.616 14.912 91.648 37.12 91.648 75.136 0 44.096-43.52 75.2-102.528 75.2-60.608 0-104.512-27.2-112.768-70.528H46.976c7.232 79.872 75.648 130.368 179.136 130.368 112.192 0 180.864-55.744 180.864-145.664 0-70.208-38.592-108.48-132.352-129.92z m701.44 253.632a35.968 35.968 0 1 0 72 0 35.968 35.968 0 0 0-72 0z m-39.04-271.232h-51.392v-61.76a8 8 0 0 0-7.936-8h-54.72a8 8 0 0 0-8 8v61.76h-35.904a8 8 0 0 0-8 8v42.304c0 4.416 3.584 8 8 8h35.84v147.52c0 56.192 27.456 79.36 93.184 79.36 11.648 0 23.552-1.152 33.792-3.072a3.84 3.84 0 0 0 3.2-3.84v-49.344a4.032 4.032 0 0 0-4.032-4.032h-0.384l-8.32 0.832a161.6 161.6 0 0 1-12.608 0.512c-24.064 0-34.048-10.304-34.048-35.648V513.088h51.392a8 8 0 0 0 8-8v-42.24a8 8 0 0 0-8-8.064z" fill="#000000" fill-opacity=".65" p-id="6458"></path><path d="M515.2 593.728a129.92 129.92 0 0 0 26.88 60.8c6.656 8.32 14.4 14.912 23.168 19.84a55.872 55.872 0 0 0 27.84 7.424c36.288 0 61.632-20.864 75.968-62.528h71.872a160.896 160.896 0 0 1-54.784 93.76 141.44 141.44 0 0 1-43.648 24.832 147.648 147.648 0 0 1-49.408 8.448c-24.192 0-45.888-4.864-65.152-14.464a158.464 158.464 0 0 1-49.728-38.656 170.368 170.368 0 0 1-31.936-56.448A209.408 209.408 0 0 1 435.2 568.32c0-22.4 3.712-43.712 11.072-63.872 7.424-20.16 17.92-38.016 31.616-53.44a149.632 149.632 0 0 1 114.56-50.752c23.296 0 44.352 4.16 63.168 12.416 18.816 8.32 34.816 19.712 48 34.304 13.248 14.528 23.424 31.808 30.592 51.712 7.168 19.968 10.752 41.6 10.752 64.896v30.208H515.2z m149.824-59.776a79.808 79.808 0 0 0-23.872-49.088c-13.184-12.544-30.592-18.816-52.096-18.816-9.408 0-18.24 1.792-26.496 5.376a69.76 69.76 0 0 0-21.824 14.784c-6.336 6.272-11.52 13.44-15.808 21.504a93.12 93.12 0 0 0-9.088 26.24h149.184z" fill="#000000" fill-opacity=".65" p-id="6459"></path></svg>