<?xml version="1.0" standalone="no"?><!DOCTYPE svg PUBLIC "-//W3C//DTD SVG 1.1//EN" "http://www.w3.org/Graphics/SVG/1.1/DTD/svg11.dtd"><svg t="1629783784531" class="icon" viewBox="0 0 1024 1024" version="1.1" xmlns="http://www.w3.org/2000/svg" p-id="32485" xmlns:xlink="http://www.w3.org/1999/xlink" width="200" height="200"><defs><style type="text/css"></style></defs><path d="M464 144H160a16 16 0 0 0-16 16v304c0 8.832 7.168 16 16 16h304a16 16 0 0 0 16-16V160a16 16 0 0 0-16-16z m-52.032 268.032H212.032V212.032h200.064v199.936zM864 144H560a16 16 0 0 0-16 16v304c0 8.832 7.232 16 16 16h304a16 16 0 0 0 16-16V160a16 16 0 0 0-16-16z m-52.032 268.032H612.032V212.032h199.936v199.936zM464 544H160a16 16 0 0 0-16 16v304c0 8.768 7.168 16 16 16h304a16 16 0 0 0 16-16V560a16 16 0 0 0-16-16z m-52.032 268.032H212.032V611.968h200.064v200.064zM864 544H560a16 16 0 0 0-16 16v304c0 8.768 7.232 16 16 16h304a16 16 0 0 0 16-16V560a16 16 0 0 0-16-16z m-52.032 268.032H612.032V611.968h199.936v200.064z" p-id="32486"></path></svg>