<svg t="1716164760838" class="icon" viewBox="64 64 896 896" version="1.1" xmlns="http://www.w3.org/2000/svg" p-id="10866" width="1em" height="1em"><path d="M911.232 888.96l-154.624-154.368a387.84 387.84 0 0 0 65.088-104.384c20.48-48.384 30.912-99.904 30.912-152.96a390.4 390.4 0 0 0-115.136-277.632 391.68 391.68 0 0 0-277.568-115.008 392.768 392.768 0 0 0-348.928 211.84 33.92 33.92 0 1 0 60.288 31.36 324.16 324.16 0 0 1 288.512-175.36 325.12 325.12 0 0 1 324.8 324.864 324.992 324.992 0 0 1-324.672 324.672 323.968 323.968 0 0 1-288.64-175.616 33.92 33.92 0 1 0-60.288 31.36 394.688 394.688 0 0 0 142.08 153.344c61.952 38.528 133.568 58.88 206.848 58.88 52.992 0 104.512-10.368 152.896-30.848a347.52 347.52 0 0 0 89.408-54.656l154.752 153.216c6.592 6.592 38.4 19.2 54.272 3.008a36.032 36.032 0 0 0 0-51.648z" p-id="10867"></path><path d="M486.08 648.768c5.44 9.152 15.36 14.72 25.92 14.72l2.56-0.064a30.592 30.592 0 0 0 25.6-19.2l54.912-142.08h30.848a30.144 30.144 0 1 0 0-60.416h-51.392a30.08 30.08 0 0 0-28.224 19.264l-40.128 103.808-143.168-239.488a30.08 30.08 0 0 0-51.52-0.64L221.824 466.56h-87.68a30.144 30.144 0 1 0 0 60.416h104.256a30.08 30.08 0 0 0 25.472-14.08l72.448-114.432 149.76 250.368z" p-id="10868"></path></svg>