<?xml version="1.0" standalone="no"?><!DOCTYPE svg PUBLIC "-//W3C//DTD SVG 1.1//EN" "http://www.w3.org/Graphics/SVG/1.1/DTD/svg11.dtd"><svg t="1606378068819" class="icon" viewBox="0 0 1024 1024" version="1.1" xmlns="http://www.w3.org/2000/svg" p-id="2377" xmlns:xlink="http://www.w3.org/1999/xlink" width="200" height="200"><defs><style type="text/css"></style></defs><path d="M513 500c127.025 0 230 102.975 230 230S640.025 960 513 960 283 857.025 283 730s102.975-230 230-230z m0 72c-87.261 0-158 70.739-158 158s70.739 158 158 158 158-70.739 158-158-70.739-158-158-158z m36.12-316l62.308 0.195c6.329 0 9.833 7.4 5.94 12.27L535.691 372H743v72H283v-72h207.401l-81.768-103.632c-3.846-4.905-0.476-12.183 5.703-12.27h62.447L549.12 256zM548 64v192h-72V64h72z" p-id="2378"></path></svg>