<?xml version="1.0" standalone="no"?><!DOCTYPE svg PUBLIC "-//W3C//DTD SVG 1.1//EN" "http://www.w3.org/Graphics/SVG/1.1/DTD/svg11.dtd"><svg class="icon" width="32px" height="32.00px" viewBox="0 0 1024 1024" version="1.1" xmlns="http://www.w3.org/2000/svg"><path fill="currentColor" d="M160 800h704a32 32 0 0 1 32 32v19.2a32 32 0 0 1-32 32h-704a32 32 0 0 1-32-32V832a32 32 0 0 1 32-32zM450.176 128a32 32 0 0 1 32-32h32a32 32 0 0 1 32 32v320h181.376a12.8 12.8 0 0 1 9.984 20.8l-214.4 267.968a32 32 0 0 1-49.92 0l-214.4-267.968A12.8 12.8 0 0 1 268.8 448h181.376V128z" /></svg>