<?xml version="1.0" standalone="no"?><!DOCTYPE svg PUBLIC "-//W3C//DTD SVG 1.1//EN" "http://www.w3.org/Graphics/SVG/1.1/DTD/svg11.dtd"><svg class="icon" width="200px" height="200.00px" viewBox="0 0 1024 1024" version="1.1" xmlns="http://www.w3.org/2000/svg"><path fill="#333333" d="M512 444c127.025 0 230 102.975 230 230S639.025 904 512 904 282 801.025 282 674s102.975-230 230-230z m0 72c-87.261 0-158 70.739-158 158s70.739 158 158 158 158-70.739 158-158-70.739-158-158-158zM593 197.88l0.195-62.308c0-6.329 7.4-9.833 12.27-5.94l124.65 98.332c3.895 3.018 3.798 8.86 0 11.975l-124.747 98.428c-4.967 3.894-12.368 0.39-12.27-5.939v-62.211L593 197.88zM653 270H353v-72h300z" /></svg>