<?xml version="1.0" standalone="no"?><!DOCTYPE svg PUBLIC "-//W3C//DTD SVG 1.1//EN" "http://www.w3.org/Graphics/SVG/1.1/DTD/svg11.dtd"><svg class="icon" width="32px" height="32.00px" viewBox="0 0 1024 1024" version="1.1" xmlns="http://www.w3.org/2000/svg"><path fill="currentColor" d="M160 800h704a32 32 0 0 1 32 32v19.2a32 32 0 0 1-32 32h-704a32 32 0 0 1-32-32V832a32 32 0 0 1 32-32z m122.624-403.2a12.8 12.8 0 0 1-9.984-20.8l214.4-267.968a32 32 0 0 1 49.92 0l214.4 267.968a12.8 12.8 0 0 1-9.984 20.8H560v320a32 32 0 0 1-32 32h-32a32 32 0 0 1-32-32v-320z" /></svg>