<?xml version="1.0" standalone="no"?><!DOCTYPE svg PUBLIC "-//W3C//DTD SVG 1.1//EN" "http://www.w3.org/Graphics/SVG/1.1/DTD/svg11.dtd"><svg class="icon" width="32px" height="32.00px" viewBox="0 0 1024 1024" version="1.1" xmlns="http://www.w3.org/2000/svg"><path fill="currentColor" d="M518.528 459.008a8 8 0 0 0-12.608 0l-112 141.696a8 8 0 0 0 6.272 12.928h73.92v242.368c0 4.416 3.584 8 8 8h59.968a8 8 0 0 0 8-8V613.696h74.112c6.72 0 10.432-7.68 6.336-12.928l-112-141.76zM811.584 366.72A320.128 320.128 0 0 0 512.384 160a320 320 0 0 0-299.2 206.592 200.064 200.064 0 0 0 50.944 393.408h40.064a8 8 0 0 0 8-8v-60.032a8 8 0 0 0-8-7.936h-40.064A123.968 123.968 0 0 1 166.4 483.584c16.704-21.376 40.128-36.864 66.112-43.776l37.888-9.856 13.888-36.608a245.632 245.632 0 0 1 88.128-113.28 242.112 242.112 0 0 1 139.968-44.224c50.56 0 98.944 15.296 140.032 44.16a245.76 245.76 0 0 1 88.064 113.28l13.824 36.544 37.76 9.984c54.208 14.656 92.16 63.936 92.16 120.128 0 33.088-12.928 64.32-36.352 87.68a123.072 123.072 0 0 1-87.552 36.352h-40.128a8 8 0 0 0-8 7.936v60.032c0 4.416 3.584 8 8 8h40.128a199.936 199.936 0 0 0 51.264-393.28z" /></svg>