<?xml version="1.0" encoding="UTF-8"?>
<svg width="16px" height="16px" viewBox="0 0 16 16" version="1.1" fill="currentColor" xmlns="http://www.w3.org/2000/svg" xmlns:xlink="http://www.w3.org/1999/xlink">
    <g id="页面-1" stroke="none" stroke-width="1" fill="none" fill-rule="evenodd">
        <g id="2.1-项目/数据源-“元数据同步”icon" transform="translate(-268.000000, -14.000000)" fill="currentColor">
            <g id="同步" transform="translate(268.000000, 14.000000)">
                <rect id="矩形" fill-rule="nonzero" opacity="0" x="0" y="0" width="16" height="16"></rect>
                <path d="M14.4375,8 C14.5078125,8 14.5640625,8.0578125 14.5625318,8.128125 C14.4953125,11.6921875 11.584375,14.5625 8.003125,14.5625 C5.903125,14.5625 4.034375,13.5765625 2.8328125,12.040625 L1.9515625,12.7296875 C1.8703125,12.7953125 1.75,12.7359375 1.75,12.63125 L1.7609375,9.803125 C1.7609375,9.7234375 1.8375,9.6640625 1.915625,9.6828125 L4.6609375,10.3546875 C4.7625,10.3796875 4.790625,10.5109375 4.7078125,10.575 L3.7671875,11.309375 C3.9015625,11.48125 4.046875,11.6453125 4.2015625,11.8 C4.6953125,12.2953125 5.2703125,12.6828125 5.909375,12.953125 C6.571875,13.2328125 7.275,13.375 8.0015625,13.375 C8.728125,13.375 9.43125,13.2328125 10.09375,12.953125 C10.734375,12.6828125 11.309375,12.29375 11.803125,11.8 C12.296875,11.30625 12.684375,10.73125 12.9546875,10.090625 C13.21875,9.4671875 13.359375,8.8046875 13.375,8.121875 C13.3765625,8.0546875 13.43125,8 13.5,8 Z M8.07619962,4.80006706 C9.47668834,4.80351344 10.9152322,5.4652222 10.9152322,6.30673565 L10.9152322,9.75470117 C10.9152322,10.5662109 9.3122517,11.2839868 8.02767824,11.2839868 C6.74310479,11.2839868 5.29962002,10.5658306 5.30000008,9.75470117 L5.30000008,6.30673565 C5.30000008,5.45830108 6.66419243,4.79659233 8.07619962,4.80006706 Z M9.95593041,9.4 C9.48248637,9.67037647 8.73904614,9.80575485 8.06291482,9.80575485 C7.3867835,9.80575485 6.64296299,9.67037647 6.16989923,9.4 L6.16989923,9.67037647 C6.16989923,9.87306376 6.84603055,10.2788186 8.06291482,10.2788186 C9.27979909,10.2788186 9.95593041,9.87306376 9.95593041,9.67037647 L9.95593041,9.4 Z M9.95593041,8.33903734 C9.48248637,8.60941381 8.73904614,8.74479218 8.06291482,8.74479218 C7.3867835,8.74479218 6.64296299,8.60941381 6.16989923,8.33903734 L6.16989923,8.60941381 C6.16989923,8.8121011 6.84603055,9.21785594 8.06291482,9.21785594 C9.27979909,9.21785594 9.95593041,8.8121011 9.95593041,8.60941381 L9.95593041,8.33903734 Z M9.95593041,7.18984225 C9.48248637,7.46021873 8.73904614,7.5955971 8.06291482,7.5955971 C7.3867835,7.5955971 6.64296299,7.46021873 6.16989923,7.18984225 L6.16989923,7.46021873 C6.16989923,7.66290601 6.84603055,8.06866086 8.06291482,8.06866086 C9.27979909,8.06866086 9.95593041,7.66290601 9.95593041,7.46021873 L9.95593041,7.18984225 Z M7.996875,1.4375 C10.096875,1.4375 11.965625,2.4234375 13.1671875,3.9609375 L14.0484375,3.271875 C14.1296875,3.20625 14.25,3.265625 14.25,3.3703125 L14.2375,6.196875 C14.2375,6.2765625 14.1609375,6.3359375 14.0828125,6.3171875 L11.3375,5.6453125 C11.2359375,5.6203125 11.2078125,5.4890625 11.290625,5.425 L12.23125,4.690625 C12.096875,4.51875 11.9515625,4.3546875 11.796875,4.2 C11.303125,3.7046875 10.728125,3.3171875 10.0890625,3.046875 C9.428125,2.7671875 8.725,2.625 7.9984375,2.625 C7.271875,2.625 6.56875,2.7671875 5.90625,3.046875 C5.265625,3.3171875 4.690625,3.7046875 4.196875,4.2 C3.703125,4.6953125 3.315625,5.26875 3.0453125,5.909375 C2.78125,6.5328125 2.640625,7.1953125 2.625,7.878125 C2.6234375,7.9453125 2.56875,8 2.5,8 L1.5625,8 C1.4921875,8 1.4359375,7.9421875 1.43746822,7.871875 C1.5046875,4.30625 4.4171875,1.4375 7.996875,1.4375 Z M8.06291482,5.76 C6.84603055,5.76 6.07566808,6.19449138 6.07566808,6.39717867 C6.07566808,6.59986596 6.84603055,7.00838987 8.06291482,7.00838987 C9.27979909,7.00838987 10.1167316,6.59986596 10.1167316,6.39717867 C10.1167316,6.19449138 9.27979909,5.76 8.06291482,5.76 Z" id="形状结合" fill-opacity="0.65"></path>
            </g>
        </g>
    </g>
</svg>