<?xml version="1.0" standalone="no"?><!DOCTYPE svg PUBLIC "-//W3C//DTD SVG 1.1//EN" "http://www.w3.org/Graphics/SVG/1.1/DTD/svg11.dtd"><svg t="1609402649936" class="icon" viewBox="0 0 1024 1024" version="1.1" xmlns="http://www.w3.org/2000/svg" p-id="2304" xmlns:xlink="http://www.w3.org/1999/xlink" width="32" height="32"><defs><style type="text/css"></style></defs><path d="M619.998 304v0.536h127V304H883.5c16.403 0 29.731 13.164 29.996 29.504l0.004 0.496v540c0 16.403-13.164 29.731-29.504 29.996l-0.496 0.004h-540c-16.403 0-29.731-13.164-29.996-29.504L313.5 874V714h-0.002v-59.46h0.002V334c0-16.403 13.164-29.731 29.504-29.996l0.496-0.004h276.498z m35.042 59.459H372.96l-0.001 0.576h-0.46v447h0.46v33.506h481.082V363.459H714.5v0.576h-59.46v-0.576zM684.5 114c16.403 0 29.731 13.164 29.996 29.504l0.004 0.496v100.535h-59.46v-71.076H173.96v481.082l79.538-0.001V714H144.5c-16.403 0-29.731-13.164-29.996-29.504L114.5 684V144c0-16.403 13.164-29.731 29.504-29.996l0.496-0.004h540z" p-id="2305"></path><path d="M613.62 508.5c-55.228 0-100 44.772-100 100s44.772 100 100 100 100-44.772 100-100-44.772-100-100-100z m0 62.069c20.949 0 37.931 16.982 37.931 37.931 0 20.949-16.982 37.931-37.931 37.931-20.949 0-37.931-16.982-37.931-37.931 0-20.949 16.982-37.931 37.931-37.931z" p-id="2306"></path></svg>