<?xml version="1.0" standalone="no"?><!DOCTYPE svg PUBLIC "-//W3C//DTD SVG 1.1//EN" "http://www.w3.org/Graphics/SVG/1.1/DTD/svg11.dtd"><svg t="1671181951751" class="icon" viewBox="0 0 1024 1024" version="1.1" xmlns="http://www.w3.org/2000/svg" p-id="9879" xmlns:xlink="http://www.w3.org/1999/xlink" width="200" height="200"><path d="M879.981714 236.836571h-110.811428V120.027429a8.045714 8.045714 0 0 0-8.045715-8.045715H648.045714a8.045714 8.045714 0 0 0-7.972571 8.045715v116.809142h-256V120.027429a8.045714 8.045714 0 0 0-8.045714-8.045715H266.386286a8.045714 8.045714 0 0 0-8.045715 8.045715v116.809142H144.091429a31.963429 31.963429 0 0 0-32.036572 32.036572v611.108571c0 17.700571 14.336 32.036571 32.036572 32.036572H879.908571a31.963429 31.963429 0 0 0 32.036572-32.036572V268.873143a31.963429 31.963429 0 0 0-32.036572-32.036572zM694.491429 432.713143L481.865143 725.430857a16.091429 16.091429 0 0 1-25.965714 0l-126.390858-174.08a8.045714 8.045714 0 0 1 6.509715-12.653714h55.149714c5.12 0 10.020571 2.486857 13.019429 6.582857l64.731428 89.014857 150.893714-207.725714a16.091429 16.091429 0 0 1 13.019429-6.656h55.149714c6.582857 0.073143 10.313143 7.460571 6.582857 12.8z" p-id="9880"></path></svg>