<?xml version="1.0" standalone="no"?><!DOCTYPE svg PUBLIC "-//W3C//DTD SVG 1.1//EN" "http://www.w3.org/Graphics/SVG/1.1/DTD/svg11.dtd"><svg t="1647581490830" class="icon" viewBox="0 0 1024 1024" version="1.1" xmlns="http://www.w3.org/2000/svg" p-id="3273" xmlns:xlink="http://www.w3.org/1999/xlink" width="200" height="200"><defs><style type="text/css">@font-face { font-family: feedback-iconfont; src: url("//at.alicdn.com/t/font_1031158_u69w8yhxdu.woff2?t=1630033759944") format("woff2"), url("//at.alicdn.com/t/font_1031158_u69w8yhxdu.woff?t=1630033759944") format("woff"), url("//at.alicdn.com/t/font_1031158_u69w8yhxdu.ttf?t=1630033759944") format("truetype"); }
</style></defs><path d="M804 640h104c8.837 0 16 7.163 16 16v288c0 8.837-7.163 16-16 16H620c-8.837 0-16-7.163-16-16V656c0-8.837 7.163-16 16-16h112v-88H292v88h112c8.837 0 16 7.163 16 16v288c0 8.837-7.163 16-16 16H116c-8.837 0-16-7.163-16-16V656c0-8.837 7.163-16 16-16h104V488a8 8 0 0 1 8-8h248v-96H368c-8.837 0-16-7.163-16-16V80c0-8.837 7.163-16 16-16h288c8.837 0 16 7.163 16 16v288c0 8.837-7.163 16-16 16H548v96h248a8 8 0 0 1 8 8v152zM428 140v168h168V140H428zM176 716v168h168V716H176z m504 0v168h168V716H680z" p-id="3274"></path></svg>