<?xml version="1.0" standalone="no"?><!DOCTYPE svg PUBLIC "-//W3C//DTD SVG 1.1//EN" "http://www.w3.org/Graphics/SVG/1.1/DTD/svg11.dtd"><svg t="1684980212342" class="icon" viewBox="0 0 1024 1024" version="1.1" xmlns="http://www.w3.org/2000/svg" p-id="5828" xmlns:xlink="http://www.w3.org/1999/xlink" width="16" height="16"><path d="M0 0m128 0l768 0q128 0 128 128l0 768q0 128-128 128l-768 0q-128 0-128-128l0-768q0-128 128-128Z" fill="#1890FF" p-id="5829"></path><path d="M341.344 640v-298.656H298.656C275.2 341.344 256 360.544 256 384v341.344C256 748.8 275.2 768 298.656 768H640c23.456 0 42.656-19.2 42.656-42.656v-42.688H384c-23.456 0-42.656-19.2-42.656-42.656z" fill="#FFFFFF" opacity=".5" p-id="5830"></path><path d="M682.656 384H341.344v256c0 23.456 19.2 42.656 42.656 42.656h341.344c23.456 0 42.656-19.2 42.656-42.656v-256h-85.344z" fill="#FFFFFF" p-id="5831"></path><path d="M725.344 256H384c-23.456 0-42.656 19.2-42.656 42.656V384H768V298.656C768 275.2 748.8 256 725.344 256zM416 341.344a21.408 21.408 0 0 1-21.344-21.344c0-11.744 9.6-21.344 21.344-21.344h192c11.744 0 21.344 9.6 21.344 21.344 0 11.744-9.6 21.344-21.344 21.344h-192z m277.344 0A21.408 21.408 0 0 1 672 320c0-11.744 9.6-21.344 21.344-21.344 11.712 0 21.312 9.6 21.312 21.344 0 11.744-9.6 21.344-21.312 21.344z" fill="#FFFFFF" opacity=".5" p-id="5832"></path><path d="M693.344 298.656c-11.744 0-21.344 9.6-21.344 21.344 0 11.744 9.6 21.344 21.344 21.344 11.712 0 21.312-9.6 21.312-21.344 0-11.744-9.6-21.344-21.312-21.344z m-85.344 0h-192c-11.744 0-21.344 9.6-21.344 21.344 0 11.744 9.6 21.344 21.344 21.344h192c11.744 0 21.344-9.6 21.344-21.344 0-11.744-9.6-21.344-21.344-21.344z" fill="#FFFFFF" p-id="5833"></path></svg>