<svg t="1716164788899" class="icon" viewBox="0 0 1024 1024" version="1.1" xmlns="http://www.w3.org/2000/svg" p-id="11009" width="200" height="200"><path d="M864 296v-128a8.128 8.128 0 0 0-8.192-8H168.192a8.128 8.128 0 0 0-8.192 8v128c0 4.416 3.712 8 8.192 8h57.28c4.48 0 8.192-3.584 8.192-8v-64h237.44v560H376.96a8.128 8.128 0 0 0-8.192 8v56c0 4.416 3.648 8 8.192 8h270.08c4.48 0 8.192-3.584 8.192-8V800a8.128 8.128 0 0 0-8.192-8H552.96v-560h237.376v64c0 4.416 3.648 8 8.192 8h57.28c4.48 0 8.192-3.584 8.192-8z" p-id="11010"></path></svg>