<svg t="1716164884511" class="icon" viewBox="0 0 1024 1024" version="1.1" xmlns="http://www.w3.org/2000/svg" p-id="11293" width="200" height="200"><path d="M594.176 640.64v257.088c0 7.872 6.4 14.272 14.336 14.272h257.216c7.872 0 14.272-6.4 14.272-14.272v-257.152c0-7.872-6.4-14.272-14.272-14.272h-92.928v-135.68c0-3.904-3.2-7.104-7.04-7.104H544.128v-85.76h96.512c7.872 0 14.272-6.4 14.272-14.272V126.272c0-7.872-6.4-14.272-14.272-14.272H383.488c-7.872 0-14.272 6.4-14.272 14.272v257.152c0 7.872 6.4 14.272 14.272 14.272H480v85.76H258.56c-3.968 0-7.168 3.2-7.168 7.04v135.68H158.528c-7.936 0-14.336 6.4-14.336 14.336v257.088c0 7.872 6.4 14.272 14.336 14.272h256.96c7.936 0 14.336-6.4 14.336-14.272v-257.024c0-7.872-6.4-14.272-14.336-14.272H315.52V547.712h392.96v78.592H608.512c-7.936 0-14.336 6.4-14.336 14.272z m217.92 53.44v150.016h-150.08v-150.016h150.08z m-375.04-364.16V179.84h149.952v150.016H436.992z m-75.136 364.16v150.016H211.776v-150.016h150.144z" p-id="11294"></path></svg>