<?xml version="1.0" standalone="no"?><!DOCTYPE svg PUBLIC "-//W3C//DTD SVG 1.1//EN" "http://www.w3.org/Graphics/SVG/1.1/DTD/svg11.dtd"><svg t="1609402664635" class="icon" viewBox="0 0 1024 1024" version="1.1" xmlns="http://www.w3.org/2000/svg" p-id="2430" xmlns:xlink="http://www.w3.org/1999/xlink" width="32" height="32"><defs><style type="text/css"></style></defs><path d="M854.24 140H169.76c-16.461 0-29.76 13.299-29.76 29.76v684.48c0 16.461 13.299 29.76 29.76 29.76h684.48c16.461 0 29.76-13.299 29.76-29.76V169.76c0-16.461-13.299-29.76-29.76-29.76z m-36.882 677.358H207.636V207.636h609.722v609.722z" p-id="2431"></path><path d="M678.12 282.5c40.04 0 72.5 32.46 72.5 72.5s-32.46 72.5-72.5 72.5c-10.978 0-21.386-2.44-30.712-6.807L595.86 467c7.073 13.317 11.08 28.51 11.08 44.64 0 16.348-4.116 31.734-11.369 45.18l60.782 52.684a72.47 72.47 0 0 1 21.767-3.324c40.04 0 72.5 32.46 72.5 72.5s-32.46 72.5-72.5 72.5-72.5-32.46-72.5-72.5c0-10.228 2.118-19.96 5.939-28.785l-59.742-51.813c-12.21 5.684-25.822 8.858-40.177 8.858-14.287 0-27.84-3.144-40.005-8.778l-52.328 47.007c5.234 10.023 8.193 21.421 8.193 33.511 0 40.04-32.46 72.5-72.5 72.5s-72.5-32.46-72.5-72.5 32.46-72.5 72.5-72.5c5.543 0 10.941 0.622 16.128 1.8l56.712-50.918c-7.334-13.502-11.5-28.976-11.5-45.422 0-16.487 4.187-31.996 11.555-45.523l-50.385-42.18A72.44 72.44 0 0 1 355 427.5c-40.04 0-72.5-32.46-72.5-72.5s32.46-72.5 72.5-72.5 72.5 32.46 72.5 72.5c0 9.939-2 19.41-5.62 28.035l50.105 41.922c12.074-5.533 25.505-8.617 39.655-8.617 14.612 0 28.456 3.289 40.833 9.166l56.005-50.284A72.533 72.533 0 0 1 605.62 355c0-40.04 32.46-72.5 72.5-72.5zM355 651.18c-15.188 0-27.5 12.312-27.5 27.5s12.312 27.5 27.5 27.5 27.5-12.312 27.5-27.5-12.312-27.5-27.5-27.5z m323.12 0c-15.188 0-27.5 12.312-27.5 27.5s12.312 27.5 27.5 27.5 27.5-12.312 27.5-27.5-12.312-27.5-27.5-27.5zM511.64 461.34c-27.78 0-50.3 22.52-50.3 50.3 0 27.78 22.52 50.3 50.3 50.3 27.78 0 50.3-22.52 50.3-50.3 0-27.78-22.52-50.3-50.3-50.3zM678.12 327.5c-15.188 0-27.5 12.312-27.5 27.5s12.312 27.5 27.5 27.5 27.5-12.312 27.5-27.5-12.312-27.5-27.5-27.5z m-323.12 0c-15.188 0-27.5 12.312-27.5 27.5s12.312 27.5 27.5 27.5 27.5-12.312 27.5-27.5-12.312-27.5-27.5-27.5z" p-id="2432"></path></svg>