<?xml version="1.0" standalone="no"?><!DOCTYPE svg PUBLIC "-//W3C//DTD SVG 1.1//EN" "http://www.w3.org/Graphics/SVG/1.1/DTD/svg11.dtd"><svg class="icon" width="32px" height="32.00px" viewBox="0 0 1024 1024" version="1.1" xmlns="http://www.w3.org/2000/svg"><path fill="currentColor" d="M474.697143 804.571429c-4.900571 0-8.850286-3.657143-8.777143-8.192l0.073143-1.389715 0.365714-1.316571 18.066286-49.152-34.816-101.961143H230.619429l-53.613715 155.648a9.508571 9.508571 0 0 1-6.217143 5.851429L167.716571 804.571429h-84.845714c-5.412571 0-9.801143-4.096-9.728-9.069715l0.073143-1.536 0.438857-1.462857 208.164572-566.857143a9.216 9.216 0 0 1 6.144-5.778285L290.962286 219.428571h102.180571c3.072 0 5.924571 1.462857 7.753143 3.657143l1.462857 2.56 136.192 371.492572 115.565714-314.441143a8.338286 8.338286 0 0 1 5.558858-5.12l2.706285-0.438857h92.16c2.779429 0 5.412571 1.243429 7.021715 3.291428l1.316571 2.267429 187.465143 510.976c1.609143 4.315429-0.804571 8.923429-5.412572 10.459428l-1.389714 0.292572-1.462857 0.146286h-80.310857a8.996571 8.996571 0 0 1-7.094857-3.437715l-1.243429-2.340571-47.981714-140.288h-197.485714l-22.747429 65.974857 24.941714 68.022857c1.828571 4.754286-0.877714 9.947429-5.997714 11.629714l-1.462857 0.292572-1.682286 0.146286H474.697143z m233.764571-436.809143h-3.730285l-77.531429 224.548571h157.988571l-76.726857-224.548571z m-365.714285-47.542857h-4.022858l-84.553142 247.222857H426.422857l-83.675428-247.222857z" /></svg>