<svg t="1717549156243" class="icon" viewBox="0 0 1024 1024" version="1.1" xmlns="http://www.w3.org/2000/svg" p-id="10731" width="200" height="200"><path d="M512 85.333333a426.666667 426.666667 0 1 1 0 853.333334A426.666667 426.666667 0 0 1 512 85.333333zM298.666667 469.333333a42.666667 42.666667 0 1 0 0 85.333334 42.666667 42.666667 0 0 0 0-85.333334z m213.333333 0a42.666667 42.666667 0 1 0 0 85.333334 42.666667 42.666667 0 0 0 0-85.333334z m213.333333 0a42.666667 42.666667 0 1 0 0 85.333334 42.666667 42.666667 0 0 0 0-85.333334z" p-id="10732"></path></svg>