<?xml version="1.0" standalone="no"?><!DOCTYPE svg PUBLIC "-//W3C//DTD SVG 1.1//EN" "http://www.w3.org/Graphics/SVG/1.1/DTD/svg11.dtd"><svg t="1608114631692" class="icon" viewBox="0 0 1024 1024" version="1.1" xmlns="http://www.w3.org/2000/svg" p-id="2026" xmlns:xlink="http://www.w3.org/1999/xlink" width="200" height="200"><defs><style type="text/css"></style></defs><path d="M512 64C264.6 64 64 264.6 64 512s200.6 448 448 448 448-200.6 448-448S759.4 64 512 64z m0 820c-205.4 0-372-166.6-372-372s166.6-372 372-372 372 166.6 372 372-166.6 372-372 372z" p-id="2027"></path><path d="M706.146 504.419L418.833 296.776c-6.19-4.433-14.833-0.117-14.833 7.582v54.71c0 11.9 5.723 23.215 15.417 30.214l169.818 122.72L419.417 634.72c-9.694 7-15.417 18.198-15.417 30.213v54.71c0 7.583 8.643 12.016 14.833 7.583l287.313-207.643c5.139-3.733 5.139-11.432 0-15.165z" p-id="2028"></path></svg>